{"glyphs":{"0":{"ha":554,"x_min":67,"x_max":486,"o":"m 276 -11 q 134 24 176 -11 q 79 156 92 60 q 67 478 67 253 q 79 799 67 703 q 134 931 92 896 q 276 967 176 967 q 424 931 382 967 q 476 805 465 896 q 486 478 486 714 q 474 156 486 253 q 419 24 461 60 q 276 -11 376 -11 m 276 47 q 377 71 349 47 q 415 179 406 94 q 425 478 425 264 q 415 776 425 692 q 377 885 406 861 q 276 908 349 908 q 176 885 204 908 q 139 776 149 861 q 129 478 129 692 q 139 179 129 264 q 176 71 149 94 q 276 47 204 47 z "},"1":{"ha":301,"x_min":40,"x_max":207,"o":"m 146 0 l 146 871 l 40 811 l 40 874 l 161 956 l 207 956 l 207 0 l 146 0 z "},"2":{"ha":488,"x_min":54,"x_max":435,"o":"m 115 58 l 435 58 l 435 0 l 54 0 l 54 100 q 58 271 54 222 q 81 351 63 319 q 147 417 100 383 l 306 532 q 360 601 347 561 q 374 722 374 642 q 362 839 374 800 q 322 893 350 878 q 238 908 293 908 q 65 894 156 908 l 65 949 q 149 962 97 957 q 249 967 200 967 q 350 951 311 967 q 412 885 389 936 q 435 735 435 835 q 425 611 435 657 q 394 536 415 565 q 333 479 372 507 l 164 357 q 125 308 136 338 q 117 256 118 289 q 115 143 115 222 l 115 58 z "},"3":{"ha":467,"x_min":28,"x_max":407,"o":"m 194 -11 q 110 -6 157 -11 q 28 8 64 0 l 28 63 q 189 47 117 47 q 277 63 244 47 q 327 121 310 78 q 344 249 344 164 q 318 408 344 360 q 228 456 292 456 l 125 456 l 125 514 l 228 514 q 338 710 338 514 q 322 836 338 793 q 273 894 306 879 q 182 908 240 908 q 106 904 149 908 q 31 893 64 900 l 31 947 q 113 961 67 956 q 194 967 158 967 q 317 942 272 967 q 381 863 361 917 q 400 715 400 808 q 374 561 400 614 q 296 492 347 508 l 296 486 q 378 419 350 472 q 407 256 407 367 q 390 106 407 163 q 327 19 374 49 q 194 -11 281 -11 z "},"4":{"ha":533,"x_min":40,"x_max":488,"o":"m 338 0 l 338 239 l 40 239 l 40 292 l 250 956 l 314 956 l 103 297 l 339 297 l 343 699 l 399 699 l 399 297 l 488 297 l 488 239 l 399 239 l 399 0 l 338 0 z "},"5":{"ha":488,"x_min":61,"x_max":442,"o":"m 61 63 q 222 47 150 47 q 322 69 289 47 q 367 138 356 90 q 379 276 379 185 q 367 419 379 375 q 319 479 354 464 q 207 494 283 494 q 68 475 161 494 l 68 956 l 400 956 l 400 897 l 129 897 l 129 539 q 246 553 174 553 q 373 524 331 553 q 428 440 415 496 q 442 286 442 385 q 424 108 442 171 q 360 17 406 46 q 228 -11 315 -11 q 144 -6 190 -11 q 61 8 99 0 l 61 63 z "},"6":{"ha":540,"x_min":67,"x_max":486,"o":"m 286 -11 q 150 19 196 -11 q 79 136 104 50 q 69 238 71 167 q 67 465 67 308 q 70 679 67 603 q 85 799 74 756 q 158 928 108 890 q 307 967 208 967 q 381 961 339 967 q 457 946 424 956 l 457 893 q 315 908 383 908 q 191 876 229 908 q 140 759 153 844 q 128 485 128 674 l 133 485 q 184 538 150 518 q 290 557 218 557 q 410 540 371 557 q 468 467 450 522 q 486 294 486 413 q 471 108 486 172 q 413 17 456 44 q 286 -11 371 -11 m 279 47 q 372 63 342 47 q 415 125 403 79 q 426 268 426 171 q 415 426 426 379 q 376 485 404 472 q 279 499 347 499 q 180 481 211 499 q 140 427 149 464 q 131 315 131 390 q 143 142 131 199 q 186 67 156 86 q 279 47 217 47 z "},"7":{"ha":447,"x_min":28,"x_max":414,"o":"m 104 0 l 350 897 l 28 897 l 28 956 l 414 956 l 414 906 l 167 0 l 104 0 z "},"8":{"ha":554,"x_min":60,"x_max":494,"o":"m 278 -11 q 141 17 188 -11 q 77 101 94 44 q 60 256 60 158 q 72 382 60 336 q 106 450 83 428 q 165 485 128 472 l 165 490 q 90 558 114 506 q 67 715 67 611 q 85 863 67 808 q 149 942 104 917 q 278 967 194 967 q 406 942 360 967 q 470 863 451 917 q 489 715 489 808 q 465 559 489 613 q 389 490 440 506 l 389 485 q 449 450 426 472 q 483 382 471 428 q 494 256 494 336 q 478 101 494 158 q 414 17 461 44 q 278 -11 367 -11 m 278 511 q 370 528 339 511 q 414 588 401 546 q 426 710 426 629 q 415 833 426 792 q 373 892 404 875 q 278 910 342 910 q 183 892 214 910 q 140 833 151 875 q 128 710 128 792 q 140 588 128 629 q 184 528 153 546 q 278 511 215 511 m 278 46 q 372 62 340 46 q 418 121 404 78 q 432 249 432 164 q 419 383 432 340 q 376 440 407 425 q 278 456 344 456 q 179 440 211 456 q 135 382 147 425 q 122 249 122 339 q 136 121 122 164 q 183 62 150 78 q 278 46 215 46 z "},"9":{"ha":540,"x_min":54,"x_max":474,"o":"m 233 -11 q 158 -6 200 -11 q 83 10 115 0 l 83 63 q 225 47 157 47 q 349 79 311 47 q 400 197 388 111 q 413 471 413 282 l 407 471 q 357 417 392 436 q 250 399 322 399 q 130 416 169 399 q 72 488 90 433 q 54 661 54 543 q 69 848 54 785 q 126 939 83 911 q 254 967 168 967 q 392 935 347 967 q 458 821 438 904 q 471 704 468 779 q 474 490 474 629 q 469 256 474 338 q 450 132 465 175 q 374 22 424 54 q 233 -11 324 -11 m 261 457 q 360 474 329 457 q 401 528 392 492 q 410 640 410 565 q 397 813 410 757 q 354 889 385 869 q 261 908 324 908 q 168 892 199 908 q 126 831 138 876 q 114 688 114 785 q 125 530 114 576 q 165 470 136 483 q 261 457 193 457 z "},"\u0000":{"ha":0,"x_min":0,"x_max":0,"o":""},"\r":{"ha":233,"x_min":0,"x_max":0,"o":""}," ":{"ha":233,"x_min":0,"x_max":0,"o":""},"A":{"ha":561,"x_min":26,"x_max":535,"o":"m 471 0 l 406 292 l 153 292 l 88 0 l 26 0 l 242 956 l 318 956 l 535 0 l 471 0 m 282 850 l 275 850 l 164 350 l 393 350 l 282 850 z "},"Á":{"ha":561,"x_min":26,"x_max":535,"o":"m 471 0 l 406 292 l 153 292 l 88 0 l 26 0 l 242 956 l 318 956 l 535 0 l 471 0 m 282 850 l 275 850 l 164 350 l 393 350 l 282 850 m 253 1042 l 253 1049 l 299 1235 l 365 1235 l 365 1228 l 294 1042 l 253 1042 z "},"Ă":{"ha":561,"x_min":26,"x_max":535,"o":"m 471 0 l 406 292 l 153 292 l 88 0 l 26 0 l 242 956 l 318 956 l 535 0 l 471 0 m 282 850 l 275 850 l 164 350 l 393 350 l 282 850 m 411 1233 q 404 1125 411 1164 q 369 1063 397 1086 q 279 1039 340 1039 q 190 1063 218 1039 q 156 1124 163 1086 q 149 1233 149 1163 l 200 1233 q 204 1144 200 1174 q 225 1099 208 1115 q 279 1083 242 1083 q 334 1099 317 1083 q 356 1144 351 1115 q 360 1233 360 1174 l 411 1233 z "},"Ắ":{"ha":561,"x_min":26,"x_max":535,"o":"m 471 0 l 406 292 l 153 292 l 88 0 l 26 0 l 242 956 l 318 956 l 535 0 l 471 0 m 282 850 l 275 850 l 164 350 l 393 350 l 282 850 m 411 1233 q 404 1125 411 1164 q 369 1063 397 1086 q 279 1039 340 1039 q 190 1063 218 1039 q 156 1124 163 1086 q 149 1233 149 1163 l 200 1233 q 204 1144 200 1174 q 225 1099 208 1115 q 279 1083 242 1083 q 334 1099 317 1083 q 356 1144 351 1115 q 360 1233 360 1174 l 411 1233 m 260 1281 l 260 1288 l 306 1474 l 372 1474 l 372 1467 l 301 1281 l 260 1281 z "},"Ặ":{"ha":561,"x_min":26,"x_max":535,"o":"m 471 0 l 406 292 l 153 292 l 88 0 l 26 0 l 242 956 l 318 956 l 535 0 l 471 0 m 282 850 l 275 850 l 164 350 l 393 350 l 282 850 m 244 -185 l 244 -86 l 317 -86 l 317 -185 l 244 -185 m 411 1233 q 404 1125 411 1164 q 369 1063 397 1086 q 279 1039 340 1039 q 190 1063 218 1039 q 156 1124 163 1086 q 149 1233 149 1163 l 200 1233 q 204 1144 200 1174 q 225 1099 208 1115 q 279 1083 242 1083 q 334 1099 317 1083 q 356 1144 351 1115 q 360 1233 360 1174 l 411 1233 z "},"Ằ":{"ha":561,"x_min":26,"x_max":535,"o":"m 471 0 l 406 292 l 153 292 l 88 0 l 26 0 l 242 956 l 318 956 l 535 0 l 471 0 m 282 850 l 275 850 l 164 350 l 393 350 l 282 850 m 411 1233 q 404 1125 411 1164 q 369 1063 397 1086 q 279 1039 340 1039 q 190 1063 218 1039 q 156 1124 163 1086 q 149 1233 149 1163 l 200 1233 q 204 1144 200 1174 q 225 1099 208 1115 q 279 1083 242 1083 q 334 1099 317 1083 q 356 1144 351 1115 q 360 1233 360 1174 l 411 1233 m 263 1281 l 192 1467 l 192 1474 l 257 1474 l 304 1288 l 304 1281 l 263 1281 z "},"Ẳ":{"ha":561,"x_min":26,"x_max":535,"o":"m 471 0 l 406 292 l 153 292 l 88 0 l 26 0 l 242 956 l 318 956 l 535 0 l 471 0 m 282 850 l 275 850 l 164 350 l 393 350 l 282 850 m 410 1233 q 403 1125 410 1164 q 367 1063 396 1086 q 278 1039 339 1039 q 189 1063 217 1039 q 154 1124 161 1086 q 147 1233 147 1163 l 199 1233 q 203 1144 199 1174 q 224 1099 207 1115 q 278 1083 240 1083 q 333 1099 315 1083 q 354 1144 350 1115 q 358 1233 358 1174 l 410 1233 m 233 1247 q 244 1285 233 1274 q 282 1306 254 1296 l 297 1310 q 340 1331 328 1319 q 351 1369 351 1342 q 347 1401 351 1392 q 326 1415 343 1410 q 269 1419 308 1419 q 167 1414 250 1419 l 167 1456 q 278 1464 247 1464 q 376 1444 351 1464 q 401 1378 401 1425 q 392 1318 401 1338 q 347 1285 383 1299 l 335 1281 q 288 1261 296 1268 q 279 1233 279 1254 l 233 1233 l 233 1247 z "},"Ẵ":{"ha":561,"x_min":26,"x_max":535,"o":"m 471 0 l 406 292 l 153 292 l 88 0 l 26 0 l 242 956 l 318 956 l 535 0 l 471 0 m 282 850 l 275 850 l 164 350 l 393 350 l 282 850 m 408 1233 q 401 1125 408 1164 q 366 1063 394 1086 q 276 1039 338 1039 q 188 1063 215 1039 q 153 1124 160 1086 q 146 1233 146 1163 l 197 1233 q 201 1144 197 1174 q 222 1099 206 1115 q 276 1083 239 1083 q 331 1099 314 1083 q 353 1144 349 1115 q 357 1233 357 1174 l 408 1233 m 442 1474 q 428 1367 442 1396 q 372 1338 414 1338 q 329 1347 351 1338 q 275 1372 307 1356 q 229 1397 249 1389 q 192 1406 210 1406 q 168 1388 174 1406 q 163 1322 163 1369 l 119 1322 q 133 1429 119 1400 q 189 1458 147 1458 q 235 1449 213 1458 q 290 1421 258 1439 q 336 1398 318 1406 q 369 1390 354 1390 q 393 1408 388 1390 q 399 1474 399 1426 l 442 1474 z "},"Ǎ":{"ha":561,"x_min":26,"x_max":535,"o":"m 471 0 l 406 292 l 153 292 l 88 0 l 26 0 l 242 956 l 318 956 l 535 0 l 471 0 m 282 850 l 275 850 l 164 350 l 393 350 l 282 850 m 243 1043 l 150 1226 l 150 1233 l 194 1233 l 281 1089 l 365 1233 l 410 1233 l 410 1226 l 317 1043 l 243 1043 z "},"Â":{"ha":561,"x_min":26,"x_max":535,"o":"m 471 0 l 406 292 l 153 292 l 88 0 l 26 0 l 242 956 l 318 956 l 535 0 l 471 0 m 282 850 l 275 850 l 164 350 l 393 350 l 282 850 m 150 1042 l 150 1049 l 243 1232 l 317 1232 l 410 1049 l 410 1042 l 365 1042 l 281 1186 l 194 1042 l 150 1042 z "},"Ấ":{"ha":561,"x_min":26,"x_max":535,"o":"m 471 0 l 406 292 l 153 292 l 88 0 l 26 0 l 242 956 l 318 956 l 535 0 l 471 0 m 282 850 l 275 850 l 164 350 l 393 350 l 282 850 m 149 1029 l 149 1036 l 242 1219 l 315 1219 l 408 1036 l 408 1029 l 364 1029 l 279 1174 l 193 1029 l 149 1029 m 358 1221 l 358 1228 l 404 1414 l 471 1414 l 471 1407 l 400 1221 l 358 1221 z "},"Ậ":{"ha":561,"x_min":26,"x_max":535,"o":"m 471 0 l 406 292 l 153 292 l 88 0 l 26 0 l 242 956 l 318 956 l 535 0 l 471 0 m 282 850 l 275 850 l 164 350 l 393 350 l 282 850 m 244 -185 l 244 -86 l 317 -86 l 317 -185 l 244 -185 m 150 1043 l 150 1050 l 243 1233 l 317 1233 l 410 1050 l 410 1043 l 365 1043 l 281 1188 l 194 1043 l 150 1043 z "},"Ầ":{"ha":561,"x_min":26,"x_max":535,"o":"m 471 0 l 406 292 l 153 292 l 88 0 l 26 0 l 242 956 l 318 956 l 535 0 l 471 0 m 282 850 l 275 850 l 164 350 l 393 350 l 282 850 m 149 1028 l 149 1035 l 242 1218 l 315 1218 l 408 1035 l 408 1028 l 364 1028 l 279 1172 l 193 1028 l 149 1028 m 360 1221 l 289 1407 l 289 1414 l 354 1414 l 401 1228 l 401 1221 l 360 1221 z "},"Ẩ":{"ha":561,"x_min":26,"x_max":535,"o":"m 471 0 l 406 292 l 153 292 l 88 0 l 26 0 l 242 956 l 318 956 l 535 0 l 471 0 m 282 850 l 275 850 l 164 350 l 393 350 l 282 850 m 150 1029 l 150 1036 l 243 1219 l 317 1219 l 410 1036 l 410 1029 l 365 1029 l 281 1174 l 194 1029 l 150 1029 m 335 1235 q 345 1272 335 1261 q 383 1293 356 1283 l 399 1297 q 441 1318 429 1307 q 453 1357 453 1329 q 449 1388 453 1379 q 427 1402 444 1397 q 371 1407 410 1407 q 268 1401 351 1407 l 268 1443 q 379 1451 349 1451 q 478 1432 453 1451 q 503 1365 503 1413 q 494 1306 503 1325 q 449 1272 485 1286 l 436 1268 q 389 1249 397 1256 q 381 1221 381 1242 l 335 1221 l 335 1235 z "},"Ẫ":{"ha":561,"x_min":26,"x_max":535,"o":"m 471 0 l 406 292 l 153 292 l 88 0 l 26 0 l 242 956 l 318 956 l 535 0 l 471 0 m 282 850 l 275 850 l 164 350 l 393 350 l 282 850 m 147 1029 l 147 1036 l 240 1219 l 314 1219 l 407 1036 l 407 1029 l 363 1029 l 278 1174 l 192 1029 l 147 1029 m 442 1460 q 428 1353 442 1382 q 372 1324 414 1324 q 329 1333 351 1324 q 275 1358 307 1342 q 229 1383 249 1375 q 192 1392 210 1392 q 168 1374 174 1392 q 163 1308 163 1356 l 119 1308 q 133 1415 119 1386 q 189 1444 147 1444 q 235 1435 213 1444 q 290 1407 258 1425 q 336 1384 318 1392 q 369 1376 354 1376 q 393 1394 388 1376 q 399 1460 399 1413 l 442 1460 z "},"Ȁ":{"ha":561,"x_min":26,"x_max":535,"o":"m 471 0 l 406 292 l 153 292 l 88 0 l 26 0 l 242 956 l 318 956 l 535 0 l 471 0 m 282 850 l 275 850 l 164 350 l 393 350 l 282 850 m 229 1050 l 190 1050 l 124 1208 l 124 1215 l 186 1215 l 229 1057 l 229 1050 m 372 1050 l 332 1050 l 267 1208 l 267 1215 l 329 1215 l 372 1057 l 372 1050 z "},"Ä":{"ha":561,"x_min":26,"x_max":535,"o":"m 471 0 l 406 292 l 153 292 l 88 0 l 26 0 l 242 956 l 318 956 l 535 0 l 471 0 m 282 850 l 275 850 l 164 350 l 393 350 l 282 850 m 131 1069 l 131 1160 l 196 1160 l 196 1069 l 131 1069 m 367 1069 l 367 1160 l 432 1160 l 432 1069 l 367 1069 z "},"Ạ":{"ha":561,"x_min":26,"x_max":535,"o":"m 471 0 l 406 292 l 153 292 l 88 0 l 26 0 l 242 956 l 318 956 l 535 0 l 471 0 m 282 850 l 275 850 l 164 350 l 393 350 l 282 850 m 244 -185 l 244 -86 l 317 -86 l 317 -185 l 244 -185 z "},"À":{"ha":561,"x_min":26,"x_max":535,"o":"m 471 0 l 406 292 l 153 292 l 88 0 l 26 0 l 242 956 l 318 956 l 535 0 l 471 0 m 282 850 l 275 850 l 164 350 l 393 350 l 282 850 m 265 1042 l 194 1228 l 194 1235 l 260 1235 l 307 1049 l 307 1042 l 265 1042 z "},"Ả":{"ha":561,"x_min":26,"x_max":535,"o":"m 471 0 l 406 292 l 153 292 l 88 0 l 26 0 l 242 956 l 318 956 l 535 0 l 471 0 m 282 850 l 275 850 l 164 350 l 393 350 l 282 850 m 229 1043 q 240 1082 229 1071 q 278 1101 251 1093 l 293 1106 q 336 1127 325 1117 q 347 1165 347 1138 q 343 1197 347 1188 q 322 1211 339 1207 q 265 1215 304 1215 q 163 1210 246 1215 l 163 1251 q 274 1261 233 1261 q 372 1241 347 1261 q 397 1174 397 1221 q 388 1114 397 1133 q 343 1082 379 1094 l 331 1078 q 283 1057 292 1064 q 275 1031 275 1050 l 229 1031 l 229 1043 z "},"Ȃ":{"ha":561,"x_min":26,"x_max":535,"o":"m 471 0 l 406 292 l 153 292 l 88 0 l 26 0 l 242 956 l 318 956 l 535 0 l 471 0 m 282 850 l 275 850 l 164 350 l 393 350 l 282 850 m 149 1047 q 156 1156 149 1117 q 191 1218 163 1194 q 281 1242 219 1242 q 369 1218 342 1242 q 404 1156 397 1194 q 411 1047 411 1118 l 360 1047 q 356 1136 360 1107 q 335 1181 351 1165 q 281 1197 318 1197 q 226 1181 243 1197 q 204 1136 208 1165 q 200 1047 200 1107 l 149 1047 z "},"Ā":{"ha":561,"x_min":26,"x_max":535,"o":"m 471 0 l 406 292 l 153 292 l 88 0 l 26 0 l 242 956 l 318 956 l 535 0 l 471 0 m 282 850 l 275 850 l 164 350 l 393 350 l 282 850 m 165 1174 l 165 1233 l 396 1233 l 396 1174 l 165 1174 z "},"Ą":{"ha":561,"x_min":26,"x_max":535,"o":"m 442 -160 q 506 -224 442 -224 l 528 -222 l 528 -271 q 494 -272 515 -272 q 413 -244 439 -272 q 386 -171 386 -217 q 409 -82 386 -129 q 469 4 432 -35 l 406 292 l 153 292 l 88 0 l 26 0 l 242 956 l 318 956 l 535 0 l 521 0 q 467 -76 492 -29 q 442 -160 442 -122 m 164 350 l 393 350 l 282 850 l 275 850 l 164 350 z "},"Å":{"ha":561,"x_min":26,"x_max":535,"o":"m 535 0 l 471 0 l 406 292 l 153 292 l 88 0 l 26 0 l 242 953 q 190 969 207 957 q 169 1005 174 982 q 164 1071 164 1028 q 171 1145 164 1121 q 202 1181 178 1169 q 279 1193 226 1193 q 357 1181 332 1193 q 390 1145 382 1169 q 397 1071 397 1121 q 383 985 397 1010 q 319 954 368 960 l 535 0 m 215 1071 q 219 1022 215 1038 q 237 1001 224 1007 q 279 994 250 994 q 334 1009 322 994 q 346 1071 346 1024 q 334 1135 346 1119 q 279 1150 322 1150 q 226 1135 238 1150 q 215 1071 215 1119 m 164 350 l 393 350 l 282 850 l 275 850 l 164 350 z "},"Ǻ":{"ha":561,"x_min":26,"x_max":535,"o":"m 535 0 l 471 0 l 406 292 l 153 292 l 88 0 l 26 0 l 242 953 q 190 969 207 957 q 169 1005 174 982 q 164 1071 164 1028 q 171 1145 164 1121 q 202 1181 178 1169 q 279 1193 226 1193 q 357 1181 332 1193 q 390 1145 382 1169 q 397 1071 397 1121 q 383 985 397 1010 q 319 954 368 960 l 535 0 m 215 1071 q 219 1022 215 1038 q 237 1001 224 1007 q 279 994 250 994 q 334 1009 322 994 q 346 1071 346 1024 q 334 1135 346 1119 q 279 1150 322 1150 q 226 1135 238 1150 q 215 1071 215 1119 m 164 350 l 393 350 l 282 850 l 275 850 l 164 350 m 256 1278 l 256 1285 l 301 1471 l 368 1471 l 368 1464 l 297 1278 l 256 1278 z "},"Ã":{"ha":561,"x_min":26,"x_max":535,"o":"m 471 0 l 406 292 l 153 292 l 88 0 l 26 0 l 242 956 l 318 956 l 535 0 l 471 0 m 282 850 l 275 850 l 164 350 l 393 350 l 282 850 m 442 1193 q 428 1086 442 1115 q 372 1057 414 1057 q 329 1066 351 1057 q 275 1092 307 1075 q 229 1117 249 1108 q 192 1125 210 1125 q 168 1107 174 1125 q 163 1042 163 1089 l 119 1042 q 133 1149 119 1119 q 189 1178 147 1178 q 235 1168 213 1178 q 290 1140 258 1158 q 336 1117 318 1125 q 369 1110 354 1110 q 393 1128 388 1110 q 399 1193 399 1146 l 442 1193 z "},"Æ":{"ha":760,"x_min":-1,"x_max":718,"o":"m 443 0 l 400 292 l 149 292 l 60 0 l -1 0 l 288 956 l 718 956 l 718 897 l 374 897 l 431 513 l 681 513 l 681 454 l 439 454 l 500 58 l 718 58 l 718 0 l 443 0 m 321 850 l 314 850 l 163 350 l 393 350 l 321 850 z "},"Ǽ":{"ha":760,"x_min":-1,"x_max":718,"o":"m 443 0 l 400 292 l 149 292 l 60 0 l -1 0 l 288 956 l 718 956 l 718 897 l 374 897 l 431 513 l 681 513 l 681 454 l 439 454 l 500 58 l 718 58 l 718 0 l 443 0 m 321 850 l 314 850 l 163 350 l 393 350 l 321 850 m 357 1040 l 357 1047 l 403 1233 l 469 1233 l 469 1226 l 399 1040 l 357 1040 z "},"B":{"ha":561,"x_min":88,"x_max":501,"o":"m 88 956 l 294 956 q 449 894 404 956 q 494 717 494 833 q 463 564 494 619 q 363 492 432 508 l 363 486 q 473 409 444 469 q 501 250 501 349 q 458 68 501 136 q 288 0 414 0 l 88 0 l 88 956 m 285 514 q 394 562 356 514 q 433 706 433 610 q 401 853 433 810 q 285 897 369 897 l 149 897 l 149 514 l 285 514 m 288 58 q 406 104 374 58 q 439 257 439 150 q 403 410 439 364 q 288 456 368 456 l 149 456 l 149 58 l 288 58 z "},"C":{"ha":443,"x_min":67,"x_max":408,"o":"m 408 4 q 292 -11 360 -11 q 144 24 190 -11 q 83 158 99 58 q 67 478 67 257 q 83 796 67 696 q 145 931 100 896 q 292 967 190 967 q 353 962 321 967 q 406 950 386 957 l 406 896 q 303 908 353 908 q 185 881 219 908 q 140 768 150 853 q 129 478 129 683 q 140 188 129 272 q 185 75 150 103 q 303 47 219 47 q 408 60 358 47 l 408 4 z "},"Ć":{"ha":443,"x_min":67,"x_max":408,"o":"m 408 4 q 292 -11 360 -11 q 144 24 190 -11 q 83 158 99 58 q 67 478 67 257 q 83 796 67 696 q 145 931 100 896 q 292 967 190 967 q 353 962 321 967 q 406 950 386 957 l 406 896 q 303 908 353 908 q 185 881 219 908 q 140 768 150 853 q 129 478 129 683 q 140 188 129 272 q 185 75 150 103 q 303 47 219 47 q 408 60 358 47 l 408 4 m 199 1040 l 199 1047 l 244 1233 l 311 1233 l 311 1226 l 240 1040 l 199 1040 z "},"Č":{"ha":443,"x_min":67,"x_max":408,"o":"m 408 4 q 292 -11 360 -11 q 144 24 190 -11 q 83 158 99 58 q 67 478 67 257 q 83 796 67 696 q 145 931 100 896 q 292 967 190 967 q 353 962 321 967 q 406 950 386 957 l 406 896 q 303 908 353 908 q 185 881 219 908 q 140 768 150 853 q 129 478 129 683 q 140 188 129 272 q 185 75 150 103 q 303 47 219 47 q 408 60 358 47 l 408 4 m 185 1043 l 92 1226 l 92 1233 l 136 1233 l 222 1089 l 307 1233 l 351 1233 l 351 1226 l 258 1043 l 185 1043 z "},"Ç":{"ha":443,"x_min":67,"x_max":408,"o":"m 303 47 q 408 60 358 47 l 408 4 q 292 -11 360 -11 q 240 -8 256 -11 l 183 -264 l 119 -264 l 119 -257 l 197 -1 q 114 60 142 14 q 76 202 86 107 q 67 478 67 297 q 83 796 67 696 q 145 931 100 896 q 292 967 190 967 q 353 962 321 967 q 406 950 386 957 l 406 896 q 303 908 353 908 q 185 881 219 908 q 140 768 150 853 q 129 478 129 683 q 140 188 129 272 q 185 75 150 103 q 303 47 219 47 z "},"Ĉ":{"ha":443,"x_min":67,"x_max":408,"o":"m 408 4 q 292 -11 360 -11 q 144 24 190 -11 q 83 158 99 58 q 67 478 67 257 q 83 796 67 696 q 145 931 100 896 q 292 967 190 967 q 353 962 321 967 q 406 950 386 957 l 406 896 q 303 908 353 908 q 185 881 219 908 q 140 768 150 853 q 129 478 129 683 q 140 188 129 272 q 185 75 150 103 q 303 47 219 47 q 408 60 358 47 l 408 4 m 92 1043 l 92 1050 l 185 1233 l 258 1233 l 351 1050 l 351 1043 l 307 1043 l 222 1188 l 136 1043 l 92 1043 z "},"Ċ":{"ha":443,"x_min":67,"x_max":408,"o":"m 408 4 q 292 -11 360 -11 q 144 24 190 -11 q 83 158 99 58 q 67 478 67 257 q 83 796 67 696 q 145 931 100 896 q 292 967 190 967 q 353 962 321 967 q 406 950 386 957 l 406 896 q 303 908 353 908 q 185 881 219 908 q 140 768 150 853 q 129 478 129 683 q 140 188 129 272 q 185 75 150 103 q 303 47 219 47 q 408 60 358 47 l 408 4 m 189 1125 l 189 1215 l 254 1215 l 254 1125 l 189 1125 z "},"D":{"ha":567,"x_min":88,"x_max":500,"o":"m 88 956 l 269 956 q 423 921 376 956 q 485 791 469 886 q 500 478 500 696 q 485 165 500 260 q 423 35 469 69 q 269 0 376 0 l 88 0 l 88 956 m 269 58 q 382 81 350 58 q 426 188 414 104 q 439 478 439 272 q 426 767 439 683 q 382 874 414 851 q 269 897 350 897 l 149 897 l 149 58 l 269 58 z "},"Ǳ":{"ha":1032,"x_min":88,"x_max":1004,"o":"m 88 956 l 269 956 q 423 921 376 956 q 485 791 469 886 q 500 478 500 696 q 485 165 500 260 q 423 35 469 69 q 269 0 376 0 l 88 0 l 88 956 m 269 58 q 382 81 350 58 q 426 188 414 104 q 439 478 439 272 q 426 767 439 683 q 382 874 414 851 q 269 897 350 897 l 149 897 l 149 58 l 269 58 m 594 0 l 594 54 l 931 897 l 604 897 l 604 956 l 997 956 l 997 901 l 664 58 l 1004 58 l 1004 0 l 594 0 z "},"Ǆ":{"ha":1032,"x_min":88,"x_max":1004,"o":"m 88 956 l 269 956 q 423 921 376 956 q 485 791 469 886 q 500 478 500 696 q 485 165 500 260 q 423 35 469 69 q 269 0 376 0 l 88 0 l 88 956 m 269 58 q 382 81 350 58 q 426 188 414 104 q 439 478 439 272 q 426 767 439 683 q 382 874 414 851 q 269 897 350 897 l 149 897 l 149 58 l 269 58 m 594 0 l 594 54 l 931 897 l 604 897 l 604 956 l 997 956 l 997 901 l 664 58 l 1004 58 l 1004 0 l 594 0 m 765 1043 l 672 1226 l 672 1233 l 717 1233 l 803 1089 l 888 1233 l 932 1233 l 932 1226 l 839 1043 l 765 1043 z "},"Ð":{"ha":568,"x_min":14,"x_max":500,"o":"m 88 454 l 14 454 l 14 515 l 88 515 l 88 956 l 269 956 q 423 921 376 956 q 485 791 469 886 q 500 478 500 696 q 485 165 500 260 q 423 35 469 69 q 269 0 376 0 l 88 0 l 88 454 m 269 58 q 382 81 350 58 q 426 188 414 104 q 439 478 439 272 q 426 767 439 683 q 382 874 414 851 q 269 897 350 897 l 149 897 l 149 515 l 301 515 l 301 454 l 149 454 l 149 58 l 269 58 z "},"Ď":{"ha":567,"x_min":88,"x_max":500,"o":"m 88 956 l 269 956 q 423 921 376 956 q 485 791 469 886 q 500 478 500 696 q 485 165 500 260 q 423 35 469 69 q 269 0 376 0 l 88 0 l 88 956 m 269 58 q 382 81 350 58 q 426 188 414 104 q 439 478 439 272 q 426 767 439 683 q 382 874 414 851 q 269 897 350 897 l 149 897 l 149 58 l 269 58 m 247 1043 l 154 1226 l 154 1233 l 199 1233 l 285 1089 l 369 1233 l 414 1233 l 414 1226 l 321 1043 l 247 1043 z "},"Đ":{"ha":568,"x_min":14,"x_max":500,"o":"m 88 454 l 14 454 l 14 515 l 88 515 l 88 956 l 269 956 q 423 921 376 956 q 485 791 469 886 q 500 478 500 696 q 485 165 500 260 q 423 35 469 69 q 269 0 376 0 l 88 0 l 88 454 m 269 58 q 382 81 350 58 q 426 188 414 104 q 439 478 439 272 q 426 767 439 683 q 382 874 414 851 q 269 897 350 897 l 149 897 l 149 515 l 301 515 l 301 454 l 149 454 l 149 58 l 269 58 z "},"Ḍ":{"ha":567,"x_min":88,"x_max":500,"o":"m 88 956 l 269 956 q 423 921 376 956 q 485 791 469 886 q 500 478 500 696 q 485 165 500 260 q 423 35 469 69 q 269 0 376 0 l 88 0 l 88 956 m 269 58 q 382 81 350 58 q 426 188 414 104 q 439 478 439 272 q 426 767 439 683 q 382 874 414 851 q 269 897 350 897 l 149 897 l 149 58 l 269 58 m 249 -185 l 249 -86 l 321 -86 l 321 -185 l 249 -185 z "},"ǲ":{"ha":986,"x_min":88,"x_max":950,"o":"m 88 956 l 269 956 q 423 921 376 956 q 485 791 469 886 q 500 478 500 696 q 485 165 500 260 q 423 35 469 69 q 269 0 376 0 l 88 0 l 88 956 m 269 58 q 382 81 350 58 q 426 188 414 104 q 439 478 439 272 q 426 767 439 683 q 382 874 414 851 q 269 897 350 897 l 149 897 l 149 58 l 269 58 m 603 0 l 603 47 l 881 654 l 613 654 l 613 708 l 949 708 l 949 661 l 671 54 l 950 54 l 950 0 l 603 0 z "},"ǅ":{"ha":986,"x_min":88,"x_max":950,"o":"m 88 956 l 269 956 q 423 921 376 956 q 485 791 469 886 q 500 478 500 696 q 485 165 500 260 q 423 35 469 69 q 269 0 376 0 l 88 0 l 88 956 m 269 58 q 382 81 350 58 q 426 188 414 104 q 439 478 439 272 q 426 767 439 683 q 382 874 414 851 q 269 897 350 897 l 149 897 l 149 58 l 269 58 m 603 0 l 603 47 l 881 654 l 613 654 l 613 708 l 949 708 l 949 661 l 671 54 l 950 54 l 950 0 l 603 0 m 750 842 l 657 1025 l 657 1032 l 701 1032 l 788 888 l 872 1032 l 917 1032 l 917 1025 l 824 842 l 750 842 z "},"E":{"ha":488,"x_min":88,"x_max":446,"o":"m 88 0 l 88 956 l 446 956 l 446 897 l 150 897 l 150 513 l 408 513 l 408 454 l 150 454 l 150 58 l 446 58 l 446 0 l 88 0 z "},"É":{"ha":488,"x_min":88,"x_max":446,"o":"m 88 0 l 88 956 l 446 956 l 446 897 l 150 897 l 150 513 l 408 513 l 408 454 l 150 454 l 150 58 l 446 58 l 446 0 l 88 0 m 251 1042 l 251 1049 l 297 1235 l 364 1235 l 364 1228 l 293 1042 l 251 1042 z "},"Ĕ":{"ha":488,"x_min":88,"x_max":446,"o":"m 88 0 l 88 956 l 446 956 l 446 897 l 150 897 l 150 513 l 408 513 l 408 454 l 150 454 l 150 58 l 446 58 l 446 0 l 88 0 m 397 1233 q 390 1125 397 1164 q 355 1063 383 1086 q 265 1039 326 1039 q 176 1063 204 1039 q 142 1124 149 1086 q 135 1233 135 1163 l 186 1233 q 190 1144 186 1174 q 211 1099 194 1115 q 265 1083 228 1083 q 320 1099 303 1083 q 342 1144 338 1115 q 346 1233 346 1174 l 397 1233 z "},"Ě":{"ha":488,"x_min":88,"x_max":446,"o":"m 88 0 l 88 956 l 446 956 l 446 897 l 150 897 l 150 513 l 408 513 l 408 454 l 150 454 l 150 58 l 446 58 l 446 0 l 88 0 m 229 1043 l 136 1226 l 136 1233 l 181 1233 l 267 1089 l 351 1233 l 396 1233 l 396 1226 l 303 1043 l 229 1043 z "},"Ê":{"ha":488,"x_min":88,"x_max":446,"o":"m 88 0 l 88 956 l 446 956 l 446 897 l 150 897 l 150 513 l 408 513 l 408 454 l 150 454 l 150 58 l 446 58 l 446 0 l 88 0 m 136 1042 l 136 1049 l 229 1232 l 303 1232 l 396 1049 l 396 1042 l 351 1042 l 267 1186 l 181 1042 l 136 1042 z "},"Ế":{"ha":488,"x_min":88,"x_max":457,"o":"m 88 0 l 88 956 l 446 956 l 446 897 l 150 897 l 150 513 l 408 513 l 408 454 l 150 454 l 150 58 l 446 58 l 446 0 l 88 0 m 135 1029 l 135 1036 l 228 1219 l 301 1219 l 394 1036 l 394 1029 l 350 1029 l 265 1174 l 179 1029 l 135 1029 m 344 1221 l 344 1228 l 390 1414 l 457 1414 l 457 1407 l 386 1221 l 344 1221 z "},"Ệ":{"ha":488,"x_min":88,"x_max":446,"o":"m 88 0 l 88 956 l 446 956 l 446 897 l 150 897 l 150 513 l 408 513 l 408 454 l 150 454 l 150 58 l 446 58 l 446 0 l 88 0 m 231 -185 l 231 -86 l 303 -86 l 303 -185 l 231 -185 m 136 1043 l 136 1050 l 229 1233 l 303 1233 l 396 1050 l 396 1043 l 351 1043 l 267 1188 l 181 1043 l 136 1043 z "},"Ề":{"ha":488,"x_min":88,"x_max":446,"o":"m 88 0 l 88 956 l 446 956 l 446 897 l 150 897 l 150 513 l 408 513 l 408 454 l 150 454 l 150 58 l 446 58 l 446 0 l 88 0 m 135 1028 l 135 1035 l 228 1218 l 301 1218 l 394 1035 l 394 1028 l 350 1028 l 265 1172 l 179 1028 l 135 1028 m 346 1221 l 275 1407 l 275 1414 l 340 1414 l 388 1228 l 388 1221 l 346 1221 z "},"Ể":{"ha":488,"x_min":88,"x_max":489,"o":"m 88 0 l 88 956 l 446 956 l 446 897 l 150 897 l 150 513 l 408 513 l 408 454 l 150 454 l 150 58 l 446 58 l 446 0 l 88 0 m 136 1029 l 136 1036 l 229 1219 l 303 1219 l 396 1036 l 396 1029 l 351 1029 l 267 1174 l 181 1029 l 136 1029 m 321 1235 q 331 1272 321 1261 q 369 1293 342 1283 l 385 1297 q 427 1318 415 1307 q 439 1357 439 1329 q 435 1388 439 1379 q 413 1402 431 1397 q 357 1407 396 1407 q 254 1401 338 1407 l 254 1443 q 365 1451 335 1451 q 464 1432 439 1451 q 489 1365 489 1413 q 480 1306 489 1325 q 435 1272 471 1286 l 422 1268 q 375 1249 383 1256 q 367 1221 367 1242 l 321 1221 l 321 1235 z "},"Ễ":{"ha":488,"x_min":88,"x_max":446,"o":"m 88 0 l 88 956 l 446 956 l 446 897 l 150 897 l 150 513 l 408 513 l 408 454 l 150 454 l 150 58 l 446 58 l 446 0 l 88 0 m 133 1029 l 133 1036 l 226 1219 l 300 1219 l 393 1036 l 393 1029 l 349 1029 l 264 1174 l 178 1029 l 133 1029 m 428 1460 q 414 1353 428 1382 q 358 1324 400 1324 q 315 1333 338 1324 q 261 1358 293 1342 q 215 1383 235 1375 q 178 1392 196 1392 q 154 1374 160 1392 q 149 1308 149 1356 l 106 1308 q 119 1415 106 1386 q 175 1444 133 1444 q 222 1435 199 1444 q 276 1407 244 1425 q 322 1384 304 1392 q 356 1376 340 1376 q 379 1394 374 1376 q 385 1460 385 1413 l 428 1460 z "},"Ȅ":{"ha":488,"x_min":88,"x_max":446,"o":"m 88 0 l 88 956 l 446 956 l 446 897 l 150 897 l 150 513 l 408 513 l 408 454 l 150 454 l 150 58 l 446 58 l 446 0 l 88 0 m 215 1050 l 176 1050 l 110 1208 l 110 1215 l 172 1215 l 215 1057 l 215 1050 m 358 1050 l 318 1050 l 253 1208 l 253 1215 l 315 1215 l 358 1057 l 358 1050 z "},"Ë":{"ha":488,"x_min":88,"x_max":446,"o":"m 88 0 l 88 956 l 446 956 l 446 897 l 150 897 l 150 513 l 408 513 l 408 454 l 150 454 l 150 58 l 446 58 l 446 0 l 88 0 m 117 1069 l 117 1160 l 182 1160 l 182 1069 l 117 1069 m 353 1069 l 353 1160 l 418 1160 l 418 1069 l 353 1069 z "},"Ė":{"ha":488,"x_min":88,"x_max":446,"o":"m 88 0 l 88 956 l 446 956 l 446 897 l 150 897 l 150 513 l 408 513 l 408 454 l 150 454 l 150 58 l 446 58 l 446 0 l 88 0 m 233 1125 l 233 1215 l 299 1215 l 299 1125 l 233 1125 z "},"Ẹ":{"ha":488,"x_min":88,"x_max":446,"o":"m 88 0 l 88 956 l 446 956 l 446 897 l 150 897 l 150 513 l 408 513 l 408 454 l 150 454 l 150 58 l 446 58 l 446 0 l 88 0 m 231 -185 l 231 -86 l 303 -86 l 303 -185 l 231 -185 z "},"È":{"ha":488,"x_min":88,"x_max":446,"o":"m 88 0 l 88 956 l 446 956 l 446 897 l 150 897 l 150 513 l 408 513 l 408 454 l 150 454 l 150 58 l 446 58 l 446 0 l 88 0 m 263 1042 l 192 1228 l 192 1235 l 257 1235 l 304 1049 l 304 1042 l 263 1042 z "},"Ẻ":{"ha":488,"x_min":88,"x_max":446,"o":"m 88 0 l 88 956 l 446 956 l 446 897 l 150 897 l 150 513 l 408 513 l 408 454 l 150 454 l 150 58 l 446 58 l 446 0 l 88 0 m 215 1043 q 226 1082 215 1071 q 264 1101 238 1093 l 279 1106 q 322 1127 311 1117 q 333 1165 333 1138 q 329 1197 333 1188 q 308 1211 325 1207 q 251 1215 290 1215 q 149 1210 232 1215 l 149 1251 q 260 1261 219 1261 q 358 1241 333 1261 q 383 1174 383 1221 q 374 1114 383 1133 q 329 1082 365 1094 l 317 1078 q 269 1057 278 1064 q 261 1031 261 1050 l 215 1031 l 215 1043 z "},"Ȇ":{"ha":488,"x_min":88,"x_max":446,"o":"m 88 0 l 88 956 l 446 956 l 446 897 l 150 897 l 150 513 l 408 513 l 408 454 l 150 454 l 150 58 l 446 58 l 446 0 l 88 0 m 135 1047 q 142 1156 135 1117 q 177 1218 149 1194 q 267 1242 206 1242 q 356 1218 328 1242 q 390 1156 383 1194 q 397 1047 397 1118 l 346 1047 q 342 1136 346 1107 q 321 1181 338 1165 q 267 1197 304 1197 q 212 1181 229 1197 q 190 1136 194 1165 q 186 1047 186 1107 l 135 1047 z "},"Ē":{"ha":488,"x_min":88,"x_max":446,"o":"m 88 0 l 88 956 l 446 956 l 446 897 l 150 897 l 150 513 l 408 513 l 408 454 l 150 454 l 150 58 l 446 58 l 446 0 l 88 0 m 151 1174 l 151 1233 l 382 1233 l 382 1174 l 151 1174 z "},"Ę":{"ha":488,"x_min":88,"x_max":446,"o":"m 406 -272 q 324 -245 350 -272 q 297 -175 297 -218 q 323 -84 297 -131 q 390 0 349 -37 l 88 0 l 88 956 l 446 956 l 446 897 l 150 897 l 150 513 l 408 513 l 408 454 l 150 454 l 150 58 l 446 58 l 446 0 q 382 -73 413 -25 q 351 -161 351 -121 q 367 -206 351 -189 q 415 -224 382 -224 l 439 -222 l 439 -271 q 406 -272 425 -272 z "},"Ẽ":{"ha":488,"x_min":88,"x_max":446,"o":"m 88 0 l 88 956 l 446 956 l 446 897 l 150 897 l 150 513 l 408 513 l 408 454 l 150 454 l 150 58 l 446 58 l 446 0 l 88 0 m 428 1233 q 414 1126 428 1156 q 358 1097 400 1097 q 315 1106 338 1097 q 261 1132 293 1115 q 215 1157 235 1149 q 178 1165 196 1165 q 154 1147 160 1165 q 149 1082 149 1129 l 106 1082 q 119 1189 106 1160 q 175 1218 133 1218 q 222 1208 199 1218 q 276 1181 244 1199 q 322 1158 304 1165 q 356 1150 340 1150 q 379 1168 374 1150 q 385 1233 385 1186 l 428 1233 z "},"F":{"ha":463,"x_min":88,"x_max":429,"o":"m 88 0 l 88 956 l 429 956 l 429 897 l 150 897 l 150 493 l 399 493 l 399 435 l 150 435 l 150 0 l 88 0 z "},"G":{"ha":547,"x_min":67,"x_max":483,"o":"m 289 433 l 289 492 l 483 492 l 483 13 q 393 -5 443 1 q 304 -11 343 -11 q 154 25 203 -11 q 86 163 106 61 q 67 478 67 264 q 85 792 67 692 q 153 930 104 893 q 307 967 203 967 q 399 960 350 967 q 482 942 449 953 l 482 888 q 404 903 447 897 q 333 908 361 908 q 199 885 239 908 q 144 775 160 863 q 129 478 129 688 q 140 196 129 282 q 188 78 151 110 q 304 46 224 46 q 369 51 335 46 q 424 63 403 56 l 424 433 l 289 433 z "},"Ǵ":{"ha":547,"x_min":67,"x_max":483,"o":"m 289 433 l 289 492 l 483 492 l 483 13 q 393 -5 443 1 q 304 -11 343 -11 q 154 25 203 -11 q 86 163 106 61 q 67 478 67 264 q 85 792 67 692 q 153 930 104 893 q 307 967 203 967 q 399 960 350 967 q 482 942 449 953 l 482 888 q 404 903 447 897 q 333 908 361 908 q 199 885 239 908 q 144 775 160 863 q 129 478 129 688 q 140 196 129 282 q 188 78 151 110 q 304 46 224 46 q 369 51 335 46 q 424 63 403 56 l 424 433 l 289 433 m 250 1040 l 250 1047 l 296 1233 l 363 1233 l 363 1226 l 292 1040 l 250 1040 z "},"Ğ":{"ha":547,"x_min":67,"x_max":483,"o":"m 289 433 l 289 492 l 483 492 l 483 13 q 393 -5 443 1 q 304 -11 343 -11 q 154 25 203 -11 q 86 163 106 61 q 67 478 67 264 q 85 792 67 692 q 153 930 104 893 q 307 967 203 967 q 399 960 350 967 q 482 942 449 953 l 482 888 q 404 903 447 897 q 333 908 361 908 q 199 885 239 908 q 144 775 160 863 q 129 478 129 688 q 140 196 129 282 q 188 78 151 110 q 304 46 224 46 q 369 51 335 46 q 424 63 403 56 l 424 433 l 289 433 m 404 1233 q 397 1125 404 1164 q 362 1063 390 1086 q 272 1039 333 1039 q 183 1063 211 1039 q 149 1124 156 1086 q 142 1233 142 1163 l 193 1233 q 197 1144 193 1174 q 218 1099 201 1115 q 272 1083 235 1083 q 327 1099 310 1083 q 349 1144 344 1115 q 353 1233 353 1174 l 404 1233 z "},"Ǧ":{"ha":547,"x_min":67,"x_max":483,"o":"m 289 433 l 289 492 l 483 492 l 483 13 q 393 -5 443 1 q 304 -11 343 -11 q 154 25 203 -11 q 86 163 106 61 q 67 478 67 264 q 85 792 67 692 q 153 930 104 893 q 307 967 203 967 q 399 960 350 967 q 482 942 449 953 l 482 888 q 404 903 447 897 q 333 908 361 908 q 199 885 239 908 q 144 775 160 863 q 129 478 129 688 q 140 196 129 282 q 188 78 151 110 q 304 46 224 46 q 369 51 335 46 q 424 63 403 56 l 424 433 l 289 433 m 236 1043 l 143 1226 l 143 1233 l 188 1233 l 274 1089 l 358 1233 l 403 1233 l 403 1226 l 310 1043 l 236 1043 z "},"Ĝ":{"ha":547,"x_min":67,"x_max":483,"o":"m 289 433 l 289 492 l 483 492 l 483 13 q 393 -5 443 1 q 304 -11 343 -11 q 154 25 203 -11 q 86 163 106 61 q 67 478 67 264 q 85 792 67 692 q 153 930 104 893 q 307 967 203 967 q 399 960 350 967 q 482 942 449 953 l 482 888 q 404 903 447 897 q 333 908 361 908 q 199 885 239 908 q 144 775 160 863 q 129 478 129 688 q 140 196 129 282 q 188 78 151 110 q 304 46 224 46 q 369 51 335 46 q 424 63 403 56 l 424 433 l 289 433 m 143 1043 l 143 1050 l 236 1233 l 310 1233 l 403 1050 l 403 1043 l 358 1043 l 274 1188 l 188 1043 l 143 1043 z "},"Ģ":{"ha":547,"x_min":67,"x_max":483,"o":"m 289 433 l 289 492 l 483 492 l 483 13 q 393 -5 443 1 q 304 -11 343 -11 q 154 25 203 -11 q 86 163 106 61 q 67 478 67 264 q 85 792 67 692 q 153 930 104 893 q 307 967 203 967 q 399 960 350 967 q 482 942 449 953 l 482 888 q 404 903 447 897 q 333 908 361 908 q 199 885 239 908 q 144 775 160 863 q 129 478 129 688 q 140 196 129 282 q 188 78 151 110 q 304 46 224 46 q 369 51 335 46 q 424 63 403 56 l 424 433 l 289 433 m 221 -289 q 263 -282 250 -289 q 280 -258 276 -275 q 283 -204 283 -242 l 283 -181 l 251 -181 l 251 -86 l 325 -86 l 325 -189 q 317 -272 325 -244 q 287 -312 308 -300 q 221 -324 265 -324 l 221 -289 z "},"Ġ":{"ha":547,"x_min":67,"x_max":483,"o":"m 289 433 l 289 492 l 483 492 l 483 13 q 393 -5 443 1 q 304 -11 343 -11 q 154 25 203 -11 q 86 163 106 61 q 67 478 67 264 q 85 792 67 692 q 153 930 104 893 q 307 967 203 967 q 399 960 350 967 q 482 942 449 953 l 482 888 q 404 903 447 897 q 333 908 361 908 q 199 885 239 908 q 144 775 160 863 q 129 478 129 688 q 140 196 129 282 q 188 78 151 110 q 304 46 224 46 q 369 51 335 46 q 424 63 403 56 l 424 433 l 289 433 m 240 1125 l 240 1215 l 306 1215 l 306 1125 l 240 1125 z "},"H":{"ha":604,"x_min":88,"x_max":517,"o":"m 454 0 l 454 454 l 150 454 l 150 0 l 88 0 l 88 956 l 150 956 l 150 513 l 454 513 l 454 956 l 517 956 l 517 0 l 454 0 z "},"Ħ":{"ha":604,"x_min":88,"x_max":517,"o":"m 454 956 l 517 956 l 517 0 l 454 0 l 454 424 l 150 424 l 150 0 l 88 0 l 88 956 l 150 956 l 150 744 l 454 744 l 454 956 m 150 482 l 454 482 l 454 683 l 150 683 l 150 482 z "},"Ĥ":{"ha":604,"x_min":88,"x_max":517,"o":"m 454 0 l 454 454 l 150 454 l 150 0 l 88 0 l 88 956 l 150 956 l 150 513 l 454 513 l 454 956 l 517 956 l 517 0 l 454 0 m 171 1043 l 171 1050 l 264 1233 l 338 1233 l 431 1050 l 431 1043 l 386 1043 l 301 1188 l 215 1043 l 171 1043 z "},"Ḥ":{"ha":604,"x_min":88,"x_max":517,"o":"m 454 0 l 454 454 l 150 454 l 150 0 l 88 0 l 88 956 l 150 956 l 150 513 l 454 513 l 454 956 l 517 956 l 517 0 l 454 0 m 265 -185 l 265 -86 l 338 -86 l 338 -185 l 265 -185 z "},"I":{"ha":250,"x_min":93,"x_max":156,"o":"m 93 0 l 93 956 l 156 956 l 156 0 l 93 0 z "},"Ĳ":{"ha":506,"x_min":93,"x_max":425,"o":"m 93 0 l 93 956 l 156 956 l 156 0 l 93 0 m 264 57 q 336 73 318 60 q 359 133 354 86 q 364 315 364 179 l 364 956 l 425 956 l 425 322 q 416 99 425 160 q 376 21 407 39 q 264 0 346 3 l 264 57 z "},"Í":{"ha":250,"x_min":93,"x_max":207,"o":"m 93 0 l 93 956 l 156 956 l 156 0 l 93 0 m 94 1042 l 94 1049 l 140 1235 l 207 1235 l 207 1228 l 136 1042 l 94 1042 z "},"Ĭ":{"ha":250,"x_min":-7,"x_max":256,"o":"m 93 0 l 93 956 l 156 956 l 156 0 l 93 0 m 256 1233 q 249 1125 256 1164 q 213 1063 242 1086 q 124 1039 185 1039 q 35 1063 63 1039 q 0 1124 7 1086 q -7 1233 -7 1163 l 44 1233 q 49 1144 44 1174 q 69 1099 53 1115 q 124 1083 86 1083 q 178 1099 161 1083 q 200 1144 196 1115 q 204 1233 204 1174 l 256 1233 z "},"Ǐ":{"ha":250,"x_min":-6,"x_max":254,"o":"m 93 0 l 93 956 l 156 956 l 156 0 l 93 0 m 88 1043 l -6 1226 l -6 1233 l 39 1233 l 125 1089 l 210 1233 l 254 1233 l 254 1226 l 161 1043 l 88 1043 z "},"Î":{"ha":250,"x_min":-6,"x_max":254,"o":"m 93 0 l 93 956 l 156 956 l 156 0 l 93 0 m -6 1042 l -6 1049 l 88 1232 l 161 1232 l 254 1049 l 254 1042 l 210 1042 l 125 1186 l 39 1042 l -6 1042 z "},"Ȉ":{"ha":250,"x_min":-32,"x_max":217,"o":"m 93 0 l 93 956 l 156 956 l 156 0 l 93 0 m 74 1050 l 35 1050 l -32 1208 l -32 1215 l 31 1215 l 74 1057 l 74 1050 m 217 1050 l 176 1050 l 111 1208 l 111 1215 l 174 1215 l 217 1057 l 217 1050 z "},"Ï":{"ha":250,"x_min":-25,"x_max":276,"o":"m 93 0 l 93 956 l 156 956 l 156 0 l 93 0 m -25 1069 l -25 1160 l 40 1160 l 40 1069 l -25 1069 m 211 1069 l 211 1160 l 276 1160 l 276 1069 l 211 1069 z "},"İ":{"ha":250,"x_min":92,"x_max":157,"o":"m 93 0 l 93 956 l 156 956 l 156 0 l 93 0 m 92 1125 l 92 1215 l 157 1215 l 157 1125 l 92 1125 z "},"Ị":{"ha":250,"x_min":89,"x_max":161,"o":"m 93 0 l 93 956 l 156 956 l 156 0 l 93 0 m 89 -185 l 89 -86 l 161 -86 l 161 -185 l 89 -185 z "},"Ì":{"ha":250,"x_min":43,"x_max":156,"o":"m 93 0 l 93 956 l 156 956 l 156 0 l 93 0 m 114 1042 l 43 1228 l 43 1235 l 108 1235 l 156 1049 l 156 1042 l 114 1042 z "},"Ỉ":{"ha":250,"x_min":7,"x_max":242,"o":"m 93 0 l 93 956 l 156 956 l 156 0 l 93 0 m 74 1043 q 85 1082 74 1071 q 122 1101 96 1093 l 138 1106 q 181 1127 169 1117 q 192 1165 192 1138 q 188 1197 192 1188 q 166 1211 183 1207 q 110 1215 149 1215 q 7 1210 90 1215 l 7 1251 q 118 1261 78 1261 q 217 1241 192 1261 q 242 1174 242 1221 q 233 1114 242 1133 q 188 1082 224 1094 l 175 1078 q 128 1057 136 1064 q 119 1031 119 1050 l 74 1031 l 74 1043 z "},"Ȋ":{"ha":250,"x_min":-7,"x_max":256,"o":"m 93 0 l 93 956 l 156 956 l 156 0 l 93 0 m -7 1047 q 0 1156 -7 1117 q 35 1218 7 1194 q 125 1242 64 1242 q 214 1218 186 1242 q 249 1156 242 1194 q 256 1047 256 1118 l 204 1047 q 200 1136 204 1107 q 179 1181 196 1165 q 125 1197 163 1197 q 70 1181 88 1197 q 49 1136 53 1165 q 44 1047 44 1107 l -7 1047 z "},"Ī":{"ha":250,"x_min":10,"x_max":240,"o":"m 93 0 l 93 956 l 156 956 l 156 0 l 93 0 m 10 1174 l 10 1233 l 240 1233 l 240 1174 l 10 1174 z "},"Į":{"ha":250,"x_min":15,"x_max":157,"o":"m 124 -272 q 42 -244 68 -272 q 15 -171 15 -217 q 39 -84 15 -131 q 100 0 63 -37 l 93 0 l 93 956 l 156 956 l 156 0 q 98 -74 125 -25 q 71 -160 71 -122 q 135 -224 71 -224 l 157 -222 l 157 -271 q 124 -272 144 -272 z "},"Ĩ":{"ha":250,"x_min":-36,"x_max":286,"o":"m 93 0 l 93 956 l 156 956 l 156 0 l 93 0 m 286 1233 q 272 1126 286 1156 q 217 1097 258 1097 q 174 1106 196 1097 q 119 1132 151 1115 q 74 1157 93 1149 q 36 1165 54 1165 q 13 1147 18 1165 q 7 1082 7 1129 l -36 1082 q -22 1189 -36 1160 q 33 1218 -8 1218 q 80 1208 57 1218 q 135 1181 103 1199 q 181 1158 163 1165 q 214 1150 199 1150 q 238 1168 232 1150 q 243 1233 243 1186 l 286 1233 z "},"J":{"ha":256,"x_min":14,"x_max":175,"o":"m 14 57 q 86 73 68 60 q 109 133 104 86 q 114 315 114 179 l 114 956 l 175 956 l 175 322 q 166 99 175 160 q 126 21 157 39 q 14 0 96 3 l 14 57 z "},"Ĵ":{"ha":256,"x_min":14,"x_max":274,"o":"m 14 57 q 86 73 68 60 q 109 133 104 86 q 114 315 114 179 l 114 956 l 175 956 l 175 322 q 166 99 175 160 q 126 21 157 39 q 14 0 96 3 l 14 57 m 14 1043 l 14 1050 l 107 1233 l 181 1233 l 274 1050 l 274 1043 l 229 1043 l 144 1188 l 58 1043 l 14 1043 z "},"K":{"ha":540,"x_min":88,"x_max":521,"o":"m 454 0 l 260 456 l 150 456 l 150 0 l 88 0 l 88 956 l 150 956 l 150 514 l 260 514 l 453 956 l 518 956 l 311 486 l 521 0 l 454 0 z "},"Ķ":{"ha":540,"x_min":88,"x_max":521,"o":"m 454 0 l 260 456 l 150 456 l 150 0 l 88 0 l 88 956 l 150 956 l 150 514 l 260 514 l 453 956 l 518 956 l 311 486 l 521 0 l 454 0 m 217 -289 q 259 -282 246 -289 q 276 -258 272 -275 q 279 -204 279 -242 l 279 -181 l 247 -181 l 247 -86 l 321 -86 l 321 -189 q 313 -272 321 -244 q 283 -312 304 -300 q 217 -324 261 -324 l 217 -289 z "},"L":{"ha":421,"x_min":88,"x_max":414,"o":"m 88 0 l 88 956 l 150 956 l 150 58 l 414 58 l 414 0 l 88 0 z "},"Ǉ":{"ha":676,"x_min":88,"x_max":596,"o":"m 88 0 l 88 956 l 150 956 l 150 58 l 414 58 l 414 0 l 88 0 m 435 57 q 507 73 489 60 q 530 133 525 86 q 535 315 535 179 l 535 956 l 596 956 l 596 322 q 587 99 596 160 q 547 21 578 39 q 435 0 517 3 l 435 57 z "},"Ĺ":{"ha":421,"x_min":88,"x_max":414,"o":"m 88 0 l 88 956 l 150 956 l 150 58 l 414 58 l 414 0 l 88 0 m 96 1040 l 96 1047 l 142 1233 l 208 1233 l 208 1226 l 138 1040 l 96 1040 z "},"Ľ":{"ha":421,"x_min":88,"x_max":414,"o":"m 88 0 l 88 956 l 150 956 l 150 58 l 414 58 l 414 0 l 88 0 m 256 628 l 272 836 l 272 956 l 336 956 l 336 836 l 296 628 l 256 628 z "},"Ļ":{"ha":421,"x_min":88,"x_max":414,"o":"m 88 0 l 88 956 l 150 956 l 150 58 l 414 58 l 414 0 l 88 0 m 171 -289 q 213 -282 200 -289 q 230 -258 226 -275 q 233 -204 233 -242 l 233 -181 l 201 -181 l 201 -86 l 275 -86 l 275 -189 q 267 -272 275 -244 q 237 -312 258 -300 q 171 -324 215 -324 l 171 -289 z "},"Ŀ":{"ha":426,"x_min":88,"x_max":414,"o":"m 88 0 l 88 956 l 150 956 l 150 58 l 414 58 l 414 0 l 88 0 m 315 451 l 315 550 l 388 550 l 388 451 l 315 451 z "},"ǈ":{"ha":642,"x_min":88,"x_max":564,"o":"m 88 0 l 88 956 l 150 956 l 150 58 l 414 58 l 414 0 l 88 0 m 499 940 l 499 1032 l 564 1032 l 564 940 l 499 940 m 418 -215 q 474 -208 457 -215 q 497 -185 492 -201 q 501 -136 501 -169 l 501 708 l 561 708 l 561 -117 q 547 -217 561 -185 q 503 -257 532 -249 q 418 -265 475 -265 l 418 -215 z "},"Ł":{"ha":421,"x_min":26,"x_max":414,"o":"m 150 58 l 414 58 l 414 0 l 88 0 l 88 399 l 26 376 l 26 433 l 88 456 l 88 956 l 150 956 l 150 479 l 326 544 l 326 488 l 150 422 l 150 58 z "},"M":{"ha":763,"x_min":88,"x_max":675,"o":"m 614 0 l 614 817 l 607 817 l 414 0 l 344 0 l 153 817 l 147 817 l 147 0 l 88 0 l 88 956 l 179 956 l 378 117 l 385 117 l 585 956 l 675 956 l 675 0 l 614 0 z "},"N":{"ha":604,"x_min":88,"x_max":517,"o":"m 449 0 l 153 797 l 147 797 l 147 0 l 88 0 l 88 956 l 157 956 l 451 163 l 457 163 l 457 956 l 517 956 l 517 0 l 449 0 z "},"Ǌ":{"ha":860,"x_min":88,"x_max":779,"o":"m 449 0 l 153 797 l 147 797 l 147 0 l 88 0 l 88 956 l 157 956 l 451 163 l 457 163 l 457 956 l 517 956 l 517 0 l 449 0 m 618 57 q 690 73 672 60 q 713 133 708 86 q 718 315 718 179 l 718 956 l 779 956 l 779 322 q 770 99 779 160 q 731 21 761 39 q 618 0 700 3 l 618 57 z "},"Ń":{"ha":604,"x_min":88,"x_max":517,"o":"m 449 0 l 153 797 l 147 797 l 147 0 l 88 0 l 88 956 l 157 956 l 451 163 l 457 163 l 457 956 l 517 956 l 517 0 l 449 0 m 279 1040 l 279 1047 l 325 1233 l 392 1233 l 392 1226 l 321 1040 l 279 1040 z "},"Ň":{"ha":604,"x_min":88,"x_max":517,"o":"m 449 0 l 153 797 l 147 797 l 147 0 l 88 0 l 88 956 l 157 956 l 451 163 l 457 163 l 457 956 l 517 956 l 517 0 l 449 0 m 265 1043 l 172 1226 l 172 1233 l 217 1233 l 303 1089 l 388 1233 l 432 1233 l 432 1226 l 339 1043 l 265 1043 z "},"Ņ":{"ha":604,"x_min":88,"x_max":517,"o":"m 449 0 l 153 797 l 147 797 l 147 0 l 88 0 l 88 956 l 157 956 l 451 163 l 457 163 l 457 956 l 517 956 l 517 0 l 449 0 m 250 -289 q 292 -282 279 -289 q 309 -258 306 -275 q 313 -204 313 -242 l 313 -181 l 281 -181 l 281 -86 l 354 -86 l 354 -189 q 346 -272 354 -244 q 316 -312 338 -300 q 250 -324 294 -324 l 250 -289 z "},"Ṅ":{"ha":604,"x_min":88,"x_max":517,"o":"m 449 0 l 153 797 l 147 797 l 147 0 l 88 0 l 88 956 l 157 956 l 451 163 l 457 163 l 457 956 l 517 956 l 517 0 l 449 0 m 269 1125 l 269 1215 l 335 1215 l 335 1125 l 269 1125 z "},"Ŋ":{"ha":604,"x_min":88,"x_max":517,"o":"m 517 956 l 517 -119 q 502 -217 517 -186 q 459 -257 488 -249 q 374 -265 431 -265 l 374 -215 q 430 -208 413 -215 q 452 -185 447 -201 q 457 -136 457 -169 l 457 4 l 153 797 l 147 797 l 147 0 l 88 0 l 88 956 l 157 956 l 451 172 l 457 172 l 457 956 l 517 956 z "},"Ɲ":{"ha":604,"x_min":4,"x_max":517,"o":"m 517 956 l 517 0 l 449 0 l 153 797 l 147 797 l 147 -117 q 133 -217 147 -185 q 90 -257 118 -249 q 4 -265 61 -265 l 4 -215 q 60 -208 43 -215 q 83 -185 78 -201 q 88 -136 88 -169 l 88 956 l 157 956 l 451 163 l 457 163 l 457 956 l 517 956 z "},"ǋ":{"ha":825,"x_min":88,"x_max":747,"o":"m 449 0 l 153 797 l 147 797 l 147 0 l 88 0 l 88 956 l 157 956 l 451 163 l 457 163 l 457 956 l 517 956 l 517 0 l 449 0 m 682 940 l 682 1032 l 747 1032 l 747 940 l 682 940 m 601 -215 q 658 -208 640 -215 q 680 -185 675 -201 q 685 -136 685 -169 l 685 708 l 744 708 l 744 -117 q 730 -217 744 -185 q 687 -257 715 -249 q 601 -265 658 -265 l 601 -215 z "},"Ñ":{"ha":604,"x_min":88,"x_max":517,"o":"m 449 0 l 153 797 l 147 797 l 147 0 l 88 0 l 88 956 l 157 956 l 451 163 l 457 163 l 457 956 l 517 956 l 517 0 l 449 0 m 464 1193 q 450 1086 464 1115 q 394 1057 436 1057 q 351 1066 374 1057 q 297 1092 329 1075 q 251 1117 271 1108 q 214 1125 232 1125 q 190 1107 196 1125 q 185 1042 185 1089 l 142 1042 q 156 1149 142 1119 q 211 1178 169 1178 q 258 1168 235 1178 q 313 1140 281 1158 q 358 1117 340 1125 q 392 1110 376 1110 q 415 1128 410 1110 q 421 1193 421 1146 l 464 1193 z "},"O":{"ha":594,"x_min":67,"x_max":528,"o":"m 297 -11 q 144 24 190 -11 q 82 157 97 60 q 67 478 67 254 q 82 799 67 701 q 144 931 97 896 q 297 967 190 967 q 451 931 404 967 q 513 799 497 896 q 528 478 528 701 q 513 157 528 254 q 451 24 497 60 q 297 -11 404 -11 m 297 47 q 408 71 376 47 q 453 181 440 94 q 465 478 465 267 q 453 775 465 689 q 408 885 440 861 q 297 908 376 908 q 185 885 217 908 q 141 775 153 861 q 129 478 129 689 q 141 181 129 267 q 185 71 153 94 q 297 47 217 47 z "},"Ó":{"ha":594,"x_min":67,"x_max":528,"o":"m 297 -11 q 144 24 190 -11 q 82 157 97 60 q 67 478 67 254 q 82 799 67 701 q 144 931 97 896 q 297 967 190 967 q 451 931 404 967 q 513 799 497 896 q 528 478 528 701 q 513 157 528 254 q 451 24 497 60 q 297 -11 404 -11 m 297 47 q 408 71 376 47 q 453 181 440 94 q 465 478 465 267 q 453 775 465 689 q 408 885 440 861 q 297 908 376 908 q 185 885 217 908 q 141 775 153 861 q 129 478 129 689 q 141 181 129 267 q 185 71 153 94 q 297 47 217 47 m 271 1042 l 271 1049 l 317 1235 l 383 1235 l 383 1228 l 313 1042 l 271 1042 z "},"Ŏ":{"ha":594,"x_min":67,"x_max":528,"o":"m 297 -11 q 144 24 190 -11 q 82 157 97 60 q 67 478 67 254 q 82 799 67 701 q 144 931 97 896 q 297 967 190 967 q 451 931 404 967 q 513 799 497 896 q 528 478 528 701 q 513 157 528 254 q 451 24 497 60 q 297 -11 404 -11 m 297 47 q 408 71 376 47 q 453 181 440 94 q 465 478 465 267 q 453 775 465 689 q 408 885 440 861 q 297 908 376 908 q 185 885 217 908 q 141 775 153 861 q 129 478 129 689 q 141 181 129 267 q 185 71 153 94 q 297 47 217 47 m 428 1233 q 421 1125 428 1164 q 385 1063 414 1086 q 296 1039 357 1039 q 207 1063 235 1039 q 172 1124 179 1086 q 165 1233 165 1163 l 217 1233 q 221 1144 217 1174 q 242 1099 225 1115 q 296 1083 258 1083 q 351 1099 333 1083 q 372 1144 368 1115 q 376 1233 376 1174 l 428 1233 z "},"Ǒ":{"ha":594,"x_min":67,"x_max":528,"o":"m 297 -11 q 144 24 190 -11 q 82 157 97 60 q 67 478 67 254 q 82 799 67 701 q 144 931 97 896 q 297 967 190 967 q 451 931 404 967 q 513 799 497 896 q 528 478 528 701 q 513 157 528 254 q 451 24 497 60 q 297 -11 404 -11 m 297 47 q 408 71 376 47 q 453 181 440 94 q 465 478 465 267 q 453 775 465 689 q 408 885 440 861 q 297 908 376 908 q 185 885 217 908 q 141 775 153 861 q 129 478 129 689 q 141 181 129 267 q 185 71 153 94 q 297 47 217 47 m 260 1043 l 167 1226 l 167 1233 l 211 1233 l 297 1089 l 382 1233 l 426 1233 l 426 1226 l 333 1043 l 260 1043 z "},"Ô":{"ha":594,"x_min":67,"x_max":528,"o":"m 297 -11 q 144 24 190 -11 q 82 157 97 60 q 67 478 67 254 q 82 799 67 701 q 144 931 97 896 q 297 967 190 967 q 451 931 404 967 q 513 799 497 896 q 528 478 528 701 q 513 157 528 254 q 451 24 497 60 q 297 -11 404 -11 m 297 47 q 408 71 376 47 q 453 181 440 94 q 465 478 465 267 q 453 775 465 689 q 408 885 440 861 q 297 908 376 908 q 185 885 217 908 q 141 775 153 861 q 129 478 129 689 q 141 181 129 267 q 185 71 153 94 q 297 47 217 47 m 167 1042 l 167 1049 l 260 1232 l 333 1232 l 426 1049 l 426 1042 l 382 1042 l 297 1186 l 211 1042 l 167 1042 z "},"Ố":{"ha":594,"x_min":67,"x_max":528,"o":"m 297 -11 q 144 24 190 -11 q 82 157 97 60 q 67 478 67 254 q 82 799 67 701 q 144 931 97 896 q 297 967 190 967 q 451 931 404 967 q 513 799 497 896 q 528 478 528 701 q 513 157 528 254 q 451 24 497 60 q 297 -11 404 -11 m 297 47 q 408 71 376 47 q 453 181 440 94 q 465 478 465 267 q 453 775 465 689 q 408 885 440 861 q 297 908 376 908 q 185 885 217 908 q 141 775 153 861 q 129 478 129 689 q 141 181 129 267 q 185 71 153 94 q 297 47 217 47 m 165 1029 l 165 1036 l 258 1219 l 332 1219 l 425 1036 l 425 1029 l 381 1029 l 296 1174 l 210 1029 l 165 1029 m 375 1221 l 375 1228 l 421 1414 l 488 1414 l 488 1407 l 417 1221 l 375 1221 z "},"Ộ":{"ha":594,"x_min":67,"x_max":528,"o":"m 297 -11 q 144 24 190 -11 q 82 157 97 60 q 67 478 67 254 q 82 799 67 701 q 144 931 97 896 q 297 967 190 967 q 451 931 404 967 q 513 799 497 896 q 528 478 528 701 q 513 157 528 254 q 451 24 497 60 q 297 -11 404 -11 m 297 47 q 408 71 376 47 q 453 181 440 94 q 465 478 465 267 q 453 775 465 689 q 408 885 440 861 q 297 908 376 908 q 185 885 217 908 q 141 775 153 861 q 129 478 129 689 q 141 181 129 267 q 185 71 153 94 q 297 47 217 47 m 261 -185 l 261 -86 l 333 -86 l 333 -185 l 261 -185 m 167 1043 l 167 1050 l 260 1233 l 333 1233 l 426 1050 l 426 1043 l 382 1043 l 297 1188 l 211 1043 l 167 1043 z "},"Ồ":{"ha":594,"x_min":67,"x_max":528,"o":"m 297 -11 q 144 24 190 -11 q 82 157 97 60 q 67 478 67 254 q 82 799 67 701 q 144 931 97 896 q 297 967 190 967 q 451 931 404 967 q 513 799 497 896 q 528 478 528 701 q 513 157 528 254 q 451 24 497 60 q 297 -11 404 -11 m 297 47 q 408 71 376 47 q 453 181 440 94 q 465 478 465 267 q 453 775 465 689 q 408 885 440 861 q 297 908 376 908 q 185 885 217 908 q 141 775 153 861 q 129 478 129 689 q 141 181 129 267 q 185 71 153 94 q 297 47 217 47 m 165 1028 l 165 1035 l 258 1218 l 332 1218 l 425 1035 l 425 1028 l 381 1028 l 296 1172 l 210 1028 l 165 1028 m 376 1221 l 306 1407 l 306 1414 l 371 1414 l 418 1228 l 418 1221 l 376 1221 z "},"Ổ":{"ha":594,"x_min":67,"x_max":528,"o":"m 297 -11 q 144 24 190 -11 q 82 157 97 60 q 67 478 67 254 q 82 799 67 701 q 144 931 97 896 q 297 967 190 967 q 451 931 404 967 q 513 799 497 896 q 528 478 528 701 q 513 157 528 254 q 451 24 497 60 q 297 -11 404 -11 m 297 47 q 408 71 376 47 q 453 181 440 94 q 465 478 465 267 q 453 775 465 689 q 408 885 440 861 q 297 908 376 908 q 185 885 217 908 q 141 775 153 861 q 129 478 129 689 q 141 181 129 267 q 185 71 153 94 q 297 47 217 47 m 167 1029 l 167 1036 l 260 1219 l 333 1219 l 426 1036 l 426 1029 l 382 1029 l 297 1174 l 211 1029 l 167 1029 m 351 1235 q 362 1272 351 1261 q 400 1293 372 1283 l 415 1297 q 458 1318 446 1307 q 469 1357 469 1329 q 465 1388 469 1379 q 444 1402 461 1397 q 388 1407 426 1407 q 285 1401 368 1407 l 285 1443 q 396 1451 365 1451 q 494 1432 469 1451 q 519 1365 519 1413 q 510 1306 519 1325 q 465 1272 501 1286 l 453 1268 q 406 1249 414 1256 q 397 1221 397 1242 l 351 1221 l 351 1235 z "},"Ỗ":{"ha":594,"x_min":67,"x_max":528,"o":"m 297 -11 q 144 24 190 -11 q 82 157 97 60 q 67 478 67 254 q 82 799 67 701 q 144 931 97 896 q 297 967 190 967 q 451 931 404 967 q 513 799 497 896 q 528 478 528 701 q 513 157 528 254 q 451 24 497 60 q 297 -11 404 -11 m 297 47 q 408 71 376 47 q 453 181 440 94 q 465 478 465 267 q 453 775 465 689 q 408 885 440 861 q 297 908 376 908 q 185 885 217 908 q 141 775 153 861 q 129 478 129 689 q 141 181 129 267 q 185 71 153 94 q 297 47 217 47 m 164 1029 l 164 1036 l 257 1219 l 331 1219 l 424 1036 l 424 1029 l 379 1029 l 294 1174 l 208 1029 l 164 1029 m 458 1460 q 444 1353 458 1382 q 389 1324 431 1324 q 346 1333 368 1324 q 292 1358 324 1342 q 246 1383 265 1375 q 208 1392 226 1392 q 185 1374 190 1392 q 179 1308 179 1356 l 136 1308 q 150 1415 136 1386 q 206 1444 164 1444 q 252 1435 229 1444 q 307 1407 275 1425 q 353 1384 335 1392 q 386 1376 371 1376 q 410 1394 404 1376 q 415 1460 415 1413 l 458 1460 z "},"Ȍ":{"ha":594,"x_min":67,"x_max":528,"o":"m 297 -11 q 144 24 190 -11 q 82 157 97 60 q 67 478 67 254 q 82 799 67 701 q 144 931 97 896 q 297 967 190 967 q 451 931 404 967 q 513 799 497 896 q 528 478 528 701 q 513 157 528 254 q 451 24 497 60 q 297 -11 404 -11 m 297 47 q 408 71 376 47 q 453 181 440 94 q 465 478 465 267 q 453 775 465 689 q 408 885 440 861 q 297 908 376 908 q 185 885 217 908 q 141 775 153 861 q 129 478 129 689 q 141 181 129 267 q 185 71 153 94 q 297 47 217 47 m 246 1050 l 207 1050 l 140 1208 l 140 1215 l 203 1215 l 246 1057 l 246 1050 m 389 1050 l 349 1050 l 283 1208 l 283 1215 l 346 1215 l 389 1057 l 389 1050 z "},"Ö":{"ha":594,"x_min":67,"x_max":528,"o":"m 297 -11 q 144 24 190 -11 q 82 157 97 60 q 67 478 67 254 q 82 799 67 701 q 144 931 97 896 q 297 967 190 967 q 451 931 404 967 q 513 799 497 896 q 528 478 528 701 q 513 157 528 254 q 451 24 497 60 q 297 -11 404 -11 m 297 47 q 408 71 376 47 q 453 181 440 94 q 465 478 465 267 q 453 775 465 689 q 408 885 440 861 q 297 908 376 908 q 185 885 217 908 q 141 775 153 861 q 129 478 129 689 q 141 181 129 267 q 185 71 153 94 q 297 47 217 47 m 146 1069 l 146 1160 l 211 1160 l 211 1069 l 146 1069 m 382 1069 l 382 1160 l 447 1160 l 447 1069 l 382 1069 z "},"Ọ":{"ha":594,"x_min":67,"x_max":528,"o":"m 297 -11 q 144 24 190 -11 q 82 157 97 60 q 67 478 67 254 q 82 799 67 701 q 144 931 97 896 q 297 967 190 967 q 451 931 404 967 q 513 799 497 896 q 528 478 528 701 q 513 157 528 254 q 451 24 497 60 q 297 -11 404 -11 m 297 47 q 408 71 376 47 q 453 181 440 94 q 465 478 465 267 q 453 775 465 689 q 408 885 440 861 q 297 908 376 908 q 185 885 217 908 q 141 775 153 861 q 129 478 129 689 q 141 181 129 267 q 185 71 153 94 q 297 47 217 47 m 261 -185 l 261 -86 l 333 -86 l 333 -185 l 261 -185 z "},"Ò":{"ha":594,"x_min":67,"x_max":528,"o":"m 297 -11 q 144 24 190 -11 q 82 157 97 60 q 67 478 67 254 q 82 799 67 701 q 144 931 97 896 q 297 967 190 967 q 451 931 404 967 q 513 799 497 896 q 528 478 528 701 q 513 157 528 254 q 451 24 497 60 q 297 -11 404 -11 m 297 47 q 408 71 376 47 q 453 181 440 94 q 465 478 465 267 q 453 775 465 689 q 408 885 440 861 q 297 908 376 908 q 185 885 217 908 q 141 775 153 861 q 129 478 129 689 q 141 181 129 267 q 185 71 153 94 q 297 47 217 47 m 282 1042 l 211 1228 l 211 1235 l 276 1235 l 324 1049 l 324 1042 l 282 1042 z "},"Ỏ":{"ha":594,"x_min":67,"x_max":528,"o":"m 297 -11 q 144 24 190 -11 q 82 157 97 60 q 67 478 67 254 q 82 799 67 701 q 144 931 97 896 q 297 967 190 967 q 451 931 404 967 q 513 799 497 896 q 528 478 528 701 q 513 157 528 254 q 451 24 497 60 q 297 -11 404 -11 m 297 47 q 408 71 376 47 q 453 181 440 94 q 465 478 465 267 q 453 775 465 689 q 408 885 440 861 q 297 908 376 908 q 185 885 217 908 q 141 775 153 861 q 129 478 129 689 q 141 181 129 267 q 185 71 153 94 q 297 47 217 47 m 246 1043 q 257 1082 246 1071 q 294 1101 268 1093 l 310 1106 q 353 1127 342 1117 q 364 1165 364 1138 q 360 1197 364 1188 q 338 1211 356 1207 q 282 1215 321 1215 q 179 1210 263 1215 l 179 1251 q 290 1261 250 1261 q 389 1241 364 1261 q 414 1174 414 1221 q 405 1114 414 1133 q 360 1082 396 1094 l 347 1078 q 300 1057 308 1064 q 292 1031 292 1050 l 246 1031 l 246 1043 z "},"Ơ":{"ha":594,"x_min":67,"x_max":564,"o":"m 564 1090 l 564 1044 q 545 942 564 969 q 469 913 526 915 q 517 774 506 869 q 528 478 528 678 q 513 157 528 254 q 451 24 497 60 q 297 -11 404 -11 q 144 24 190 -11 q 82 157 97 60 q 67 478 67 254 q 82 799 67 701 q 144 931 97 896 q 297 967 190 967 q 401 956 364 967 l 451 956 q 494 963 481 956 q 510 986 507 971 q 514 1033 514 1001 l 514 1090 l 564 1090 m 297 47 q 408 71 376 47 q 453 181 440 94 q 465 478 465 267 q 453 775 465 689 q 408 885 440 861 q 297 908 376 908 q 185 885 217 908 q 141 775 153 861 q 129 478 129 689 q 141 181 129 267 q 185 71 153 94 q 297 47 217 47 z "},"Ớ":{"ha":594,"x_min":67,"x_max":564,"o":"m 564 1090 l 564 1044 q 545 942 564 969 q 469 913 526 915 q 517 774 506 869 q 528 478 528 678 q 513 157 528 254 q 451 24 497 60 q 297 -11 404 -11 q 144 24 190 -11 q 82 157 97 60 q 67 478 67 254 q 82 799 67 701 q 144 931 97 896 q 297 967 190 967 q 401 956 364 967 l 451 956 q 494 963 481 956 q 510 986 507 971 q 514 1033 514 1001 l 514 1090 l 564 1090 m 297 47 q 408 71 376 47 q 453 181 440 94 q 465 478 465 267 q 453 775 465 689 q 408 885 440 861 q 297 908 376 908 q 185 885 217 908 q 141 775 153 861 q 129 478 129 689 q 141 181 129 267 q 185 71 153 94 q 297 47 217 47 m 274 1040 l 274 1047 l 319 1233 l 386 1233 l 386 1226 l 315 1040 l 274 1040 z "},"Ợ":{"ha":594,"x_min":67,"x_max":564,"o":"m 564 1090 l 564 1044 q 545 942 564 969 q 469 913 526 915 q 517 774 506 869 q 528 478 528 678 q 513 157 528 254 q 451 24 497 60 q 297 -11 404 -11 q 144 24 190 -11 q 82 157 97 60 q 67 478 67 254 q 82 799 67 701 q 144 931 97 896 q 297 967 190 967 q 401 956 364 967 l 451 956 q 494 963 481 956 q 510 986 507 971 q 514 1033 514 1001 l 514 1090 l 564 1090 m 297 47 q 408 71 376 47 q 453 181 440 94 q 465 478 465 267 q 453 775 465 689 q 408 885 440 861 q 297 908 376 908 q 185 885 217 908 q 141 775 153 861 q 129 478 129 689 q 141 181 129 267 q 185 71 153 94 q 297 47 217 47 m 261 -185 l 261 -86 l 333 -86 l 333 -185 l 261 -185 z "},"Ờ":{"ha":594,"x_min":67,"x_max":564,"o":"m 564 1090 l 564 1044 q 545 942 564 969 q 469 913 526 915 q 517 774 506 869 q 528 478 528 678 q 513 157 528 254 q 451 24 497 60 q 297 -11 404 -11 q 144 24 190 -11 q 82 157 97 60 q 67 478 67 254 q 82 799 67 701 q 144 931 97 896 q 297 967 190 967 q 401 956 364 967 l 451 956 q 494 963 481 956 q 510 986 507 971 q 514 1033 514 1001 l 514 1090 l 564 1090 m 297 47 q 408 71 376 47 q 453 181 440 94 q 465 478 465 267 q 453 775 465 689 q 408 885 440 861 q 297 908 376 908 q 185 885 217 908 q 141 775 153 861 q 129 478 129 689 q 141 181 129 267 q 185 71 153 94 q 297 47 217 47 m 281 1040 l 210 1226 l 210 1233 l 275 1233 l 322 1047 l 322 1040 l 281 1040 z "},"Ở":{"ha":594,"x_min":67,"x_max":564,"o":"m 564 1090 l 564 1044 q 545 942 564 969 q 469 913 526 915 q 517 774 506 869 q 528 478 528 678 q 513 157 528 254 q 451 24 497 60 q 297 -11 404 -11 q 144 24 190 -11 q 82 157 97 60 q 67 478 67 254 q 82 799 67 701 q 144 931 97 896 q 297 967 190 967 q 401 956 364 967 l 451 956 q 494 963 481 956 q 510 986 507 971 q 514 1033 514 1001 l 514 1090 l 564 1090 m 297 47 q 408 71 376 47 q 453 181 440 94 q 465 478 465 267 q 453 775 465 689 q 408 885 440 861 q 297 908 376 908 q 185 885 217 908 q 141 775 153 861 q 129 478 129 689 q 141 181 129 267 q 185 71 153 94 q 297 47 217 47 m 246 1043 q 257 1082 246 1071 q 294 1101 268 1093 l 310 1106 q 353 1127 342 1117 q 364 1165 364 1138 q 360 1197 364 1188 q 338 1211 356 1207 q 282 1215 321 1215 q 179 1210 263 1215 l 179 1251 q 290 1261 250 1261 q 389 1241 364 1261 q 414 1174 414 1221 q 405 1114 414 1133 q 360 1082 396 1094 l 347 1078 q 300 1057 308 1064 q 292 1031 292 1050 l 246 1031 l 246 1043 z "},"Ỡ":{"ha":594,"x_min":67,"x_max":564,"o":"m 564 1090 l 564 1044 q 545 942 564 969 q 469 913 526 915 q 517 774 506 869 q 528 478 528 678 q 513 157 528 254 q 451 24 497 60 q 297 -11 404 -11 q 144 24 190 -11 q 82 157 97 60 q 67 478 67 254 q 82 799 67 701 q 144 931 97 896 q 297 967 190 967 q 401 956 364 967 l 451 956 q 494 963 481 956 q 510 986 507 971 q 514 1033 514 1001 l 514 1090 l 564 1090 m 297 47 q 408 71 376 47 q 453 181 440 94 q 465 478 465 267 q 453 775 465 689 q 408 885 440 861 q 297 908 376 908 q 185 885 217 908 q 141 775 153 861 q 129 478 129 689 q 141 181 129 267 q 185 71 153 94 q 297 47 217 47 m 458 1233 q 444 1126 458 1156 q 389 1097 431 1097 q 346 1106 368 1097 q 292 1132 324 1115 q 246 1157 265 1149 q 208 1165 226 1165 q 185 1147 190 1165 q 179 1082 179 1129 l 136 1082 q 150 1189 136 1160 q 206 1218 164 1218 q 252 1208 229 1218 q 307 1181 275 1199 q 353 1158 335 1165 q 386 1150 371 1150 q 410 1168 404 1150 q 415 1233 415 1186 l 458 1233 z "},"Ő":{"ha":594,"x_min":67,"x_max":528,"o":"m 297 -11 q 144 24 190 -11 q 82 157 97 60 q 67 478 67 254 q 82 799 67 701 q 144 931 97 896 q 297 967 190 967 q 451 931 404 967 q 513 799 497 896 q 528 478 528 701 q 513 157 528 254 q 451 24 497 60 q 297 -11 404 -11 m 297 47 q 408 71 376 47 q 453 181 440 94 q 465 478 465 267 q 453 775 465 689 q 408 885 440 861 q 297 908 376 908 q 185 885 217 908 q 141 775 153 861 q 129 478 129 689 q 141 181 129 267 q 185 71 153 94 q 297 47 217 47 m 211 1050 l 211 1057 l 254 1215 l 317 1215 l 317 1208 l 251 1050 l 211 1050 m 354 1050 l 354 1057 l 397 1215 l 460 1215 l 460 1208 l 393 1050 l 354 1050 z "},"Ȏ":{"ha":594,"x_min":67,"x_max":528,"o":"m 297 -11 q 144 24 190 -11 q 82 157 97 60 q 67 478 67 254 q 82 799 67 701 q 144 931 97 896 q 297 967 190 967 q 451 931 404 967 q 513 799 497 896 q 528 478 528 701 q 513 157 528 254 q 451 24 497 60 q 297 -11 404 -11 m 297 47 q 408 71 376 47 q 453 181 440 94 q 465 478 465 267 q 453 775 465 689 q 408 885 440 861 q 297 908 376 908 q 185 885 217 908 q 141 775 153 861 q 129 478 129 689 q 141 181 129 267 q 185 71 153 94 q 297 47 217 47 m 165 1047 q 172 1156 165 1117 q 208 1218 179 1194 q 297 1242 236 1242 q 386 1218 358 1242 q 421 1156 414 1194 q 428 1047 428 1118 l 376 1047 q 372 1136 376 1107 q 351 1181 368 1165 q 297 1197 335 1197 q 242 1181 260 1197 q 221 1136 225 1165 q 217 1047 217 1107 l 165 1047 z "},"Ō":{"ha":594,"x_min":67,"x_max":528,"o":"m 297 -11 q 144 24 190 -11 q 82 157 97 60 q 67 478 67 254 q 82 799 67 701 q 144 931 97 896 q 297 967 190 967 q 451 931 404 967 q 513 799 497 896 q 528 478 528 701 q 513 157 528 254 q 451 24 497 60 q 297 -11 404 -11 m 297 47 q 408 71 376 47 q 453 181 440 94 q 465 478 465 267 q 453 775 465 689 q 408 885 440 861 q 297 908 376 908 q 185 885 217 908 q 141 775 153 861 q 129 478 129 689 q 141 181 129 267 q 185 71 153 94 q 297 47 217 47 m 182 1174 l 182 1233 l 413 1233 l 413 1174 l 182 1174 z "},"Ǫ":{"ha":594,"x_min":67,"x_max":528,"o":"m 399 -272 q 317 -244 343 -272 q 290 -174 290 -217 q 310 -90 290 -133 q 364 -7 329 -46 q 297 -11 335 -11 q 144 24 190 -11 q 82 157 97 60 q 67 478 67 254 q 82 799 67 701 q 144 931 97 896 q 297 967 190 967 q 451 931 404 967 q 513 799 497 896 q 528 478 528 701 q 522 238 528 325 q 498 98 515 150 q 446 21 481 46 q 377 -60 408 -6 q 346 -161 346 -115 q 410 -224 346 -224 l 432 -222 l 432 -271 q 399 -272 419 -272 m 297 47 q 408 71 376 47 q 453 181 440 94 q 465 478 465 267 q 453 775 465 689 q 408 885 440 861 q 297 908 376 908 q 185 885 217 908 q 141 775 153 861 q 129 478 129 689 q 141 181 129 267 q 185 71 153 94 q 297 47 217 47 z "},"Ø":{"ha":594,"x_min":67,"x_max":528,"o":"m 479 899 q 518 759 508 853 q 528 478 528 665 q 513 157 528 254 q 451 24 497 60 q 297 -11 404 -11 q 215 -6 249 -11 q 158 14 182 0 l 125 -76 l 67 -76 l 115 57 q 76 197 86 103 q 67 478 67 290 q 82 799 67 701 q 144 931 97 896 q 297 967 190 967 q 379 961 346 967 q 436 942 413 956 l 469 1032 l 528 1032 l 479 899 m 129 478 q 132 255 129 329 q 144 138 135 181 l 417 886 q 374 904 400 900 q 297 908 347 908 q 185 885 217 908 q 141 775 153 861 q 129 478 129 689 m 465 478 q 463 701 465 626 q 450 818 460 775 l 178 69 q 221 51 194 56 q 297 47 247 47 q 408 71 376 47 q 453 181 440 94 q 465 478 465 267 z "},"Ǿ":{"ha":594,"x_min":67,"x_max":528,"o":"m 479 899 q 518 759 508 853 q 528 478 528 665 q 513 157 528 254 q 451 24 497 60 q 297 -11 404 -11 q 215 -6 249 -11 q 158 14 182 0 l 125 -76 l 67 -76 l 115 57 q 76 197 86 103 q 67 478 67 290 q 82 799 67 701 q 144 931 97 896 q 297 967 190 967 q 379 961 346 967 q 436 942 413 956 l 469 1032 l 528 1032 l 479 899 m 129 478 q 132 255 129 329 q 144 138 135 181 l 417 886 q 374 904 400 900 q 297 908 347 908 q 185 885 217 908 q 141 775 153 861 q 129 478 129 689 m 465 478 q 463 701 465 626 q 450 818 460 775 l 178 69 q 221 51 194 56 q 297 47 247 47 q 408 71 376 47 q 453 181 440 94 q 465 478 465 267 m 269 1040 l 269 1047 l 315 1233 l 382 1233 l 382 1226 l 311 1040 l 269 1040 z "},"Õ":{"ha":594,"x_min":67,"x_max":528,"o":"m 297 -11 q 144 24 190 -11 q 82 157 97 60 q 67 478 67 254 q 82 799 67 701 q 144 931 97 896 q 297 967 190 967 q 451 931 404 967 q 513 799 497 896 q 528 478 528 701 q 513 157 528 254 q 451 24 497 60 q 297 -11 404 -11 m 297 47 q 408 71 376 47 q 453 181 440 94 q 465 478 465 267 q 453 775 465 689 q 408 885 440 861 q 297 908 376 908 q 185 885 217 908 q 141 775 153 861 q 129 478 129 689 q 141 181 129 267 q 185 71 153 94 q 297 47 217 47 m 458 1193 q 444 1086 458 1115 q 389 1057 431 1057 q 346 1066 368 1057 q 292 1092 324 1075 q 246 1117 265 1108 q 208 1125 226 1125 q 185 1107 190 1125 q 179 1042 179 1089 l 136 1042 q 150 1149 136 1119 q 206 1178 164 1178 q 252 1168 229 1178 q 307 1140 275 1158 q 353 1117 335 1125 q 386 1110 371 1110 q 410 1128 404 1110 q 415 1193 415 1146 l 458 1193 z "},"Œ":{"ha":843,"x_min":67,"x_max":801,"o":"m 297 0 q 144 35 190 0 q 82 165 97 69 q 67 478 67 260 q 82 791 67 696 q 144 921 97 886 q 297 956 190 956 l 801 956 l 801 897 l 532 897 q 458 903 494 897 q 513 778 499 867 q 528 513 526 689 l 764 513 l 764 454 l 528 454 q 513 180 526 271 q 458 53 499 89 q 532 58 492 58 l 801 58 l 801 0 l 297 0 m 297 58 q 408 81 376 58 q 453 188 440 104 q 465 478 465 272 q 453 767 465 683 q 408 874 440 851 q 297 897 376 897 q 185 874 218 897 q 141 767 153 851 q 129 478 129 683 q 141 188 129 272 q 185 81 153 104 q 297 58 218 58 z "},"P":{"ha":525,"x_min":88,"x_max":492,"o":"m 88 956 l 300 956 q 428 918 386 956 q 481 821 469 881 q 492 665 492 761 q 480 510 492 571 q 426 412 468 450 q 300 374 385 374 l 150 374 l 150 0 l 88 0 l 88 956 m 296 432 q 384 458 356 432 q 421 533 413 485 q 429 665 429 581 q 421 797 429 750 q 384 871 413 844 q 296 897 356 897 l 150 897 l 150 432 l 296 432 z "},"Þ":{"ha":525,"x_min":88,"x_max":492,"o":"m 88 956 l 150 956 l 150 778 l 300 778 q 428 740 386 778 q 481 642 469 701 q 492 486 492 583 q 480 333 492 393 q 426 234 468 272 q 300 196 385 196 l 150 196 l 150 0 l 88 0 l 88 956 m 296 253 q 384 279 356 253 q 421 353 413 306 q 429 486 429 401 q 421 619 429 572 q 384 693 413 667 q 296 719 356 719 l 150 719 l 150 253 l 296 253 z "},"Q":{"ha":594,"x_min":67,"x_max":543,"o":"m 543 -157 l 543 -160 l 479 -160 l 403 0 q 297 -11 364 -11 q 144 24 190 -11 q 82 157 97 60 q 67 478 67 254 q 82 799 67 701 q 144 931 97 896 q 297 967 190 967 q 451 931 404 967 q 513 799 497 896 q 528 478 528 701 q 522 245 528 331 q 501 107 517 160 q 454 28 486 54 l 543 -157 m 297 47 q 376 53 356 47 l 257 303 l 322 303 l 426 86 q 458 206 450 121 q 465 478 465 292 q 453 775 465 689 q 408 885 440 861 q 297 908 376 908 q 185 885 217 908 q 141 775 153 861 q 129 478 129 689 q 141 181 129 267 q 185 71 153 94 q 297 47 217 47 z "},"R":{"ha":565,"x_min":88,"x_max":513,"o":"m 447 0 l 336 403 q 304 401 325 401 l 150 401 l 150 0 l 88 0 l 88 956 l 307 956 q 435 919 393 956 q 488 827 476 883 q 499 679 499 771 q 480 506 499 569 q 396 417 461 442 l 513 0 l 447 0 m 303 458 q 391 483 363 458 q 428 553 419 508 q 436 678 436 599 q 428 803 436 758 q 391 872 419 847 q 303 897 363 897 l 150 897 l 150 458 l 303 458 z "},"Ŕ":{"ha":565,"x_min":88,"x_max":513,"o":"m 447 0 l 336 403 q 304 401 325 401 l 150 401 l 150 0 l 88 0 l 88 956 l 307 956 q 435 919 393 956 q 488 827 476 883 q 499 679 499 771 q 480 506 499 569 q 396 417 461 442 l 513 0 l 447 0 m 303 458 q 391 483 363 458 q 428 553 419 508 q 436 678 436 599 q 428 803 436 758 q 391 872 419 847 q 303 897 363 897 l 150 897 l 150 458 l 303 458 m 260 1040 l 260 1047 l 306 1233 l 372 1233 l 372 1226 l 301 1040 l 260 1040 z "},"Ř":{"ha":565,"x_min":88,"x_max":513,"o":"m 447 0 l 336 403 q 304 401 325 401 l 150 401 l 150 0 l 88 0 l 88 956 l 307 956 q 435 919 393 956 q 488 827 476 883 q 499 679 499 771 q 480 506 499 569 q 396 417 461 442 l 513 0 l 447 0 m 303 458 q 391 483 363 458 q 428 553 419 508 q 436 678 436 599 q 428 803 436 758 q 391 872 419 847 q 303 897 363 897 l 150 897 l 150 458 l 303 458 m 246 1043 l 153 1226 l 153 1233 l 197 1233 l 283 1089 l 368 1233 l 413 1233 l 413 1226 l 319 1043 l 246 1043 z "},"Ŗ":{"ha":565,"x_min":88,"x_max":513,"o":"m 447 0 l 336 403 q 304 401 325 401 l 150 401 l 150 0 l 88 0 l 88 956 l 307 956 q 435 919 393 956 q 488 827 476 883 q 499 679 499 771 q 480 506 499 569 q 396 417 461 442 l 513 0 l 447 0 m 303 458 q 391 483 363 458 q 428 553 419 508 q 436 678 436 599 q 428 803 436 758 q 391 872 419 847 q 303 897 363 897 l 150 897 l 150 458 l 303 458 m 231 -289 q 273 -282 260 -289 q 290 -258 286 -275 q 293 -204 293 -242 l 293 -181 l 261 -181 l 261 -86 l 335 -86 l 335 -189 q 326 -272 335 -244 q 297 -312 318 -300 q 231 -324 275 -324 l 231 -289 z "},"Ȑ":{"ha":565,"x_min":88,"x_max":513,"o":"m 447 0 l 336 403 q 304 401 325 401 l 150 401 l 150 0 l 88 0 l 88 956 l 307 956 q 435 919 393 956 q 488 827 476 883 q 499 679 499 771 q 480 506 499 569 q 396 417 461 442 l 513 0 l 447 0 m 303 458 q 391 483 363 458 q 428 553 419 508 q 436 678 436 599 q 428 803 436 758 q 391 872 419 847 q 303 897 363 897 l 150 897 l 150 458 l 303 458 m 232 1050 l 193 1050 l 126 1208 l 126 1215 l 189 1215 l 232 1057 l 232 1050 m 375 1050 l 335 1050 l 269 1208 l 269 1215 l 332 1215 l 375 1057 l 375 1050 z "},"Ṛ":{"ha":565,"x_min":88,"x_max":513,"o":"m 447 0 l 336 403 q 304 401 325 401 l 150 401 l 150 0 l 88 0 l 88 956 l 307 956 q 435 919 393 956 q 488 827 476 883 q 499 679 499 771 q 480 506 499 569 q 396 417 461 442 l 513 0 l 447 0 m 303 458 q 391 483 363 458 q 428 553 419 508 q 436 678 436 599 q 428 803 436 758 q 391 872 419 847 q 303 897 363 897 l 150 897 l 150 458 l 303 458 m 247 -185 l 247 -86 l 319 -86 l 319 -185 l 247 -185 z "},"Ȓ":{"ha":565,"x_min":88,"x_max":513,"o":"m 447 0 l 336 403 q 304 401 325 401 l 150 401 l 150 0 l 88 0 l 88 956 l 307 956 q 435 919 393 956 q 488 827 476 883 q 499 679 499 771 q 480 506 499 569 q 396 417 461 442 l 513 0 l 447 0 m 303 458 q 391 483 363 458 q 428 553 419 508 q 436 678 436 599 q 428 803 436 758 q 391 872 419 847 q 303 897 363 897 l 150 897 l 150 458 l 303 458 m 151 1047 q 158 1156 151 1117 q 194 1218 165 1194 q 283 1242 222 1242 q 372 1218 344 1242 q 407 1156 400 1194 q 414 1047 414 1118 l 363 1047 q 358 1136 363 1107 q 338 1181 354 1165 q 283 1197 321 1197 q 228 1181 246 1197 q 207 1136 211 1165 q 203 1047 203 1107 l 151 1047 z "},"S":{"ha":497,"x_min":47,"x_max":450,"o":"m 246 -11 q 151 -6 201 -11 q 64 7 100 -1 l 64 64 q 147 52 100 57 q 226 47 194 47 q 305 56 275 47 q 356 85 335 64 q 381 146 375 106 q 388 256 388 186 q 383 383 388 349 q 358 431 378 417 q 286 456 339 446 l 143 483 q 78 519 99 492 q 52 590 57 547 q 47 713 47 632 q 94 906 47 844 q 257 967 140 967 q 353 961 307 967 q 421 949 399 956 l 421 893 q 349 904 392 900 q 271 908 307 908 q 183 896 215 908 q 135 857 151 883 q 114 795 119 831 q 108 710 108 760 q 114 603 108 636 q 135 558 119 571 q 185 539 150 546 l 314 513 q 396 483 367 503 q 440 419 425 464 q 449 369 447 401 q 450 265 450 338 q 436 109 450 167 q 378 20 422 51 q 246 -11 335 -11 z "},"Ś":{"ha":497,"x_min":47,"x_max":450,"o":"m 246 -11 q 151 -6 201 -11 q 64 7 100 -1 l 64 64 q 147 52 100 57 q 226 47 194 47 q 305 56 275 47 q 356 85 335 64 q 381 146 375 106 q 388 256 388 186 q 383 383 388 349 q 358 431 378 417 q 286 456 339 446 l 143 483 q 78 519 99 492 q 52 590 57 547 q 47 713 47 632 q 94 906 47 844 q 257 967 140 967 q 353 961 307 967 q 421 949 399 956 l 421 893 q 349 904 392 900 q 271 908 307 908 q 183 896 215 908 q 135 857 151 883 q 114 795 119 831 q 108 710 108 760 q 114 603 108 636 q 135 558 119 571 q 185 539 150 546 l 314 513 q 396 483 367 503 q 440 419 425 464 q 449 369 447 401 q 450 265 450 338 q 436 109 450 167 q 378 20 422 51 q 246 -11 335 -11 m 225 1040 l 225 1047 l 271 1233 l 338 1233 l 338 1226 l 267 1040 l 225 1040 z "},"Ꞌ":{"ha":119,"x_min":28,"x_max":92,"o":"m 28 406 l 28 956 l 92 956 l 92 710 l 68 406 l 28 406 z "},"Š":{"ha":497,"x_min":47,"x_max":450,"o":"m 246 -11 q 151 -6 201 -11 q 64 7 100 -1 l 64 64 q 147 52 100 57 q 226 47 194 47 q 305 56 275 47 q 356 85 335 64 q 381 146 375 106 q 388 256 388 186 q 383 383 388 349 q 358 431 378 417 q 286 456 339 446 l 143 483 q 78 519 99 492 q 52 590 57 547 q 47 713 47 632 q 94 906 47 844 q 257 967 140 967 q 353 961 307 967 q 421 949 399 956 l 421 893 q 349 904 392 900 q 271 908 307 908 q 183 896 215 908 q 135 857 151 883 q 114 795 119 831 q 108 710 108 760 q 114 603 108 636 q 135 558 119 571 q 185 539 150 546 l 314 513 q 396 483 367 503 q 440 419 425 464 q 449 369 447 401 q 450 265 450 338 q 436 109 450 167 q 378 20 422 51 q 246 -11 335 -11 m 214 1042 l 121 1225 l 121 1232 l 165 1232 l 251 1088 l 336 1232 l 381 1232 l 381 1225 l 288 1042 l 214 1042 z "},"Ş":{"ha":497,"x_min":47,"x_max":450,"o":"m 450 265 q 438 115 450 171 q 385 26 425 58 q 267 -11 346 -7 l 210 -264 l 146 -264 l 146 -257 l 221 -11 q 64 7 131 -8 l 64 64 q 147 52 100 57 q 226 47 194 47 q 305 56 275 47 q 356 85 335 64 q 381 146 375 106 q 388 256 388 186 q 383 383 388 349 q 358 431 378 417 q 286 456 339 446 l 143 483 q 78 519 99 492 q 52 590 57 547 q 47 713 47 632 q 94 906 47 844 q 257 967 140 967 q 353 961 307 967 q 421 949 399 956 l 421 893 q 349 904 392 900 q 271 908 307 908 q 183 896 215 908 q 135 857 151 883 q 114 795 119 831 q 108 710 108 760 q 114 603 108 636 q 135 558 119 571 q 185 539 150 546 l 314 513 q 396 483 367 503 q 440 419 425 464 q 449 369 447 401 q 450 265 450 338 z "},"Ŝ":{"ha":497,"x_min":47,"x_max":450,"o":"m 246 -11 q 151 -6 201 -11 q 64 7 100 -1 l 64 64 q 147 52 100 57 q 226 47 194 47 q 305 56 275 47 q 356 85 335 64 q 381 146 375 106 q 388 256 388 186 q 383 383 388 349 q 358 431 378 417 q 286 456 339 446 l 143 483 q 78 519 99 492 q 52 590 57 547 q 47 713 47 632 q 94 906 47 844 q 257 967 140 967 q 353 961 307 967 q 421 949 399 956 l 421 893 q 349 904 392 900 q 271 908 307 908 q 183 896 215 908 q 135 857 151 883 q 114 795 119 831 q 108 710 108 760 q 114 603 108 636 q 135 558 119 571 q 185 539 150 546 l 314 513 q 396 483 367 503 q 440 419 425 464 q 449 369 447 401 q 450 265 450 338 q 436 109 450 167 q 378 20 422 51 q 246 -11 335 -11 m 118 1043 l 118 1050 l 211 1233 l 285 1233 l 378 1050 l 378 1043 l 333 1043 l 249 1188 l 163 1043 l 118 1043 z "},"Ș":{"ha":497,"x_min":47,"x_max":450,"o":"m 246 -11 q 151 -6 201 -11 q 64 7 100 -1 l 64 64 q 147 52 100 57 q 226 47 194 47 q 305 56 275 47 q 356 85 335 64 q 381 146 375 106 q 388 256 388 186 q 383 383 388 349 q 358 431 378 417 q 286 456 339 446 l 143 483 q 78 519 99 492 q 52 590 57 547 q 47 713 47 632 q 94 906 47 844 q 257 967 140 967 q 353 961 307 967 q 421 949 399 956 l 421 893 q 349 904 392 900 q 271 908 307 908 q 183 896 215 908 q 135 857 151 883 q 114 795 119 831 q 108 710 108 760 q 114 603 108 636 q 135 558 119 571 q 185 539 150 546 l 314 513 q 396 483 367 503 q 440 419 425 464 q 449 369 447 401 q 450 265 450 338 q 436 109 450 167 q 378 20 422 51 q 246 -11 335 -11 m 196 -289 q 238 -282 225 -289 q 255 -258 251 -275 q 258 -204 258 -242 l 258 -181 l 226 -181 l 226 -86 l 300 -86 l 300 -189 q 292 -272 300 -244 q 262 -312 283 -300 q 196 -324 240 -324 l 196 -289 z "},"Ṣ":{"ha":497,"x_min":47,"x_max":450,"o":"m 246 -11 q 151 -6 201 -11 q 64 7 100 -1 l 64 64 q 147 52 100 57 q 226 47 194 47 q 305 56 275 47 q 356 85 335 64 q 381 146 375 106 q 388 256 388 186 q 383 383 388 349 q 358 431 378 417 q 286 456 339 446 l 143 483 q 78 519 99 492 q 52 590 57 547 q 47 713 47 632 q 94 906 47 844 q 257 967 140 967 q 353 961 307 967 q 421 949 399 956 l 421 893 q 349 904 392 900 q 271 908 307 908 q 183 896 215 908 q 135 857 151 883 q 114 795 119 831 q 108 710 108 760 q 114 603 108 636 q 135 558 119 571 q 185 539 150 546 l 314 513 q 396 483 367 503 q 440 419 425 464 q 449 369 447 401 q 450 265 450 338 q 436 109 450 167 q 378 20 422 51 q 246 -11 335 -11 m 213 -185 l 213 -86 l 285 -86 l 285 -185 l 213 -185 z "},"ẞ":{"ha":654,"x_min":81,"x_max":594,"o":"m 415 511 q 552 449 510 511 q 594 256 594 386 q 578 106 594 163 q 515 19 561 49 q 383 -11 469 -11 q 309 -6 350 -11 q 235 8 268 0 l 235 63 q 378 47 314 47 q 465 63 432 47 q 516 122 499 78 q 533 249 533 165 q 506 408 533 360 q 415 456 479 456 l 315 456 l 315 503 l 496 876 q 304 908 415 908 q 197 884 229 908 q 154 786 165 860 q 143 542 143 713 l 143 0 l 81 0 l 81 542 q 96 810 81 724 q 156 932 111 897 q 296 967 200 967 q 442 952 374 967 q 557 915 511 938 l 557 867 l 383 511 l 415 511 z "},"Ə":{"ha":594,"x_min":67,"x_max":528,"o":"m 285 967 q 442 932 393 967 q 510 797 492 897 q 528 478 528 697 q 513 157 528 254 q 451 24 497 60 q 297 -11 404 -11 q 144 24 190 -11 q 82 157 97 60 q 67 478 67 254 l 67 513 l 465 513 q 451 777 464 699 q 398 882 438 856 q 264 908 358 908 q 129 894 199 908 l 129 949 q 285 967 199 967 m 297 47 q 408 69 376 47 q 453 174 440 92 q 467 454 465 256 l 128 454 q 142 174 129 256 q 186 69 154 92 q 297 47 218 47 z "},"T":{"ha":464,"x_min":19,"x_max":444,"o":"m 201 0 l 201 897 l 19 897 l 19 956 l 444 956 l 444 897 l 263 897 l 263 0 l 201 0 z "},"Ŧ":{"ha":464,"x_min":19,"x_max":444,"o":"m 444 897 l 263 897 l 263 508 l 401 508 l 401 454 l 263 454 l 263 0 l 201 0 l 201 454 l 63 454 l 63 508 l 201 508 l 201 897 l 19 897 l 19 956 l 444 956 l 444 897 z "},"Ť":{"ha":464,"x_min":19,"x_max":444,"o":"m 201 0 l 201 897 l 19 897 l 19 956 l 444 956 l 444 897 l 263 897 l 263 0 l 201 0 m 194 1043 l 101 1226 l 101 1233 l 146 1233 l 232 1089 l 317 1233 l 361 1233 l 361 1226 l 268 1043 l 194 1043 z "},"Ţ":{"ha":464,"x_min":19,"x_max":444,"o":"m 19 956 l 444 956 l 444 897 l 263 897 l 263 0 l 251 0 l 193 -264 l 129 -264 l 129 -257 l 208 0 l 201 0 l 201 897 l 19 897 l 19 956 z "},"Ț":{"ha":464,"x_min":19,"x_max":444,"o":"m 201 0 l 201 897 l 19 897 l 19 956 l 444 956 l 444 897 l 263 897 l 263 0 l 201 0 m 179 -289 q 222 -282 208 -289 q 238 -258 235 -275 q 242 -204 242 -242 l 242 -181 l 210 -181 l 210 -86 l 283 -86 l 283 -189 q 275 -272 283 -244 q 245 -312 267 -300 q 179 -324 224 -324 l 179 -289 z "},"Ṭ":{"ha":464,"x_min":19,"x_max":444,"o":"m 201 0 l 201 897 l 19 897 l 19 956 l 444 956 l 444 897 l 263 897 l 263 0 l 201 0 m 196 -185 l 196 -86 l 268 -86 l 268 -185 l 196 -185 z "},"U":{"ha":592,"x_min":81,"x_max":511,"o":"m 511 956 l 511 410 q 498 143 511 226 q 440 24 485 60 q 296 -11 396 -11 q 151 24 196 -11 q 94 143 107 60 q 81 410 81 226 l 81 956 l 143 956 l 143 365 q 151 160 143 222 q 191 73 160 99 q 296 47 222 47 q 399 73 368 47 q 440 160 431 99 q 449 365 449 222 l 449 956 l 511 956 z "},"Ú":{"ha":592,"x_min":81,"x_max":511,"o":"m 511 956 l 511 410 q 498 143 511 226 q 440 24 485 60 q 296 -11 396 -11 q 151 24 196 -11 q 94 143 107 60 q 81 410 81 226 l 81 956 l 143 956 l 143 365 q 151 160 143 222 q 191 73 160 99 q 296 47 222 47 q 399 73 368 47 q 440 160 431 99 q 449 365 449 222 l 449 956 l 511 956 m 275 1042 l 275 1049 l 321 1235 l 388 1235 l 388 1228 l 317 1042 l 275 1042 z "},"Ŭ":{"ha":592,"x_min":81,"x_max":511,"o":"m 511 956 l 511 410 q 498 143 511 226 q 440 24 485 60 q 296 -11 396 -11 q 151 24 196 -11 q 94 143 107 60 q 81 410 81 226 l 81 956 l 143 956 l 143 365 q 151 160 143 222 q 191 73 160 99 q 296 47 222 47 q 399 73 368 47 q 440 160 431 99 q 449 365 449 222 l 449 956 l 511 956 m 426 1233 q 419 1125 426 1164 q 384 1063 413 1086 q 294 1039 356 1039 q 206 1063 233 1039 q 171 1124 178 1086 q 164 1233 164 1163 l 215 1233 q 219 1144 215 1174 q 240 1099 224 1115 q 294 1083 257 1083 q 349 1099 332 1083 q 371 1144 367 1115 q 375 1233 375 1174 l 426 1233 z "},"Ǔ":{"ha":592,"x_min":81,"x_max":511,"o":"m 511 956 l 511 410 q 498 143 511 226 q 440 24 485 60 q 296 -11 396 -11 q 151 24 196 -11 q 94 143 107 60 q 81 410 81 226 l 81 956 l 143 956 l 143 365 q 151 160 143 222 q 191 73 160 99 q 296 47 222 47 q 399 73 368 47 q 440 160 431 99 q 449 365 449 222 l 449 956 l 511 956 m 258 1043 l 165 1226 l 165 1233 l 210 1233 l 296 1089 l 381 1233 l 425 1233 l 425 1226 l 332 1043 l 258 1043 z "},"Û":{"ha":592,"x_min":81,"x_max":511,"o":"m 511 956 l 511 410 q 498 143 511 226 q 440 24 485 60 q 296 -11 396 -11 q 151 24 196 -11 q 94 143 107 60 q 81 410 81 226 l 81 956 l 143 956 l 143 365 q 151 160 143 222 q 191 73 160 99 q 296 47 222 47 q 399 73 368 47 q 440 160 431 99 q 449 365 449 222 l 449 956 l 511 956 m 165 1042 l 165 1049 l 258 1232 l 332 1232 l 425 1049 l 425 1042 l 381 1042 l 296 1186 l 210 1042 l 165 1042 z "},"Ȕ":{"ha":592,"x_min":81,"x_max":511,"o":"m 511 956 l 511 410 q 498 143 511 226 q 440 24 485 60 q 296 -11 396 -11 q 151 24 196 -11 q 94 143 107 60 q 81 410 81 226 l 81 956 l 143 956 l 143 365 q 151 160 143 222 q 191 73 160 99 q 296 47 222 47 q 399 73 368 47 q 440 160 431 99 q 449 365 449 222 l 449 956 l 511 956 m 244 1050 l 206 1050 l 139 1208 l 139 1215 l 201 1215 l 244 1057 l 244 1050 m 388 1050 l 347 1050 l 282 1208 l 282 1215 l 344 1215 l 388 1057 l 388 1050 z "},"Ü":{"ha":592,"x_min":81,"x_max":511,"o":"m 511 956 l 511 410 q 498 143 511 226 q 440 24 485 60 q 296 -11 396 -11 q 151 24 196 -11 q 94 143 107 60 q 81 410 81 226 l 81 956 l 143 956 l 143 365 q 151 160 143 222 q 191 73 160 99 q 296 47 222 47 q 399 73 368 47 q 440 160 431 99 q 449 365 449 222 l 449 956 l 511 956 m 144 1069 l 144 1160 l 210 1160 l 210 1069 l 144 1069 m 381 1069 l 381 1160 l 446 1160 l 446 1069 l 381 1069 z "},"Ǘ":{"ha":592,"x_min":81,"x_max":511,"o":"m 511 956 l 511 410 q 498 143 511 226 q 440 24 485 60 q 296 -11 396 -11 q 151 24 196 -11 q 94 143 107 60 q 81 410 81 226 l 81 956 l 143 956 l 143 365 q 151 160 143 222 q 191 73 160 99 q 296 47 222 47 q 399 73 368 47 q 440 160 431 99 q 449 365 449 222 l 449 956 l 511 956 m 144 1125 l 144 1215 l 210 1215 l 210 1125 l 144 1125 m 381 1125 l 381 1215 l 446 1215 l 446 1125 l 381 1125 m 275 1217 l 275 1224 l 321 1410 l 388 1410 l 388 1403 l 317 1217 l 275 1217 z "},"Ǚ":{"ha":592,"x_min":81,"x_max":511,"o":"m 511 956 l 511 410 q 498 143 511 226 q 440 24 485 60 q 296 -11 396 -11 q 151 24 196 -11 q 94 143 107 60 q 81 410 81 226 l 81 956 l 143 956 l 143 365 q 151 160 143 222 q 191 73 160 99 q 296 47 222 47 q 399 73 368 47 q 440 160 431 99 q 449 365 449 222 l 449 956 l 511 956 m 144 1125 l 144 1215 l 210 1215 l 210 1125 l 144 1125 m 381 1125 l 381 1215 l 446 1215 l 446 1125 l 381 1125 m 261 1219 l 168 1403 l 168 1410 l 213 1410 l 299 1265 l 383 1410 l 428 1410 l 428 1403 l 335 1219 l 261 1219 z "},"Ǜ":{"ha":592,"x_min":81,"x_max":511,"o":"m 511 956 l 511 410 q 498 143 511 226 q 440 24 485 60 q 296 -11 396 -11 q 151 24 196 -11 q 94 143 107 60 q 81 410 81 226 l 81 956 l 143 956 l 143 365 q 151 160 143 222 q 191 73 160 99 q 296 47 222 47 q 399 73 368 47 q 440 160 431 99 q 449 365 449 222 l 449 956 l 511 956 m 144 1125 l 144 1215 l 210 1215 l 210 1125 l 144 1125 m 381 1125 l 381 1215 l 446 1215 l 446 1125 l 381 1125 m 282 1217 l 211 1403 l 211 1410 l 276 1410 l 324 1224 l 324 1217 l 282 1217 z "},"Ǖ":{"ha":592,"x_min":81,"x_max":511,"o":"m 183 1347 l 183 1406 l 414 1406 l 414 1347 l 183 1347 m 144 1125 l 144 1215 l 210 1215 l 210 1125 l 144 1125 m 381 1125 l 381 1215 l 446 1215 l 446 1125 l 381 1125 m 511 956 l 511 410 q 498 143 511 226 q 440 24 485 60 q 296 -11 396 -11 q 151 24 196 -11 q 94 143 107 60 q 81 410 81 226 l 81 956 l 143 956 l 143 365 q 151 160 143 222 q 191 73 160 99 q 296 47 222 47 q 399 73 368 47 q 440 160 431 99 q 449 365 449 222 l 449 956 l 511 956 z "},"Ụ":{"ha":592,"x_min":81,"x_max":511,"o":"m 511 956 l 511 410 q 498 143 511 226 q 440 24 485 60 q 296 -11 396 -11 q 151 24 196 -11 q 94 143 107 60 q 81 410 81 226 l 81 956 l 143 956 l 143 365 q 151 160 143 222 q 191 73 160 99 q 296 47 222 47 q 399 73 368 47 q 440 160 431 99 q 449 365 449 222 l 449 956 l 511 956 m 260 -185 l 260 -86 l 332 -86 l 332 -185 l 260 -185 z "},"Ù":{"ha":592,"x_min":81,"x_max":511,"o":"m 511 956 l 511 410 q 498 143 511 226 q 440 24 485 60 q 296 -11 396 -11 q 151 24 196 -11 q 94 143 107 60 q 81 410 81 226 l 81 956 l 143 956 l 143 365 q 151 160 143 222 q 191 73 160 99 q 296 47 222 47 q 399 73 368 47 q 440 160 431 99 q 449 365 449 222 l 449 956 l 511 956 m 286 1042 l 215 1228 l 215 1235 l 281 1235 l 328 1049 l 328 1042 l 286 1042 z "},"Ủ":{"ha":592,"x_min":81,"x_max":511,"o":"m 511 956 l 511 410 q 498 143 511 226 q 440 24 485 60 q 296 -11 396 -11 q 151 24 196 -11 q 94 143 107 60 q 81 410 81 226 l 81 956 l 143 956 l 143 365 q 151 160 143 222 q 191 73 160 99 q 296 47 222 47 q 399 73 368 47 q 440 160 431 99 q 449 365 449 222 l 449 956 l 511 956 m 244 1043 q 256 1082 244 1071 q 293 1101 267 1093 l 308 1106 q 351 1127 340 1117 q 363 1165 363 1138 q 358 1197 363 1188 q 337 1211 354 1207 q 281 1215 319 1215 q 178 1210 261 1215 l 178 1251 q 289 1261 249 1261 q 388 1241 363 1261 q 413 1174 413 1221 q 403 1114 413 1133 q 358 1082 394 1094 l 346 1078 q 299 1057 307 1064 q 290 1031 290 1050 l 244 1031 l 244 1043 z "},"Ư":{"ha":592,"x_min":81,"x_max":622,"o":"m 622 1090 l 622 1044 q 613 963 622 990 q 581 924 604 935 q 511 913 558 913 l 511 410 q 498 143 511 226 q 440 24 485 60 q 296 -11 396 -11 q 151 24 196 -11 q 94 143 107 60 q 81 410 81 226 l 81 956 l 143 956 l 143 365 q 151 160 143 222 q 191 73 160 99 q 296 47 222 47 q 399 73 368 47 q 440 160 431 99 q 449 365 449 222 l 449 956 l 510 956 q 552 963 539 956 q 569 986 565 971 q 572 1033 572 1001 l 572 1090 l 622 1090 z "},"Ứ":{"ha":592,"x_min":81,"x_max":622,"o":"m 622 1090 l 622 1044 q 613 963 622 990 q 581 924 604 935 q 511 913 558 913 l 511 410 q 498 143 511 226 q 440 24 485 60 q 296 -11 396 -11 q 151 24 196 -11 q 94 143 107 60 q 81 410 81 226 l 81 956 l 143 956 l 143 365 q 151 160 143 222 q 191 73 160 99 q 296 47 222 47 q 399 73 368 47 q 440 160 431 99 q 449 365 449 222 l 449 956 l 510 956 q 552 963 539 956 q 569 986 565 971 q 572 1033 572 1001 l 572 1090 l 622 1090 m 272 1040 l 272 1047 l 318 1233 l 385 1233 l 385 1226 l 314 1040 l 272 1040 z "},"Ự":{"ha":592,"x_min":81,"x_max":622,"o":"m 622 1090 l 622 1044 q 613 963 622 990 q 581 924 604 935 q 511 913 558 913 l 511 410 q 498 143 511 226 q 440 24 485 60 q 296 -11 396 -11 q 151 24 196 -11 q 94 143 107 60 q 81 410 81 226 l 81 956 l 143 956 l 143 365 q 151 160 143 222 q 191 73 160 99 q 296 47 222 47 q 399 73 368 47 q 440 160 431 99 q 449 365 449 222 l 449 956 l 510 956 q 552 963 539 956 q 569 986 565 971 q 572 1033 572 1001 l 572 1090 l 622 1090 m 260 -185 l 260 -86 l 332 -86 l 332 -185 l 260 -185 z "},"Ừ":{"ha":592,"x_min":81,"x_max":622,"o":"m 622 1090 l 622 1044 q 613 963 622 990 q 581 924 604 935 q 511 913 558 913 l 511 410 q 498 143 511 226 q 440 24 485 60 q 296 -11 396 -11 q 151 24 196 -11 q 94 143 107 60 q 81 410 81 226 l 81 956 l 143 956 l 143 365 q 151 160 143 222 q 191 73 160 99 q 296 47 222 47 q 399 73 368 47 q 440 160 431 99 q 449 365 449 222 l 449 956 l 510 956 q 552 963 539 956 q 569 986 565 971 q 572 1033 572 1001 l 572 1090 l 622 1090 m 279 1040 l 208 1226 l 208 1233 l 274 1233 l 321 1047 l 321 1040 l 279 1040 z "},"Ử":{"ha":592,"x_min":81,"x_max":622,"o":"m 622 1090 l 622 1044 q 613 963 622 990 q 581 924 604 935 q 511 913 558 913 l 511 410 q 498 143 511 226 q 440 24 485 60 q 296 -11 396 -11 q 151 24 196 -11 q 94 143 107 60 q 81 410 81 226 l 81 956 l 143 956 l 143 365 q 151 160 143 222 q 191 73 160 99 q 296 47 222 47 q 399 73 368 47 q 440 160 431 99 q 449 365 449 222 l 449 956 l 510 956 q 552 963 539 956 q 569 986 565 971 q 572 1033 572 1001 l 572 1090 l 622 1090 m 244 1043 q 256 1082 244 1071 q 293 1101 267 1093 l 308 1106 q 351 1127 340 1117 q 363 1165 363 1138 q 358 1197 363 1188 q 337 1211 354 1207 q 281 1215 319 1215 q 178 1210 261 1215 l 178 1251 q 289 1261 249 1261 q 388 1241 363 1261 q 413 1174 413 1221 q 403 1114 413 1133 q 358 1082 394 1094 l 346 1078 q 299 1057 307 1064 q 290 1031 290 1050 l 244 1031 l 244 1043 z "},"Ữ":{"ha":592,"x_min":81,"x_max":622,"o":"m 622 1090 l 622 1044 q 613 963 622 990 q 581 924 604 935 q 511 913 558 913 l 511 410 q 498 143 511 226 q 440 24 485 60 q 296 -11 396 -11 q 151 24 196 -11 q 94 143 107 60 q 81 410 81 226 l 81 956 l 143 956 l 143 365 q 151 160 143 222 q 191 73 160 99 q 296 47 222 47 q 399 73 368 47 q 440 160 431 99 q 449 365 449 222 l 449 956 l 510 956 q 552 963 539 956 q 569 986 565 971 q 572 1033 572 1001 l 572 1090 l 622 1090 m 457 1233 q 443 1126 457 1156 q 388 1097 429 1097 q 344 1106 367 1097 q 290 1132 322 1115 q 244 1157 264 1149 q 207 1165 225 1165 q 183 1147 189 1165 q 178 1082 178 1129 l 135 1082 q 149 1189 135 1160 q 204 1218 163 1218 q 251 1208 228 1218 q 306 1181 274 1199 q 351 1158 333 1165 q 385 1150 369 1150 q 408 1168 403 1150 q 414 1233 414 1186 l 457 1233 z "},"Ű":{"ha":592,"x_min":81,"x_max":511,"o":"m 511 956 l 511 410 q 498 143 511 226 q 440 24 485 60 q 296 -11 396 -11 q 151 24 196 -11 q 94 143 107 60 q 81 410 81 226 l 81 956 l 143 956 l 143 365 q 151 160 143 222 q 191 73 160 99 q 296 47 222 47 q 399 73 368 47 q 440 160 431 99 q 449 365 449 222 l 449 956 l 511 956 m 210 1050 l 210 1057 l 253 1215 l 315 1215 l 315 1208 l 250 1050 l 210 1050 m 353 1050 l 353 1057 l 396 1215 l 458 1215 l 458 1208 l 392 1050 l 353 1050 z "},"Ȗ":{"ha":592,"x_min":81,"x_max":511,"o":"m 511 956 l 511 410 q 498 143 511 226 q 440 24 485 60 q 296 -11 396 -11 q 151 24 196 -11 q 94 143 107 60 q 81 410 81 226 l 81 956 l 143 956 l 143 365 q 151 160 143 222 q 191 73 160 99 q 296 47 222 47 q 399 73 368 47 q 440 160 431 99 q 449 365 449 222 l 449 956 l 511 956 m 164 1047 q 171 1156 164 1117 q 206 1218 178 1194 q 296 1242 235 1242 q 385 1218 357 1242 q 419 1156 413 1194 q 426 1047 426 1118 l 375 1047 q 371 1136 375 1107 q 350 1181 367 1165 q 296 1197 333 1197 q 241 1181 258 1197 q 219 1136 224 1165 q 215 1047 215 1107 l 164 1047 z "},"Ū":{"ha":592,"x_min":81,"x_max":511,"o":"m 511 956 l 511 410 q 498 143 511 226 q 440 24 485 60 q 296 -11 396 -11 q 151 24 196 -11 q 94 143 107 60 q 81 410 81 226 l 81 956 l 143 956 l 143 365 q 151 160 143 222 q 191 73 160 99 q 296 47 222 47 q 399 73 368 47 q 440 160 431 99 q 449 365 449 222 l 449 956 l 511 956 m 181 1174 l 181 1233 l 411 1233 l 411 1174 l 181 1174 z "},"Ų":{"ha":592,"x_min":81,"x_max":511,"o":"m 511 956 l 511 410 q 506 210 511 283 q 484 90 500 136 q 435 19 468 43 q 362 -61 390 -11 q 333 -160 333 -111 q 397 -224 333 -224 l 419 -222 l 419 -271 q 386 -272 407 -272 q 304 -244 331 -272 q 278 -171 278 -217 q 298 -90 278 -133 q 353 -7 318 -47 q 296 -11 328 -11 q 151 24 196 -11 q 94 143 107 60 q 81 410 81 226 l 81 956 l 143 956 l 143 365 q 151 160 143 222 q 191 73 160 99 q 296 47 222 47 q 399 73 368 47 q 440 160 431 99 q 449 365 449 222 l 449 956 l 511 956 z "},"Ů":{"ha":592,"x_min":81,"x_max":511,"o":"m 511 956 l 511 410 q 498 143 511 226 q 440 24 485 60 q 296 -11 396 -11 q 151 24 196 -11 q 94 143 107 60 q 81 410 81 226 l 81 956 l 143 956 l 143 365 q 151 160 143 222 q 191 73 160 99 q 296 47 222 47 q 399 73 368 47 q 440 160 431 99 q 449 365 449 222 l 449 956 l 511 956 m 294 1019 q 217 1031 242 1019 q 185 1067 193 1042 q 178 1140 178 1092 q 185 1215 178 1190 q 217 1251 193 1239 q 294 1263 242 1263 q 372 1251 347 1263 q 403 1215 396 1239 q 411 1140 411 1190 q 403 1067 411 1092 q 372 1031 396 1042 q 294 1019 347 1019 m 294 1064 q 349 1078 338 1064 q 360 1140 360 1093 q 348 1204 360 1189 q 294 1219 336 1219 q 240 1204 251 1219 q 229 1140 229 1189 q 233 1092 229 1107 q 251 1070 238 1076 q 294 1064 264 1064 z "},"Ũ":{"ha":592,"x_min":81,"x_max":511,"o":"m 511 956 l 511 410 q 498 143 511 226 q 440 24 485 60 q 296 -11 396 -11 q 151 24 196 -11 q 94 143 107 60 q 81 410 81 226 l 81 956 l 143 956 l 143 365 q 151 160 143 222 q 191 73 160 99 q 296 47 222 47 q 399 73 368 47 q 440 160 431 99 q 449 365 449 222 l 449 956 l 511 956 m 457 1233 q 443 1126 457 1156 q 388 1097 429 1097 q 344 1106 367 1097 q 290 1132 322 1115 q 244 1157 264 1149 q 207 1165 225 1165 q 183 1147 189 1165 q 178 1082 178 1129 l 135 1082 q 149 1189 135 1160 q 204 1218 163 1218 q 251 1208 228 1218 q 306 1181 274 1199 q 351 1158 333 1165 q 385 1150 369 1150 q 408 1168 403 1150 q 414 1233 414 1186 l 457 1233 z "},"V":{"ha":506,"x_min":7,"x_max":499,"o":"m 214 0 l 7 956 l 72 956 l 250 107 l 258 107 l 438 956 l 499 956 l 292 0 l 214 0 z "},"W":{"ha":764,"x_min":13,"x_max":753,"o":"m 526 0 l 385 831 l 379 831 l 238 0 l 163 0 l 13 956 l 75 956 l 199 117 l 206 117 l 346 956 l 419 956 l 560 117 l 567 117 l 690 956 l 753 956 l 601 0 l 526 0 z "},"Ẃ":{"ha":764,"x_min":13,"x_max":753,"o":"m 526 0 l 385 831 l 379 831 l 238 0 l 163 0 l 13 956 l 75 956 l 199 117 l 206 117 l 346 956 l 419 956 l 560 117 l 567 117 l 690 956 l 753 956 l 601 0 l 526 0 m 360 1040 l 360 1047 l 406 1233 l 472 1233 l 472 1226 l 401 1040 l 360 1040 z "},"Ŵ":{"ha":764,"x_min":13,"x_max":753,"o":"m 526 0 l 385 831 l 379 831 l 238 0 l 163 0 l 13 956 l 75 956 l 199 117 l 206 117 l 346 956 l 419 956 l 560 117 l 567 117 l 690 956 l 753 956 l 601 0 l 526 0 m 253 1043 l 253 1050 l 346 1233 l 419 1233 l 513 1050 l 513 1043 l 468 1043 l 383 1188 l 297 1043 l 253 1043 z "},"Ẅ":{"ha":764,"x_min":13,"x_max":753,"o":"m 526 0 l 385 831 l 379 831 l 238 0 l 163 0 l 13 956 l 75 956 l 199 117 l 206 117 l 346 956 l 419 956 l 560 117 l 567 117 l 690 956 l 753 956 l 601 0 l 526 0 m 232 1125 l 232 1215 l 297 1215 l 297 1125 l 232 1125 m 468 1125 l 468 1215 l 533 1215 l 533 1125 l 468 1125 z "},"Ẁ":{"ha":764,"x_min":13,"x_max":753,"o":"m 526 0 l 385 831 l 379 831 l 238 0 l 163 0 l 13 956 l 75 956 l 199 117 l 206 117 l 346 956 l 419 956 l 560 117 l 567 117 l 690 956 l 753 956 l 601 0 l 526 0 m 367 1040 l 296 1226 l 296 1233 l 361 1233 l 408 1047 l 408 1040 l 367 1040 z "},"X":{"ha":542,"x_min":19,"x_max":522,"o":"m 456 0 l 272 419 l 267 419 l 85 0 l 19 0 l 229 481 l 22 956 l 89 956 l 269 540 l 275 540 l 454 956 l 519 956 l 313 482 l 522 0 l 456 0 z "},"Y":{"ha":474,"x_min":0,"x_max":474,"o":"m 206 0 l 206 385 l 0 956 l 64 956 l 235 471 l 242 471 l 411 956 l 474 956 l 267 385 l 267 0 l 206 0 z "},"Ý":{"ha":474,"x_min":0,"x_max":474,"o":"m 206 0 l 206 385 l 0 956 l 64 956 l 235 471 l 242 471 l 411 956 l 474 956 l 267 385 l 267 0 l 206 0 m 218 1042 l 218 1049 l 264 1235 l 331 1235 l 331 1228 l 260 1042 l 218 1042 z "},"Ŷ":{"ha":474,"x_min":0,"x_max":474,"o":"m 206 0 l 206 385 l 0 956 l 64 956 l 235 471 l 242 471 l 411 956 l 474 956 l 267 385 l 267 0 l 206 0 m 107 1043 l 107 1050 l 200 1233 l 274 1233 l 367 1050 l 367 1043 l 322 1043 l 238 1188 l 151 1043 l 107 1043 z "},"Ÿ":{"ha":474,"x_min":0,"x_max":474,"o":"m 206 0 l 206 385 l 0 956 l 64 956 l 235 471 l 242 471 l 411 956 l 474 956 l 267 385 l 267 0 l 206 0 m 88 1069 l 88 1160 l 153 1160 l 153 1069 l 88 1069 m 324 1069 l 324 1160 l 389 1160 l 389 1069 l 324 1069 z "},"Ỵ":{"ha":474,"x_min":0,"x_max":474,"o":"m 206 0 l 206 385 l 0 956 l 64 956 l 235 471 l 242 471 l 411 956 l 474 956 l 267 385 l 267 0 l 206 0 m 201 -185 l 201 -86 l 274 -86 l 274 -185 l 201 -185 z "},"Ỳ":{"ha":474,"x_min":0,"x_max":474,"o":"m 206 0 l 206 385 l 0 956 l 64 956 l 235 471 l 242 471 l 411 956 l 474 956 l 267 385 l 267 0 l 206 0 m 221 1040 l 150 1226 l 150 1233 l 215 1233 l 263 1047 l 263 1040 l 221 1040 z "},"Ỷ":{"ha":474,"x_min":0,"x_max":474,"o":"m 206 0 l 206 385 l 0 956 l 64 956 l 235 471 l 242 471 l 411 956 l 474 956 l 267 385 l 267 0 l 206 0 m 186 1043 q 197 1082 186 1071 q 235 1101 208 1093 l 250 1106 q 293 1127 282 1117 q 304 1165 304 1138 q 300 1197 304 1188 q 278 1211 296 1207 q 222 1215 261 1215 q 119 1210 203 1215 l 119 1251 q 231 1261 190 1261 q 329 1241 304 1261 q 354 1174 354 1221 q 345 1114 354 1133 q 300 1082 336 1094 l 288 1078 q 240 1057 249 1064 q 232 1031 232 1050 l 186 1031 l 186 1043 z "},"Ȳ":{"ha":474,"x_min":0,"x_max":474,"o":"m 206 0 l 206 385 l 0 956 l 64 956 l 235 471 l 242 471 l 411 956 l 474 956 l 267 385 l 267 0 l 206 0 m 122 1174 l 122 1233 l 353 1233 l 353 1174 l 122 1174 z "},"Ỹ":{"ha":474,"x_min":0,"x_max":474,"o":"m 206 0 l 206 385 l 0 956 l 64 956 l 235 471 l 242 471 l 411 956 l 474 956 l 267 385 l 267 0 l 206 0 m 399 1233 q 385 1126 399 1156 q 329 1097 371 1097 q 286 1106 308 1097 q 232 1132 264 1115 q 186 1157 206 1149 q 149 1165 167 1165 q 125 1147 131 1165 q 119 1082 119 1129 l 76 1082 q 90 1189 76 1160 q 146 1218 104 1218 q 192 1208 169 1218 q 247 1181 215 1199 q 293 1158 275 1165 q 326 1150 311 1150 q 350 1168 344 1150 q 356 1233 356 1186 l 399 1233 z "},"Z":{"ha":465,"x_min":28,"x_max":438,"o":"m 28 0 l 28 54 l 364 897 l 38 897 l 38 956 l 431 956 l 431 901 l 97 58 l 438 58 l 438 0 l 28 0 z "},"Ź":{"ha":465,"x_min":28,"x_max":438,"o":"m 28 0 l 28 54 l 364 897 l 38 897 l 38 956 l 431 956 l 431 901 l 97 58 l 438 58 l 438 0 l 28 0 m 210 1040 l 210 1047 l 256 1233 l 322 1233 l 322 1226 l 251 1040 l 210 1040 z "},"Ž":{"ha":465,"x_min":28,"x_max":438,"o":"m 28 0 l 28 54 l 364 897 l 38 897 l 38 956 l 431 956 l 431 901 l 97 58 l 438 58 l 438 0 l 28 0 m 204 1042 l 111 1225 l 111 1232 l 156 1232 l 242 1088 l 326 1232 l 371 1232 l 371 1225 l 278 1042 l 204 1042 z "},"Ż":{"ha":465,"x_min":28,"x_max":438,"o":"m 28 0 l 28 54 l 364 897 l 38 897 l 38 956 l 431 956 l 431 901 l 97 58 l 438 58 l 438 0 l 28 0 m 200 1125 l 200 1215 l 265 1215 l 265 1125 l 200 1125 z "},"Ẓ":{"ha":465,"x_min":28,"x_max":438,"o":"m 28 0 l 28 54 l 364 897 l 38 897 l 38 956 l 431 956 l 431 901 l 97 58 l 438 58 l 438 0 l 28 0 m 197 -185 l 197 -86 l 269 -86 l 269 -185 l 197 -185 z "},"a":{"ha":500,"x_min":40,"x_max":425,"o":"m 210 -11 q 113 6 149 -11 q 58 67 76 22 q 40 193 40 111 q 54 315 40 272 q 101 377 68 358 q 197 396 135 396 q 365 389 243 396 l 365 450 q 355 593 365 550 q 315 651 344 636 q 218 665 285 665 q 141 660 185 665 q 69 649 97 656 l 69 703 q 233 719 142 719 q 353 697 313 719 q 409 620 393 675 q 425 457 425 565 l 425 0 l 376 0 l 371 103 l 365 103 q 309 11 350 33 q 210 -11 268 -11 m 217 43 q 301 58 268 43 q 347 122 333 72 q 365 289 365 189 l 365 344 l 208 344 q 140 333 163 344 q 109 291 118 322 q 100 194 100 260 q 109 99 100 131 q 143 56 118 68 q 217 43 168 43 z "},"á":{"ha":500,"x_min":40,"x_max":425,"o":"m 210 -11 q 113 6 149 -11 q 58 67 76 22 q 40 193 40 111 q 54 315 40 272 q 101 377 68 358 q 197 396 135 396 q 365 389 243 396 l 365 450 q 355 593 365 550 q 315 651 344 636 q 218 665 285 665 q 141 660 185 665 q 69 649 97 656 l 69 703 q 233 719 142 719 q 353 697 313 719 q 409 620 393 675 q 425 457 425 565 l 425 0 l 376 0 l 371 103 l 365 103 q 309 11 350 33 q 210 -11 268 -11 m 217 43 q 301 58 268 43 q 347 122 333 72 q 365 289 365 189 l 365 344 l 208 344 q 140 333 163 344 q 109 291 118 322 q 100 194 100 260 q 109 99 100 131 q 143 56 118 68 q 217 43 168 43 m 222 839 l 222 846 l 268 1032 l 335 1032 l 335 1025 l 264 839 l 222 839 z "},"ă":{"ha":500,"x_min":40,"x_max":425,"o":"m 210 -11 q 113 6 149 -11 q 58 67 76 22 q 40 193 40 111 q 54 315 40 272 q 101 377 68 358 q 197 396 135 396 q 365 389 243 396 l 365 450 q 355 593 365 550 q 315 651 344 636 q 218 665 285 665 q 141 660 185 665 q 69 649 97 656 l 69 703 q 233 719 142 719 q 353 697 313 719 q 409 620 393 675 q 425 457 425 565 l 425 0 l 376 0 l 371 103 l 365 103 q 309 11 350 33 q 210 -11 268 -11 m 217 43 q 301 58 268 43 q 347 122 333 72 q 365 289 365 189 l 365 344 l 208 344 q 140 333 163 344 q 109 291 118 322 q 100 194 100 260 q 109 99 100 131 q 143 56 118 68 q 217 43 168 43 m 382 1032 q 375 924 382 963 q 340 861 368 885 q 250 838 311 838 q 161 861 189 838 q 126 923 133 885 q 119 1032 119 961 l 171 1032 q 175 943 171 972 q 196 898 179 914 q 250 882 213 882 q 305 898 288 882 q 326 943 322 914 q 331 1032 331 972 l 382 1032 z "},"ắ":{"ha":500,"x_min":40,"x_max":425,"o":"m 210 -11 q 113 6 149 -11 q 58 67 76 22 q 40 193 40 111 q 54 315 40 272 q 101 377 68 358 q 197 396 135 396 q 365 389 243 396 l 365 450 q 355 593 365 550 q 315 651 344 636 q 218 665 285 665 q 141 660 185 665 q 69 649 97 656 l 69 703 q 233 719 142 719 q 353 697 313 719 q 409 620 393 675 q 425 457 425 565 l 425 0 l 376 0 l 371 103 l 365 103 q 309 11 350 33 q 210 -11 268 -11 m 217 43 q 301 58 268 43 q 347 122 333 72 q 365 289 365 189 l 365 344 l 208 344 q 140 333 163 344 q 109 291 118 322 q 100 194 100 260 q 109 99 100 131 q 143 56 118 68 q 217 43 168 43 m 382 1032 q 375 924 382 963 q 340 861 368 885 q 250 838 311 838 q 161 861 189 838 q 126 923 133 885 q 119 1032 119 961 l 171 1032 q 175 943 171 972 q 196 898 179 914 q 250 882 213 882 q 305 898 288 882 q 326 943 322 914 q 331 1032 331 972 l 382 1032 m 231 1079 l 231 1086 l 276 1272 l 343 1272 l 343 1265 l 272 1079 l 231 1079 z "},"ặ":{"ha":500,"x_min":40,"x_max":425,"o":"m 210 -11 q 113 6 149 -11 q 58 67 76 22 q 40 193 40 111 q 54 315 40 272 q 101 377 68 358 q 197 396 135 396 q 365 389 243 396 l 365 450 q 355 593 365 550 q 315 651 344 636 q 218 665 285 665 q 141 660 185 665 q 69 649 97 656 l 69 703 q 233 719 142 719 q 353 697 313 719 q 409 620 393 675 q 425 457 425 565 l 425 0 l 376 0 l 371 103 l 365 103 q 309 11 350 33 q 210 -11 268 -11 m 217 43 q 301 58 268 43 q 347 122 333 72 q 365 289 365 189 l 365 344 l 208 344 q 140 333 163 344 q 109 291 118 322 q 100 194 100 260 q 109 99 100 131 q 143 56 118 68 q 217 43 168 43 m 215 -185 l 215 -86 l 288 -86 l 288 -185 l 215 -185 m 382 1032 q 375 924 382 963 q 340 861 368 885 q 250 838 311 838 q 161 861 189 838 q 126 923 133 885 q 119 1032 119 961 l 171 1032 q 175 943 171 972 q 196 898 179 914 q 250 882 213 882 q 305 898 288 882 q 326 943 322 914 q 331 1032 331 972 l 382 1032 z "},"ằ":{"ha":500,"x_min":40,"x_max":425,"o":"m 210 -11 q 113 6 149 -11 q 58 67 76 22 q 40 193 40 111 q 54 315 40 272 q 101 377 68 358 q 197 396 135 396 q 365 389 243 396 l 365 450 q 355 593 365 550 q 315 651 344 636 q 218 665 285 665 q 141 660 185 665 q 69 649 97 656 l 69 703 q 233 719 142 719 q 353 697 313 719 q 409 620 393 675 q 425 457 425 565 l 425 0 l 376 0 l 371 103 l 365 103 q 309 11 350 33 q 210 -11 268 -11 m 217 43 q 301 58 268 43 q 347 122 333 72 q 365 289 365 189 l 365 344 l 208 344 q 140 333 163 344 q 109 291 118 322 q 100 194 100 260 q 109 99 100 131 q 143 56 118 68 q 217 43 168 43 m 382 1032 q 375 924 382 963 q 340 861 368 885 q 250 838 311 838 q 161 861 189 838 q 126 923 133 885 q 119 1032 119 961 l 171 1032 q 175 943 171 972 q 196 898 179 914 q 250 882 213 882 q 305 898 288 882 q 326 943 322 914 q 331 1032 331 972 l 382 1032 m 233 1079 l 163 1265 l 163 1272 l 228 1272 l 275 1086 l 275 1079 l 233 1079 z "},"ẳ":{"ha":500,"x_min":40,"x_max":425,"o":"m 210 -11 q 113 6 149 -11 q 58 67 76 22 q 40 193 40 111 q 54 315 40 272 q 101 377 68 358 q 197 396 135 396 q 365 389 243 396 l 365 450 q 355 593 365 550 q 315 651 344 636 q 218 665 285 665 q 141 660 185 665 q 69 649 97 656 l 69 703 q 233 719 142 719 q 353 697 313 719 q 409 620 393 675 q 425 457 425 565 l 425 0 l 376 0 l 371 103 l 365 103 q 309 11 350 33 q 210 -11 268 -11 m 217 43 q 301 58 268 43 q 347 122 333 72 q 365 289 365 189 l 365 344 l 208 344 q 140 333 163 344 q 109 291 118 322 q 100 194 100 260 q 109 99 100 131 q 143 56 118 68 q 217 43 168 43 m 381 1032 q 374 924 381 963 q 338 861 367 885 q 249 838 310 838 q 160 861 188 838 q 125 923 132 885 q 118 1032 118 961 l 169 1032 q 174 943 169 972 q 194 898 178 914 q 249 882 211 882 q 303 898 286 882 q 325 943 321 914 q 329 1032 329 972 l 381 1032 m 204 1046 q 215 1083 204 1072 q 253 1104 225 1094 l 268 1108 q 310 1129 299 1118 q 322 1168 322 1140 q 318 1199 322 1190 q 297 1213 314 1208 q 240 1218 279 1218 q 138 1213 221 1218 l 138 1254 q 249 1263 218 1263 q 347 1243 322 1263 q 372 1176 372 1224 q 363 1117 372 1136 q 318 1083 354 1097 l 306 1079 q 258 1060 267 1067 q 250 1032 250 1053 l 204 1032 l 204 1046 z "},"ẵ":{"ha":500,"x_min":40,"x_max":425,"o":"m 210 -11 q 113 6 149 -11 q 58 67 76 22 q 40 193 40 111 q 54 315 40 272 q 101 377 68 358 q 197 396 135 396 q 365 389 243 396 l 365 450 q 355 593 365 550 q 315 651 344 636 q 218 665 285 665 q 141 660 185 665 q 69 649 97 656 l 69 703 q 233 719 142 719 q 353 697 313 719 q 409 620 393 675 q 425 457 425 565 l 425 0 l 376 0 l 371 103 l 365 103 q 309 11 350 33 q 210 -11 268 -11 m 217 43 q 301 58 268 43 q 347 122 333 72 q 365 289 365 189 l 365 344 l 208 344 q 140 333 163 344 q 109 291 118 322 q 100 194 100 260 q 109 99 100 131 q 143 56 118 68 q 217 43 168 43 m 379 1032 q 372 924 379 963 q 337 861 365 885 q 247 838 308 838 q 158 861 186 838 q 124 923 131 885 q 117 1032 117 961 l 168 1032 q 172 943 168 972 q 193 898 176 914 q 247 882 210 882 q 302 898 285 882 q 324 943 319 914 q 328 1032 328 972 l 379 1032 m 413 1272 q 399 1165 413 1194 q 343 1136 385 1136 q 300 1145 322 1136 q 246 1171 278 1154 q 200 1196 219 1188 q 163 1204 181 1204 q 139 1186 144 1204 q 133 1121 133 1168 l 90 1121 q 104 1228 90 1199 q 160 1257 118 1257 q 206 1247 183 1257 q 261 1219 229 1238 q 307 1197 289 1204 q 340 1189 325 1189 q 364 1207 358 1189 q 369 1272 369 1225 l 413 1272 z "},"ǎ":{"ha":500,"x_min":40,"x_max":425,"o":"m 210 -11 q 113 6 149 -11 q 58 67 76 22 q 40 193 40 111 q 54 315 40 272 q 101 377 68 358 q 197 396 135 396 q 365 389 243 396 l 365 450 q 355 593 365 550 q 315 651 344 636 q 218 665 285 665 q 141 660 185 665 q 69 649 97 656 l 69 703 q 233 719 142 719 q 353 697 313 719 q 409 620 393 675 q 425 457 425 565 l 425 0 l 376 0 l 371 103 l 365 103 q 309 11 350 33 q 210 -11 268 -11 m 217 43 q 301 58 268 43 q 347 122 333 72 q 365 289 365 189 l 365 344 l 208 344 q 140 333 163 344 q 109 291 118 322 q 100 194 100 260 q 109 99 100 131 q 143 56 118 68 q 217 43 168 43 m 214 842 l 121 1025 l 121 1032 l 165 1032 l 251 888 l 336 1032 l 381 1032 l 381 1025 l 288 842 l 214 842 z "},"â":{"ha":500,"x_min":40,"x_max":425,"o":"m 210 -11 q 113 6 149 -11 q 58 67 76 22 q 40 193 40 111 q 54 315 40 272 q 101 377 68 358 q 197 396 135 396 q 365 389 243 396 l 365 450 q 355 593 365 550 q 315 651 344 636 q 218 665 285 665 q 141 660 185 665 q 69 649 97 656 l 69 703 q 233 719 142 719 q 353 697 313 719 q 409 620 393 675 q 425 457 425 565 l 425 0 l 376 0 l 371 103 l 365 103 q 309 11 350 33 q 210 -11 268 -11 m 217 43 q 301 58 268 43 q 347 122 333 72 q 365 289 365 189 l 365 344 l 208 344 q 140 333 163 344 q 109 291 118 322 q 100 194 100 260 q 109 99 100 131 q 143 56 118 68 q 217 43 168 43 m 121 842 l 121 849 l 214 1032 l 288 1032 l 381 849 l 381 842 l 336 842 l 251 986 l 165 842 l 121 842 z "},"ấ":{"ha":500,"x_min":40,"x_max":442,"o":"m 210 -11 q 113 6 149 -11 q 58 67 76 22 q 40 193 40 111 q 54 315 40 272 q 101 377 68 358 q 197 396 135 396 q 365 389 243 396 l 365 450 q 355 593 365 550 q 315 651 344 636 q 218 665 285 665 q 141 660 185 665 q 69 649 97 656 l 69 703 q 233 719 142 719 q 353 697 313 719 q 409 620 393 675 q 425 457 425 565 l 425 0 l 376 0 l 371 103 l 365 103 q 309 11 350 33 q 210 -11 268 -11 m 217 43 q 301 58 268 43 q 347 122 333 72 q 365 289 365 189 l 365 344 l 208 344 q 140 333 163 344 q 109 291 118 322 q 100 194 100 260 q 109 99 100 131 q 143 56 118 68 q 217 43 168 43 m 119 842 l 119 849 l 213 1032 l 286 1032 l 379 849 l 379 842 l 335 842 l 250 986 l 164 842 l 119 842 m 329 1035 l 329 1042 l 375 1228 l 442 1228 l 442 1221 l 371 1035 l 329 1035 z "},"ậ":{"ha":500,"x_min":40,"x_max":425,"o":"m 210 -11 q 113 6 149 -11 q 58 67 76 22 q 40 193 40 111 q 54 315 40 272 q 101 377 68 358 q 197 396 135 396 q 365 389 243 396 l 365 450 q 355 593 365 550 q 315 651 344 636 q 218 665 285 665 q 141 660 185 665 q 69 649 97 656 l 69 703 q 233 719 142 719 q 353 697 313 719 q 409 620 393 675 q 425 457 425 565 l 425 0 l 376 0 l 371 103 l 365 103 q 309 11 350 33 q 210 -11 268 -11 m 217 43 q 301 58 268 43 q 347 122 333 72 q 365 289 365 189 l 365 344 l 208 344 q 140 333 163 344 q 109 291 118 322 q 100 194 100 260 q 109 99 100 131 q 143 56 118 68 q 217 43 168 43 m 215 -185 l 215 -86 l 288 -86 l 288 -185 l 215 -185 m 121 842 l 121 849 l 214 1032 l 288 1032 l 381 849 l 381 842 l 336 842 l 251 986 l 165 842 l 121 842 z "},"ầ":{"ha":500,"x_min":40,"x_max":425,"o":"m 210 -11 q 113 6 149 -11 q 58 67 76 22 q 40 193 40 111 q 54 315 40 272 q 101 377 68 358 q 197 396 135 396 q 365 389 243 396 l 365 450 q 355 593 365 550 q 315 651 344 636 q 218 665 285 665 q 141 660 185 665 q 69 649 97 656 l 69 703 q 233 719 142 719 q 353 697 313 719 q 409 620 393 675 q 425 457 425 565 l 425 0 l 376 0 l 371 103 l 365 103 q 309 11 350 33 q 210 -11 268 -11 m 217 43 q 301 58 268 43 q 347 122 333 72 q 365 289 365 189 l 365 344 l 208 344 q 140 333 163 344 q 109 291 118 322 q 100 194 100 260 q 109 99 100 131 q 143 56 118 68 q 217 43 168 43 m 119 842 l 119 849 l 213 1032 l 286 1032 l 379 849 l 379 842 l 335 842 l 250 986 l 164 842 l 119 842 m 331 1035 l 260 1221 l 260 1228 l 325 1228 l 372 1042 l 372 1035 l 331 1035 z "},"ẩ":{"ha":500,"x_min":40,"x_max":474,"o":"m 210 -11 q 113 6 149 -11 q 58 67 76 22 q 40 193 40 111 q 54 315 40 272 q 101 377 68 358 q 197 396 135 396 q 365 389 243 396 l 365 450 q 355 593 365 550 q 315 651 344 636 q 218 665 285 665 q 141 660 185 665 q 69 649 97 656 l 69 703 q 233 719 142 719 q 353 697 313 719 q 409 620 393 675 q 425 457 425 565 l 425 0 l 376 0 l 371 103 l 365 103 q 309 11 350 33 q 210 -11 268 -11 m 217 43 q 301 58 268 43 q 347 122 333 72 q 365 289 365 189 l 365 344 l 208 344 q 140 333 163 344 q 109 291 118 322 q 100 194 100 260 q 109 99 100 131 q 143 56 118 68 q 217 43 168 43 m 121 842 l 121 849 l 214 1032 l 288 1032 l 381 849 l 381 842 l 336 842 l 251 986 l 165 842 l 121 842 m 306 1047 q 316 1085 306 1074 q 354 1106 326 1096 l 369 1110 q 412 1131 400 1119 q 424 1169 424 1142 q 419 1201 424 1192 q 398 1215 415 1210 q 342 1219 381 1219 q 239 1214 322 1219 l 239 1256 q 350 1264 319 1264 q 449 1244 424 1264 q 474 1178 474 1225 q 465 1118 474 1138 q 419 1085 456 1099 l 407 1081 q 360 1061 368 1068 q 351 1033 351 1054 l 306 1033 l 306 1047 z "},"ẫ":{"ha":500,"x_min":40,"x_max":425,"o":"m 210 -11 q 113 6 149 -11 q 58 67 76 22 q 40 193 40 111 q 54 315 40 272 q 101 377 68 358 q 197 396 135 396 q 365 389 243 396 l 365 450 q 355 593 365 550 q 315 651 344 636 q 218 665 285 665 q 141 660 185 665 q 69 649 97 656 l 69 703 q 233 719 142 719 q 353 697 313 719 q 409 620 393 675 q 425 457 425 565 l 425 0 l 376 0 l 371 103 l 365 103 q 309 11 350 33 q 210 -11 268 -11 m 217 43 q 301 58 268 43 q 347 122 333 72 q 365 289 365 189 l 365 344 l 208 344 q 140 333 163 344 q 109 291 118 322 q 100 194 100 260 q 109 99 100 131 q 143 56 118 68 q 217 43 168 43 m 118 842 l 118 849 l 211 1032 l 285 1032 l 378 849 l 378 842 l 333 842 l 249 986 l 163 842 l 118 842 m 413 1272 q 399 1165 413 1194 q 343 1136 385 1136 q 300 1145 322 1136 q 246 1171 278 1154 q 200 1196 219 1188 q 163 1204 181 1204 q 139 1186 144 1204 q 133 1121 133 1168 l 90 1121 q 104 1228 90 1199 q 160 1257 118 1257 q 206 1247 183 1257 q 261 1219 229 1238 q 307 1197 289 1204 q 340 1189 325 1189 q 364 1207 358 1189 q 369 1272 369 1225 l 413 1272 z "},"ȁ":{"ha":500,"x_min":40,"x_max":425,"o":"m 210 -11 q 113 6 149 -11 q 58 67 76 22 q 40 193 40 111 q 54 315 40 272 q 101 377 68 358 q 197 396 135 396 q 365 389 243 396 l 365 450 q 355 593 365 550 q 315 651 344 636 q 218 665 285 665 q 141 660 185 665 q 69 649 97 656 l 69 703 q 233 719 142 719 q 353 697 313 719 q 409 620 393 675 q 425 457 425 565 l 425 0 l 376 0 l 371 103 l 365 103 q 309 11 350 33 q 210 -11 268 -11 m 217 43 q 301 58 268 43 q 347 122 333 72 q 365 289 365 189 l 365 344 l 208 344 q 140 333 163 344 q 109 291 118 322 q 100 194 100 260 q 109 99 100 131 q 143 56 118 68 q 217 43 168 43 m 200 849 l 161 849 l 94 1007 l 94 1014 l 157 1014 l 200 856 l 200 849 m 343 849 l 303 849 l 238 1007 l 238 1014 l 300 1014 l 343 856 l 343 849 z "},"ä":{"ha":500,"x_min":40,"x_max":425,"o":"m 210 -11 q 113 6 149 -11 q 58 67 76 22 q 40 193 40 111 q 54 315 40 272 q 101 377 68 358 q 197 396 135 396 q 365 389 243 396 l 365 450 q 355 593 365 550 q 315 651 344 636 q 218 665 285 665 q 141 660 185 665 q 69 649 97 656 l 69 703 q 233 719 142 719 q 353 697 313 719 q 409 620 393 675 q 425 457 425 565 l 425 0 l 376 0 l 371 103 l 365 103 q 309 11 350 33 q 210 -11 268 -11 m 217 43 q 301 58 268 43 q 347 122 333 72 q 365 289 365 189 l 365 344 l 208 344 q 140 333 163 344 q 109 291 118 322 q 100 194 100 260 q 109 99 100 131 q 143 56 118 68 q 217 43 168 43 m 101 924 l 101 1014 l 167 1014 l 167 924 l 101 924 m 338 924 l 338 1014 l 403 1014 l 403 924 l 338 924 z "},"ạ":{"ha":500,"x_min":40,"x_max":425,"o":"m 210 -11 q 113 6 149 -11 q 58 67 76 22 q 40 193 40 111 q 54 315 40 272 q 101 377 68 358 q 197 396 135 396 q 365 389 243 396 l 365 450 q 355 593 365 550 q 315 651 344 636 q 218 665 285 665 q 141 660 185 665 q 69 649 97 656 l 69 703 q 233 719 142 719 q 353 697 313 719 q 409 620 393 675 q 425 457 425 565 l 425 0 l 376 0 l 371 103 l 365 103 q 309 11 350 33 q 210 -11 268 -11 m 217 43 q 301 58 268 43 q 347 122 333 72 q 365 289 365 189 l 365 344 l 208 344 q 140 333 163 344 q 109 291 118 322 q 100 194 100 260 q 109 99 100 131 q 143 56 118 68 q 217 43 168 43 m 215 -185 l 215 -86 l 288 -86 l 288 -185 l 215 -185 z "},"à":{"ha":500,"x_min":40,"x_max":425,"o":"m 210 -11 q 113 6 149 -11 q 58 67 76 22 q 40 193 40 111 q 54 315 40 272 q 101 377 68 358 q 197 396 135 396 q 365 389 243 396 l 365 450 q 355 593 365 550 q 315 651 344 636 q 218 665 285 665 q 141 660 185 665 q 69 649 97 656 l 69 703 q 233 719 142 719 q 353 697 313 719 q 409 620 393 675 q 425 457 425 565 l 425 0 l 376 0 l 371 103 l 365 103 q 309 11 350 33 q 210 -11 268 -11 m 217 43 q 301 58 268 43 q 347 122 333 72 q 365 289 365 189 l 365 344 l 208 344 q 140 333 163 344 q 109 291 118 322 q 100 194 100 260 q 109 99 100 131 q 143 56 118 68 q 217 43 168 43 m 232 839 l 161 1025 l 161 1032 l 226 1032 l 274 846 l 274 839 l 232 839 z "},"ả":{"ha":500,"x_min":40,"x_max":425,"o":"m 210 -11 q 113 6 149 -11 q 58 67 76 22 q 40 193 40 111 q 54 315 40 272 q 101 377 68 358 q 197 396 135 396 q 365 389 243 396 l 365 450 q 355 593 365 550 q 315 651 344 636 q 218 665 285 665 q 141 660 185 665 q 69 649 97 656 l 69 703 q 233 719 142 719 q 353 697 313 719 q 409 620 393 675 q 425 457 425 565 l 425 0 l 376 0 l 371 103 l 365 103 q 309 11 350 33 q 210 -11 268 -11 m 217 43 q 301 58 268 43 q 347 122 333 72 q 365 289 365 189 l 365 344 l 208 344 q 140 333 163 344 q 109 291 118 322 q 100 194 100 260 q 109 99 100 131 q 143 56 118 68 q 217 43 168 43 m 200 863 q 210 900 200 889 q 249 921 221 911 l 264 925 q 306 946 294 935 q 318 985 318 957 q 314 1016 318 1007 q 292 1030 310 1025 q 236 1035 275 1035 q 133 1029 217 1035 l 133 1071 q 244 1079 214 1079 q 343 1060 318 1079 q 368 993 368 1040 q 359 933 368 953 q 314 900 350 914 l 301 896 q 254 876 263 883 q 246 849 246 869 l 200 849 l 200 863 z "},"ȃ":{"ha":500,"x_min":40,"x_max":425,"o":"m 210 -11 q 113 6 149 -11 q 58 67 76 22 q 40 193 40 111 q 54 315 40 272 q 101 377 68 358 q 197 396 135 396 q 365 389 243 396 l 365 450 q 355 593 365 550 q 315 651 344 636 q 218 665 285 665 q 141 660 185 665 q 69 649 97 656 l 69 703 q 233 719 142 719 q 353 697 313 719 q 409 620 393 675 q 425 457 425 565 l 425 0 l 376 0 l 371 103 l 365 103 q 309 11 350 33 q 210 -11 268 -11 m 217 43 q 301 58 268 43 q 347 122 333 72 q 365 289 365 189 l 365 344 l 208 344 q 140 333 163 344 q 109 291 118 322 q 100 194 100 260 q 109 99 100 131 q 143 56 118 68 q 217 43 168 43 m 119 846 q 126 954 119 915 q 162 1017 133 993 q 251 1040 190 1040 q 340 1017 313 1040 q 375 955 368 993 q 382 846 382 917 l 331 846 q 326 935 331 906 q 306 980 322 964 q 251 996 289 996 q 197 980 214 996 q 175 935 179 964 q 171 846 171 906 l 119 846 z "},"ā":{"ha":500,"x_min":40,"x_max":425,"o":"m 210 -11 q 113 6 149 -11 q 58 67 76 22 q 40 193 40 111 q 54 315 40 272 q 101 377 68 358 q 197 396 135 396 q 365 389 243 396 l 365 450 q 355 593 365 550 q 315 651 344 636 q 218 665 285 665 q 141 660 185 665 q 69 649 97 656 l 69 703 q 233 719 142 719 q 353 697 313 719 q 409 620 393 675 q 425 457 425 565 l 425 0 l 376 0 l 371 103 l 365 103 q 309 11 350 33 q 210 -11 268 -11 m 217 43 q 301 58 268 43 q 347 122 333 72 q 365 289 365 189 l 365 344 l 208 344 q 140 333 163 344 q 109 291 118 322 q 100 194 100 260 q 109 99 100 131 q 143 56 118 68 q 217 43 168 43 m 136 972 l 136 1032 l 367 1032 l 367 972 l 136 972 z "},"ą":{"ha":500,"x_min":40,"x_max":431,"o":"m 431 -222 l 431 -271 q 397 -272 418 -272 q 315 -244 342 -272 q 289 -172 289 -217 q 313 -82 289 -129 q 376 4 336 -35 l 371 103 l 365 103 q 309 11 350 33 q 210 -11 268 -11 q 113 6 149 -11 q 58 67 76 22 q 40 193 40 111 q 54 315 40 272 q 101 377 68 358 q 197 396 135 396 q 365 389 243 396 l 365 450 q 355 593 365 550 q 315 651 344 636 q 218 665 285 665 q 140 660 185 665 q 69 649 96 656 l 69 703 q 233 719 142 719 q 353 697 313 719 q 409 620 393 675 q 425 457 425 565 l 425 0 q 371 -73 397 -25 q 344 -161 344 -121 q 408 -224 344 -224 l 431 -222 m 365 344 l 208 344 q 140 333 163 344 q 109 291 118 322 q 100 194 100 260 q 109 99 100 131 q 143 56 118 68 q 217 43 168 43 q 301 58 268 43 q 347 122 333 72 q 365 289 365 189 l 365 344 z "},"å":{"ha":500,"x_min":40,"x_max":425,"o":"m 210 -11 q 113 6 149 -11 q 58 67 76 22 q 40 193 40 111 q 54 315 40 272 q 101 377 68 358 q 197 396 135 396 q 365 389 243 396 l 365 450 q 355 593 365 550 q 315 651 344 636 q 218 665 285 665 q 141 660 185 665 q 69 649 97 656 l 69 703 q 233 719 142 719 q 353 697 313 719 q 409 620 393 675 q 425 457 425 565 l 425 0 l 376 0 l 371 103 l 365 103 q 309 11 350 33 q 210 -11 268 -11 m 217 43 q 301 58 268 43 q 347 122 333 72 q 365 289 365 189 l 365 344 l 208 344 q 140 333 163 344 q 109 291 118 322 q 100 194 100 260 q 109 99 100 131 q 143 56 118 68 q 217 43 168 43 m 250 857 q 173 868 197 857 q 141 904 149 879 q 133 978 133 929 q 141 1052 133 1028 q 173 1088 149 1076 q 250 1100 197 1100 q 327 1088 303 1100 q 359 1052 351 1076 q 367 978 367 1028 q 359 904 367 929 q 327 868 351 879 q 250 857 303 857 m 250 901 q 304 916 293 901 q 315 978 315 931 q 303 1042 315 1026 q 250 1057 292 1057 q 196 1042 207 1057 q 185 978 185 1026 q 189 929 185 944 q 206 908 193 914 q 250 901 219 901 z "},"ǻ":{"ha":500,"x_min":40,"x_max":425,"o":"m 210 -11 q 113 6 149 -11 q 58 67 76 22 q 40 193 40 111 q 54 315 40 272 q 101 377 68 358 q 197 396 135 396 q 365 389 243 396 l 365 450 q 355 593 365 550 q 315 651 344 636 q 218 665 285 665 q 141 660 185 665 q 69 649 97 656 l 69 703 q 233 719 142 719 q 353 697 313 719 q 409 620 393 675 q 425 457 425 565 l 425 0 l 376 0 l 371 103 l 365 103 q 309 11 350 33 q 210 -11 268 -11 m 217 43 q 301 58 268 43 q 347 122 333 72 q 365 289 365 189 l 365 344 l 208 344 q 140 333 163 344 q 109 291 118 322 q 100 194 100 260 q 109 99 100 131 q 143 56 118 68 q 217 43 168 43 m 250 860 q 173 871 197 860 q 141 907 149 882 q 133 981 133 932 q 141 1055 133 1031 q 173 1091 149 1079 q 250 1103 197 1103 q 327 1091 303 1103 q 359 1055 351 1079 q 367 981 367 1031 q 359 907 367 932 q 327 871 351 882 q 250 860 303 860 m 250 904 q 304 919 293 904 q 315 981 315 933 q 303 1044 315 1029 q 250 1060 292 1060 q 196 1044 207 1060 q 185 981 185 1029 q 189 932 185 947 q 206 910 193 917 q 250 904 219 904 m 228 1150 l 228 1157 l 274 1343 l 340 1343 l 340 1336 l 269 1150 l 228 1150 z "},"ã":{"ha":500,"x_min":40,"x_max":425,"o":"m 210 -11 q 113 6 149 -11 q 58 67 76 22 q 40 193 40 111 q 54 315 40 272 q 101 377 68 358 q 197 396 135 396 q 365 389 243 396 l 365 450 q 355 593 365 550 q 315 651 344 636 q 218 665 285 665 q 141 660 185 665 q 69 649 97 656 l 69 703 q 233 719 142 719 q 353 697 313 719 q 409 620 393 675 q 425 457 425 565 l 425 0 l 376 0 l 371 103 l 365 103 q 309 11 350 33 q 210 -11 268 -11 m 217 43 q 301 58 268 43 q 347 122 333 72 q 365 289 365 189 l 365 344 l 208 344 q 140 333 163 344 q 109 291 118 322 q 100 194 100 260 q 109 99 100 131 q 143 56 118 68 q 217 43 168 43 m 411 1032 q 397 925 411 954 q 342 896 383 896 q 299 905 321 896 q 244 931 276 914 q 199 956 218 947 q 161 964 179 964 q 138 946 143 964 q 132 881 132 928 l 89 881 q 103 988 89 958 q 158 1017 117 1017 q 205 1007 182 1017 q 260 979 228 997 q 306 956 288 964 q 339 949 324 949 q 363 967 357 949 q 368 1032 368 985 l 411 1032 z "},"æ":{"ha":815,"x_min":40,"x_max":754,"o":"m 754 339 l 425 339 q 435 150 425 210 q 478 67 446 90 q 582 43 510 43 q 663 48 619 43 q 738 61 707 53 l 738 7 q 664 -6 711 0 q 574 -11 617 -11 q 450 15 492 -11 q 389 110 408 42 q 323 12 368 35 q 213 -11 278 -11 q 113 6 150 -11 q 58 67 76 22 q 40 193 40 111 q 54 312 40 269 q 101 372 68 354 q 197 390 135 390 l 365 390 l 365 450 q 355 593 365 550 q 315 651 344 636 q 218 665 285 665 q 142 660 186 665 q 69 649 99 656 l 69 703 q 233 719 144 719 q 341 700 303 719 q 397 632 379 681 q 458 699 418 679 q 571 719 499 719 q 695 688 657 719 q 744 587 733 657 q 754 361 754 517 l 754 339 m 568 665 q 473 647 501 665 q 435 573 444 628 q 425 390 425 518 l 696 390 l 696 413 q 685 579 696 526 q 648 649 674 632 q 568 665 622 665 m 365 339 l 208 339 q 140 328 163 339 q 108 288 118 318 q 99 194 99 258 q 108 99 99 131 q 142 56 118 68 q 217 43 167 43 q 301 58 269 43 q 349 126 333 74 q 362 198 358 161 q 365 289 365 235 l 365 339 z "},"ǽ":{"ha":815,"x_min":40,"x_max":754,"o":"m 754 339 l 425 339 q 435 150 425 210 q 478 67 446 90 q 582 43 510 43 q 663 48 619 43 q 738 61 707 53 l 738 7 q 664 -6 711 0 q 574 -11 617 -11 q 450 15 492 -11 q 389 110 408 42 q 323 12 368 35 q 213 -11 278 -11 q 113 6 150 -11 q 58 67 76 22 q 40 193 40 111 q 54 312 40 269 q 101 372 68 354 q 197 390 135 390 l 365 390 l 365 450 q 355 593 365 550 q 315 651 344 636 q 218 665 285 665 q 142 660 186 665 q 69 649 99 656 l 69 703 q 233 719 144 719 q 341 700 303 719 q 397 632 379 681 q 458 699 418 679 q 571 719 499 719 q 695 688 657 719 q 744 587 733 657 q 754 361 754 517 l 754 339 m 568 665 q 473 647 501 665 q 435 573 444 628 q 425 390 425 518 l 696 390 l 696 413 q 685 579 696 526 q 648 649 674 632 q 568 665 622 665 m 365 339 l 208 339 q 140 328 163 339 q 108 288 118 318 q 99 194 99 258 q 108 99 99 131 q 142 56 118 68 q 217 43 167 43 q 301 58 269 43 q 349 126 333 74 q 362 198 358 161 q 365 289 365 235 l 365 339 m 382 839 l 382 846 l 428 1032 l 494 1032 l 494 1025 l 424 839 l 382 839 z "},"b":{"ha":538,"x_min":81,"x_max":476,"o":"m 292 -11 q 195 12 233 -11 q 140 103 157 35 l 135 103 l 129 0 l 81 0 l 81 1032 l 140 1032 l 140 618 l 146 618 q 195 696 160 672 q 292 719 231 719 q 409 690 371 719 q 462 584 447 660 q 476 354 476 508 q 462 124 476 200 q 409 19 447 49 q 292 -11 371 -11 m 278 43 q 369 65 342 43 q 407 149 397 86 q 417 354 417 211 q 407 560 417 497 q 369 644 397 622 q 278 665 342 665 q 196 641 226 665 q 154 564 165 617 q 140 354 140 489 q 142 235 140 282 q 153 147 144 189 q 194 68 164 93 q 278 43 225 43 z "},"c":{"ha":418,"x_min":60,"x_max":378,"o":"m 378 6 q 320 -6 354 -1 q 256 -11 286 -11 q 126 24 167 -11 q 72 132 85 58 q 60 353 60 206 q 76 581 60 504 q 132 688 92 657 q 251 719 172 719 q 316 715 281 719 q 374 704 351 711 l 374 650 q 261 665 324 665 q 169 641 199 665 q 130 553 140 617 q 119 356 119 489 q 130 153 119 217 q 170 66 140 89 q 264 43 200 43 q 326 47 294 43 q 378 60 358 51 l 378 6 z "},"ć":{"ha":418,"x_min":60,"x_max":378,"o":"m 378 6 q 320 -6 354 -1 q 256 -11 286 -11 q 126 24 167 -11 q 72 132 85 58 q 60 353 60 206 q 76 581 60 504 q 132 688 92 657 q 251 719 172 719 q 316 715 281 719 q 374 704 351 711 l 374 650 q 261 665 324 665 q 169 641 199 665 q 130 553 140 617 q 119 356 119 489 q 130 153 119 217 q 170 66 140 89 q 264 43 200 43 q 326 47 294 43 q 378 60 358 51 l 378 6 m 183 839 l 183 846 l 229 1032 l 296 1032 l 296 1025 l 225 839 l 183 839 z "},"č":{"ha":418,"x_min":60,"x_max":378,"o":"m 378 6 q 320 -6 354 -1 q 256 -11 286 -11 q 126 24 167 -11 q 72 132 85 58 q 60 353 60 206 q 76 581 60 504 q 132 688 92 657 q 251 719 172 719 q 316 715 281 719 q 374 704 351 711 l 374 650 q 261 665 324 665 q 169 641 199 665 q 130 553 140 617 q 119 356 119 489 q 130 153 119 217 q 170 66 140 89 q 264 43 200 43 q 326 47 294 43 q 378 60 358 51 l 378 6 m 172 842 l 79 1025 l 79 1032 l 124 1032 l 210 888 l 294 1032 l 339 1032 l 339 1025 l 246 842 l 172 842 z "},"ç":{"ha":418,"x_min":60,"x_max":378,"o":"m 264 43 q 326 47 294 43 q 378 60 358 51 l 378 6 q 320 -6 354 -1 q 256 -11 286 -11 q 228 -10 236 -11 l 171 -264 l 107 -264 l 107 -257 l 185 -4 q 103 50 129 10 q 68 159 76 90 q 60 353 60 228 q 76 581 60 504 q 132 688 92 657 q 251 719 172 719 q 316 715 281 719 q 374 704 351 711 l 374 650 q 261 665 324 665 q 169 641 199 665 q 130 553 140 617 q 119 356 119 489 q 130 153 119 217 q 170 66 140 89 q 264 43 200 43 z "},"ĉ":{"ha":418,"x_min":60,"x_max":378,"o":"m 378 6 q 320 -6 354 -1 q 256 -11 286 -11 q 126 24 167 -11 q 72 132 85 58 q 60 353 60 206 q 76 581 60 504 q 132 688 92 657 q 251 719 172 719 q 316 715 281 719 q 374 704 351 711 l 374 650 q 261 665 324 665 q 169 641 199 665 q 130 553 140 617 q 119 356 119 489 q 130 153 119 217 q 170 66 140 89 q 264 43 200 43 q 326 47 294 43 q 378 60 358 51 l 378 6 m 79 842 l 79 849 l 172 1032 l 246 1032 l 339 849 l 339 842 l 294 842 l 210 986 l 124 842 l 79 842 z "},"ċ":{"ha":418,"x_min":60,"x_max":378,"o":"m 378 6 q 320 -6 354 -1 q 256 -11 286 -11 q 126 24 167 -11 q 72 132 85 58 q 60 353 60 206 q 76 581 60 504 q 132 688 92 657 q 251 719 172 719 q 316 715 281 719 q 374 704 351 711 l 374 650 q 261 665 324 665 q 169 641 199 665 q 130 553 140 617 q 119 356 119 489 q 130 153 119 217 q 170 66 140 89 q 264 43 200 43 q 326 47 294 43 q 378 60 358 51 l 378 6 m 176 924 l 176 1014 l 242 1014 l 242 924 l 176 924 z "},"d":{"ha":538,"x_min":60,"x_max":457,"o":"m 244 -11 q 128 19 167 -11 q 74 124 89 49 q 60 354 60 200 q 74 584 60 508 q 127 690 89 660 q 244 719 165 719 q 342 696 307 719 q 390 618 376 672 l 397 618 l 397 1032 l 457 1032 l 457 0 l 408 0 l 403 103 l 396 103 q 342 12 381 35 q 244 -11 304 -11 m 260 43 q 343 67 313 43 q 383 144 374 92 q 394 238 392 189 q 397 372 397 288 q 385 551 397 489 q 342 639 372 613 q 254 665 311 665 q 166 644 193 665 q 129 560 139 622 q 119 354 119 497 q 129 149 119 211 q 167 65 139 86 q 260 43 196 43 z "},"ð":{"ha":524,"x_min":60,"x_max":463,"o":"m 261 -11 q 124 19 165 -11 q 72 120 83 49 q 60 353 60 192 q 72 588 60 517 q 124 690 83 660 q 257 719 164 719 q 376 672 338 719 l 382 675 q 313 896 353 810 l 183 875 l 183 925 l 290 940 q 236 1026 275 969 l 236 1032 l 301 1032 q 353 951 333 990 l 449 967 l 449 917 l 375 906 q 427 743 406 833 q 456 567 449 653 q 463 385 463 483 q 453 129 463 204 q 401 22 443 54 q 261 -11 360 -11 m 261 43 q 361 68 332 43 q 397 150 390 93 q 403 353 403 207 q 396 542 403 482 q 359 633 389 601 q 261 665 329 665 q 160 642 189 665 q 126 563 132 619 q 119 353 119 506 q 126 150 119 207 q 161 68 132 93 q 261 43 190 43 z "},"ď":{"ha":547,"x_min":60,"x_max":579,"o":"m 244 -11 q 128 19 167 -11 q 74 124 89 49 q 60 354 60 200 q 74 584 60 508 q 127 690 89 660 q 244 719 165 719 q 342 696 307 719 q 390 618 376 672 l 397 618 l 397 1032 l 457 1032 l 457 0 l 408 0 l 403 103 l 396 103 q 342 12 381 35 q 244 -11 304 -11 m 260 43 q 343 67 313 43 q 383 144 374 92 q 394 238 392 189 q 397 372 397 288 q 385 551 397 489 q 342 639 372 613 q 254 665 311 665 q 166 644 193 665 q 129 560 139 622 q 119 354 119 497 q 129 149 119 211 q 167 65 139 86 q 260 43 196 43 m 499 628 l 515 836 l 515 956 l 579 956 l 579 836 l 539 628 l 499 628 z "},"đ":{"ha":538,"x_min":60,"x_max":529,"o":"m 529 901 l 457 901 l 457 0 l 408 0 l 403 103 l 396 103 q 342 12 381 35 q 244 -11 304 -11 q 128 19 167 -11 q 74 124 89 49 q 60 354 60 200 q 74 584 60 508 q 127 690 89 660 q 244 719 165 719 q 342 696 307 719 q 390 618 376 672 l 397 618 l 397 901 l 240 901 l 240 956 l 397 956 l 397 1032 l 457 1032 l 457 956 l 529 956 l 529 901 m 383 144 q 394 238 392 189 q 397 372 397 288 q 385 551 397 489 q 342 639 372 613 q 254 665 311 665 q 166 644 193 665 q 129 560 139 622 q 119 354 119 497 q 129 149 119 211 q 167 65 139 86 q 260 43 196 43 q 343 67 313 43 q 383 144 374 92 z "},"ḍ":{"ha":538,"x_min":60,"x_max":457,"o":"m 244 -11 q 128 19 167 -11 q 74 124 89 49 q 60 354 60 200 q 74 584 60 508 q 127 690 89 660 q 244 719 165 719 q 342 696 307 719 q 390 618 376 672 l 397 618 l 397 1032 l 457 1032 l 457 0 l 408 0 l 403 103 l 396 103 q 342 12 381 35 q 244 -11 304 -11 m 260 43 q 343 67 313 43 q 383 144 374 92 q 394 238 392 189 q 397 372 397 288 q 385 551 397 489 q 342 639 372 613 q 254 665 311 665 q 166 644 193 665 q 129 560 139 622 q 119 354 119 497 q 129 149 119 211 q 167 65 139 86 q 260 43 196 43 m 232 -185 l 232 -86 l 304 -86 l 304 -185 l 232 -185 z "},"ǳ":{"ha":957,"x_min":60,"x_max":921,"o":"m 244 -11 q 128 19 167 -11 q 74 124 89 49 q 60 354 60 200 q 74 584 60 508 q 127 690 89 660 q 244 719 165 719 q 342 696 307 719 q 390 618 376 672 l 397 618 l 397 1032 l 457 1032 l 457 0 l 408 0 l 403 103 l 396 103 q 342 12 381 35 q 244 -11 304 -11 m 260 43 q 343 67 313 43 q 383 144 374 92 q 394 238 392 189 q 397 372 397 288 q 385 551 397 489 q 342 639 372 613 q 254 665 311 665 q 166 644 193 665 q 129 560 139 622 q 119 354 119 497 q 129 149 119 211 q 167 65 139 86 q 260 43 196 43 m 574 0 l 574 47 l 851 654 l 583 654 l 583 708 l 919 708 l 919 661 l 642 54 l 921 54 l 921 0 l 574 0 z "},"ǆ":{"ha":957,"x_min":60,"x_max":921,"o":"m 244 -11 q 128 19 167 -11 q 74 124 89 49 q 60 354 60 200 q 74 584 60 508 q 127 690 89 660 q 244 719 165 719 q 342 696 307 719 q 390 618 376 672 l 397 618 l 397 1032 l 457 1032 l 457 0 l 408 0 l 403 103 l 396 103 q 342 12 381 35 q 244 -11 304 -11 m 260 43 q 343 67 313 43 q 383 144 374 92 q 394 238 392 189 q 397 372 397 288 q 385 551 397 489 q 342 639 372 613 q 254 665 311 665 q 166 644 193 665 q 129 560 139 622 q 119 354 119 497 q 129 149 119 211 q 167 65 139 86 q 260 43 196 43 m 574 0 l 574 47 l 851 654 l 583 654 l 583 708 l 919 708 l 919 661 l 642 54 l 921 54 l 921 0 l 574 0 m 701 842 l 608 1025 l 608 1032 l 653 1032 l 739 888 l 824 1032 l 868 1032 l 868 1025 l 775 842 l 701 842 z "},"e":{"ha":510,"x_min":60,"x_max":449,"o":"m 449 335 l 119 335 q 130 149 119 207 q 172 67 140 90 q 276 43 204 43 q 358 48 314 43 q 433 61 401 53 l 433 7 q 358 -6 406 0 q 268 -11 311 -11 q 133 20 176 -11 q 74 126 89 51 q 60 353 60 200 q 71 581 60 510 q 125 685 82 651 q 265 719 168 719 q 390 688 351 719 q 438 585 428 657 q 449 356 449 514 l 449 335 m 263 665 q 167 646 196 665 q 129 570 139 626 q 119 385 119 514 l 390 385 l 390 413 q 379 579 390 526 q 342 649 368 632 q 263 665 317 665 z "},"é":{"ha":510,"x_min":60,"x_max":449,"o":"m 449 335 l 119 335 q 130 149 119 207 q 172 67 140 90 q 276 43 204 43 q 358 48 314 43 q 433 61 401 53 l 433 7 q 358 -6 406 0 q 268 -11 311 -11 q 133 20 176 -11 q 74 126 89 51 q 60 353 60 200 q 71 581 60 510 q 125 685 82 651 q 265 719 168 719 q 390 688 351 719 q 438 585 428 657 q 449 356 449 514 l 449 335 m 263 665 q 167 646 196 665 q 129 570 139 626 q 119 385 119 514 l 390 385 l 390 413 q 379 579 390 526 q 342 649 368 632 q 263 665 317 665 m 244 839 l 244 846 l 290 1032 l 357 1032 l 357 1025 l 286 839 l 244 839 z "},"ĕ":{"ha":510,"x_min":60,"x_max":449,"o":"m 449 335 l 119 335 q 130 149 119 207 q 172 67 140 90 q 276 43 204 43 q 358 48 314 43 q 433 61 401 53 l 433 7 q 358 -6 406 0 q 268 -11 311 -11 q 133 20 176 -11 q 74 126 89 51 q 60 353 60 200 q 71 581 60 510 q 125 685 82 651 q 265 719 168 719 q 390 688 351 719 q 438 585 428 657 q 449 356 449 514 l 449 335 m 263 665 q 167 646 196 665 q 129 570 139 626 q 119 385 119 514 l 390 385 l 390 413 q 379 579 390 526 q 342 649 368 632 q 263 665 317 665 m 385 1032 q 378 924 385 963 q 342 861 371 885 q 253 838 314 838 q 164 861 192 838 q 129 923 136 885 q 122 1032 122 961 l 174 1032 q 178 943 174 972 q 199 898 182 914 q 253 882 215 882 q 308 898 290 882 q 329 943 325 914 q 333 1032 333 972 l 385 1032 z "},"ě":{"ha":510,"x_min":60,"x_max":449,"o":"m 449 335 l 119 335 q 130 149 119 207 q 172 67 140 90 q 276 43 204 43 q 358 48 314 43 q 433 61 401 53 l 433 7 q 358 -6 406 0 q 268 -11 311 -11 q 133 20 176 -11 q 74 126 89 51 q 60 353 60 200 q 71 581 60 510 q 125 685 82 651 q 265 719 168 719 q 390 688 351 719 q 438 585 428 657 q 449 356 449 514 l 449 335 m 263 665 q 167 646 196 665 q 129 570 139 626 q 119 385 119 514 l 390 385 l 390 413 q 379 579 390 526 q 342 649 368 632 q 263 665 317 665 m 217 842 l 124 1025 l 124 1032 l 168 1032 l 254 888 l 339 1032 l 383 1032 l 383 1025 l 290 842 l 217 842 z "},"ê":{"ha":510,"x_min":60,"x_max":449,"o":"m 449 335 l 119 335 q 130 149 119 207 q 172 67 140 90 q 276 43 204 43 q 358 48 314 43 q 433 61 401 53 l 433 7 q 358 -6 406 0 q 268 -11 311 -11 q 133 20 176 -11 q 74 126 89 51 q 60 353 60 200 q 71 581 60 510 q 125 685 82 651 q 265 719 168 719 q 390 688 351 719 q 438 585 428 657 q 449 356 449 514 l 449 335 m 263 665 q 167 646 196 665 q 129 570 139 626 q 119 385 119 514 l 390 385 l 390 413 q 379 579 390 526 q 342 649 368 632 q 263 665 317 665 m 129 842 l 129 849 l 222 1032 l 296 1032 l 389 849 l 389 842 l 344 842 l 260 986 l 174 842 l 129 842 z "},"ế":{"ha":510,"x_min":60,"x_max":449,"o":"m 449 335 l 119 335 q 130 149 119 207 q 172 67 140 90 q 276 43 204 43 q 358 48 314 43 q 433 61 401 53 l 433 7 q 358 -6 406 0 q 268 -11 311 -11 q 133 20 176 -11 q 74 126 89 51 q 60 353 60 200 q 71 581 60 510 q 125 685 82 651 q 265 719 168 719 q 390 688 351 719 q 438 585 428 657 q 449 356 449 514 l 449 335 m 263 665 q 167 646 196 665 q 129 570 139 626 q 119 385 119 514 l 390 385 l 390 413 q 379 579 390 526 q 342 649 368 632 q 263 665 317 665 m 122 842 l 122 849 l 215 1032 l 289 1032 l 382 849 l 382 842 l 338 842 l 253 986 l 167 842 l 122 842 m 332 1035 l 332 1042 l 378 1228 l 444 1228 l 444 1221 l 374 1035 l 332 1035 z "},"ệ":{"ha":510,"x_min":60,"x_max":449,"o":"m 449 335 l 119 335 q 130 149 119 207 q 172 67 140 90 q 276 43 204 43 q 358 48 314 43 q 433 61 401 53 l 433 7 q 358 -6 406 0 q 268 -11 311 -11 q 133 20 176 -11 q 74 126 89 51 q 60 353 60 200 q 71 581 60 510 q 125 685 82 651 q 265 719 168 719 q 390 688 351 719 q 438 585 428 657 q 449 356 449 514 l 449 335 m 263 665 q 167 646 196 665 q 129 570 139 626 q 119 385 119 514 l 390 385 l 390 413 q 379 579 390 526 q 342 649 368 632 q 263 665 317 665 m 218 -185 l 218 -86 l 290 -86 l 290 -185 l 218 -185 m 124 842 l 124 849 l 217 1032 l 290 1032 l 383 849 l 383 842 l 339 842 l 254 986 l 168 842 l 124 842 z "},"ề":{"ha":510,"x_min":60,"x_max":449,"o":"m 449 335 l 119 335 q 130 149 119 207 q 172 67 140 90 q 276 43 204 43 q 358 48 314 43 q 433 61 401 53 l 433 7 q 358 -6 406 0 q 268 -11 311 -11 q 133 20 176 -11 q 74 126 89 51 q 60 353 60 200 q 71 581 60 510 q 125 685 82 651 q 265 719 168 719 q 390 688 351 719 q 438 585 428 657 q 449 356 449 514 l 449 335 m 263 665 q 167 646 196 665 q 129 570 139 626 q 119 385 119 514 l 390 385 l 390 413 q 379 579 390 526 q 342 649 368 632 q 263 665 317 665 m 122 842 l 122 849 l 215 1032 l 289 1032 l 382 849 l 382 842 l 338 842 l 253 986 l 167 842 l 122 842 m 333 1035 l 263 1221 l 263 1228 l 328 1228 l 375 1042 l 375 1035 l 333 1035 z "},"ể":{"ha":510,"x_min":60,"x_max":476,"o":"m 449 335 l 119 335 q 130 149 119 207 q 172 67 140 90 q 276 43 204 43 q 358 48 314 43 q 433 61 401 53 l 433 7 q 358 -6 406 0 q 268 -11 311 -11 q 133 20 176 -11 q 74 126 89 51 q 60 353 60 200 q 71 581 60 510 q 125 685 82 651 q 265 719 168 719 q 390 688 351 719 q 438 585 428 657 q 449 356 449 514 l 449 335 m 263 665 q 167 646 196 665 q 129 570 139 626 q 119 385 119 514 l 390 385 l 390 413 q 379 579 390 526 q 342 649 368 632 q 263 665 317 665 m 124 842 l 124 849 l 217 1032 l 290 1032 l 383 849 l 383 842 l 339 842 l 254 986 l 168 842 l 124 842 m 308 1047 q 319 1085 308 1074 q 357 1106 329 1096 l 372 1110 q 415 1131 403 1119 q 426 1169 426 1142 q 422 1201 426 1192 q 401 1215 418 1210 q 344 1219 383 1219 q 242 1214 325 1219 l 242 1256 q 353 1264 322 1264 q 451 1244 426 1264 q 476 1178 476 1225 q 467 1118 476 1138 q 422 1085 458 1099 l 410 1081 q 363 1061 371 1068 q 354 1033 354 1054 l 308 1033 l 308 1047 z "},"ễ":{"ha":510,"x_min":60,"x_max":449,"o":"m 449 335 l 119 335 q 130 149 119 207 q 172 67 140 90 q 276 43 204 43 q 358 48 314 43 q 433 61 401 53 l 433 7 q 358 -6 406 0 q 268 -11 311 -11 q 133 20 176 -11 q 74 126 89 51 q 60 353 60 200 q 71 581 60 510 q 125 685 82 651 q 265 719 168 719 q 390 688 351 719 q 438 585 428 657 q 449 356 449 514 l 449 335 m 263 665 q 167 646 196 665 q 129 570 139 626 q 119 385 119 514 l 390 385 l 390 413 q 379 579 390 526 q 342 649 368 632 q 263 665 317 665 m 121 842 l 121 849 l 214 1032 l 288 1032 l 381 849 l 381 842 l 336 842 l 251 986 l 165 842 l 121 842 m 415 1272 q 401 1165 415 1194 q 346 1136 388 1136 q 303 1145 325 1136 q 249 1171 281 1154 q 203 1196 222 1188 q 165 1204 183 1204 q 142 1186 147 1204 q 136 1121 136 1168 l 93 1121 q 107 1228 93 1199 q 163 1257 121 1257 q 209 1247 186 1257 q 264 1219 232 1238 q 310 1197 292 1204 q 343 1189 328 1189 q 367 1207 361 1189 q 372 1272 372 1225 l 415 1272 z "},"ȅ":{"ha":510,"x_min":60,"x_max":449,"o":"m 449 335 l 119 335 q 130 149 119 207 q 172 67 140 90 q 276 43 204 43 q 358 48 314 43 q 433 61 401 53 l 433 7 q 358 -6 406 0 q 268 -11 311 -11 q 133 20 176 -11 q 74 126 89 51 q 60 353 60 200 q 71 581 60 510 q 125 685 82 651 q 265 719 168 719 q 390 688 351 719 q 438 585 428 657 q 449 356 449 514 l 449 335 m 263 665 q 167 646 196 665 q 129 570 139 626 q 119 385 119 514 l 390 385 l 390 413 q 379 579 390 526 q 342 649 368 632 q 263 665 317 665 m 203 849 l 164 849 l 97 1007 l 97 1014 l 160 1014 l 203 856 l 203 849 m 346 849 l 306 849 l 240 1007 l 240 1014 l 303 1014 l 346 856 l 346 849 z "},"ë":{"ha":510,"x_min":60,"x_max":449,"o":"m 449 335 l 119 335 q 130 149 119 207 q 172 67 140 90 q 276 43 204 43 q 358 48 314 43 q 433 61 401 53 l 433 7 q 358 -6 406 0 q 268 -11 311 -11 q 133 20 176 -11 q 74 126 89 51 q 60 353 60 200 q 71 581 60 510 q 125 685 82 651 q 265 719 168 719 q 390 688 351 719 q 438 585 428 657 q 449 356 449 514 l 449 335 m 263 665 q 167 646 196 665 q 129 570 139 626 q 119 385 119 514 l 390 385 l 390 413 q 379 579 390 526 q 342 649 368 632 q 263 665 317 665 m 113 924 l 113 1014 l 178 1014 l 178 924 l 113 924 m 349 924 l 349 1014 l 414 1014 l 414 924 l 349 924 z "},"ė":{"ha":510,"x_min":60,"x_max":449,"o":"m 449 335 l 119 335 q 130 149 119 207 q 172 67 140 90 q 276 43 204 43 q 358 48 314 43 q 433 61 401 53 l 433 7 q 358 -6 406 0 q 268 -11 311 -11 q 133 20 176 -11 q 74 126 89 51 q 60 353 60 200 q 71 581 60 510 q 125 685 82 651 q 265 719 168 719 q 390 688 351 719 q 438 585 428 657 q 449 356 449 514 l 449 335 m 263 665 q 167 646 196 665 q 129 570 139 626 q 119 385 119 514 l 390 385 l 390 413 q 379 579 390 526 q 342 649 368 632 q 263 665 317 665 m 221 924 l 221 1014 l 286 1014 l 286 924 l 221 924 z "},"ẹ":{"ha":510,"x_min":60,"x_max":449,"o":"m 449 335 l 119 335 q 130 149 119 207 q 172 67 140 90 q 276 43 204 43 q 358 48 314 43 q 433 61 401 53 l 433 7 q 358 -6 406 0 q 268 -11 311 -11 q 133 20 176 -11 q 74 126 89 51 q 60 353 60 200 q 71 581 60 510 q 125 685 82 651 q 265 719 168 719 q 390 688 351 719 q 438 585 428 657 q 449 356 449 514 l 449 335 m 263 665 q 167 646 196 665 q 129 570 139 626 q 119 385 119 514 l 390 385 l 390 413 q 379 579 390 526 q 342 649 368 632 q 263 665 317 665 m 218 -185 l 218 -86 l 290 -86 l 290 -185 l 218 -185 z "},"è":{"ha":510,"x_min":60,"x_max":449,"o":"m 449 335 l 119 335 q 130 149 119 207 q 172 67 140 90 q 276 43 204 43 q 358 48 314 43 q 433 61 401 53 l 433 7 q 358 -6 406 0 q 268 -11 311 -11 q 133 20 176 -11 q 74 126 89 51 q 60 353 60 200 q 71 581 60 510 q 125 685 82 651 q 265 719 168 719 q 390 688 351 719 q 438 585 428 657 q 449 356 449 514 l 449 335 m 263 665 q 167 646 196 665 q 129 570 139 626 q 119 385 119 514 l 390 385 l 390 413 q 379 579 390 526 q 342 649 368 632 q 263 665 317 665 m 246 839 l 175 1025 l 175 1032 l 240 1032 l 288 846 l 288 839 l 246 839 z "},"ẻ":{"ha":510,"x_min":60,"x_max":449,"o":"m 449 335 l 119 335 q 130 149 119 207 q 172 67 140 90 q 276 43 204 43 q 358 48 314 43 q 433 61 401 53 l 433 7 q 358 -6 406 0 q 268 -11 311 -11 q 133 20 176 -11 q 74 126 89 51 q 60 353 60 200 q 71 581 60 510 q 125 685 82 651 q 265 719 168 719 q 390 688 351 719 q 438 585 428 657 q 449 356 449 514 l 449 335 m 263 665 q 167 646 196 665 q 129 570 139 626 q 119 385 119 514 l 390 385 l 390 413 q 379 579 390 526 q 342 649 368 632 q 263 665 317 665 m 203 863 q 213 900 203 889 q 251 921 224 911 l 267 925 q 309 946 297 935 q 321 985 321 957 q 317 1016 321 1007 q 295 1030 313 1025 q 239 1035 278 1035 q 136 1029 219 1035 l 136 1071 q 247 1079 217 1079 q 346 1060 321 1079 q 371 993 371 1040 q 362 933 371 953 q 317 900 353 914 l 304 896 q 257 876 265 883 q 249 849 249 869 l 203 849 l 203 863 z "},"ȇ":{"ha":510,"x_min":60,"x_max":449,"o":"m 449 335 l 119 335 q 130 149 119 207 q 172 67 140 90 q 276 43 204 43 q 358 48 314 43 q 433 61 401 53 l 433 7 q 358 -6 406 0 q 268 -11 311 -11 q 133 20 176 -11 q 74 126 89 51 q 60 353 60 200 q 71 581 60 510 q 125 685 82 651 q 265 719 168 719 q 390 688 351 719 q 438 585 428 657 q 449 356 449 514 l 449 335 m 263 665 q 167 646 196 665 q 129 570 139 626 q 119 385 119 514 l 390 385 l 390 413 q 379 579 390 526 q 342 649 368 632 q 263 665 317 665 m 122 846 q 129 954 122 915 q 165 1017 136 993 q 254 1040 193 1040 q 343 1017 315 1040 q 378 955 371 993 q 385 846 385 917 l 333 846 q 329 935 333 906 q 308 980 325 964 q 254 996 292 996 q 199 980 217 996 q 178 935 182 964 q 174 846 174 906 l 122 846 z "},"ē":{"ha":510,"x_min":60,"x_max":449,"o":"m 449 335 l 119 335 q 130 149 119 207 q 172 67 140 90 q 276 43 204 43 q 358 48 314 43 q 433 61 401 53 l 433 7 q 358 -6 406 0 q 268 -11 311 -11 q 133 20 176 -11 q 74 126 89 51 q 60 353 60 200 q 71 581 60 510 q 125 685 82 651 q 265 719 168 719 q 390 688 351 719 q 438 585 428 657 q 449 356 449 514 l 449 335 m 263 665 q 167 646 196 665 q 129 570 139 626 q 119 385 119 514 l 390 385 l 390 413 q 379 579 390 526 q 342 649 368 632 q 263 665 317 665 m 139 972 l 139 1032 l 369 1032 l 369 972 l 139 972 z "},"ę":{"ha":510,"x_min":60,"x_max":449,"o":"m 449 335 l 119 335 q 130 149 119 207 q 172 67 140 90 q 276 43 204 43 q 358 48 314 43 q 433 61 401 53 l 433 7 q 367 -70 399 -19 q 336 -161 336 -121 q 400 -224 336 -224 l 422 -222 l 422 -271 q 389 -272 410 -272 q 307 -244 333 -272 q 281 -174 281 -217 q 303 -86 281 -132 q 364 -4 326 -40 q 268 -11 315 -11 q 133 20 176 -11 q 74 126 89 51 q 60 353 60 200 q 71 581 60 510 q 125 685 82 651 q 265 719 168 719 q 390 688 351 719 q 438 585 428 657 q 449 356 449 514 l 449 335 m 263 665 q 167 646 196 665 q 129 570 139 626 q 119 385 119 514 l 390 385 l 390 413 q 379 579 390 526 q 342 649 368 632 q 263 665 317 665 z "},"ẽ":{"ha":510,"x_min":60,"x_max":449,"o":"m 449 335 l 119 335 q 130 149 119 207 q 172 67 140 90 q 276 43 204 43 q 358 48 314 43 q 433 61 401 53 l 433 7 q 358 -6 406 0 q 268 -11 311 -11 q 133 20 176 -11 q 74 126 89 51 q 60 353 60 200 q 71 581 60 510 q 125 685 82 651 q 265 719 168 719 q 390 688 351 719 q 438 585 428 657 q 449 356 449 514 l 449 335 m 263 665 q 167 646 196 665 q 129 570 139 626 q 119 385 119 514 l 390 385 l 390 413 q 379 579 390 526 q 342 649 368 632 q 263 665 317 665 m 415 1032 q 401 925 415 954 q 346 896 388 896 q 303 905 325 896 q 249 931 281 914 q 203 956 222 947 q 165 964 183 964 q 142 946 147 964 q 136 881 136 928 l 93 881 q 107 988 93 958 q 163 1017 121 1017 q 209 1007 186 1017 q 264 979 232 997 q 310 956 292 964 q 343 949 328 949 q 367 967 361 949 q 372 1032 372 985 l 415 1032 z "},"ə":{"ha":510,"x_min":61,"x_max":450,"o":"m 242 719 q 377 688 333 719 q 435 583 421 657 q 450 356 450 508 q 439 128 450 199 q 385 23 428 57 q 244 -11 342 -11 q 120 20 158 -11 q 72 123 82 51 q 61 353 61 194 l 61 374 l 390 374 q 380 560 390 501 q 338 642 369 618 q 233 665 306 665 q 152 660 196 665 q 76 647 108 656 l 76 701 q 151 714 104 708 q 242 719 199 719 m 247 43 q 342 63 314 43 q 381 138 371 82 q 390 324 390 194 l 119 324 l 119 296 q 131 129 119 182 q 167 60 142 76 q 247 43 193 43 z "},"f":{"ha":314,"x_min":26,"x_max":286,"o":"m 115 654 l 26 654 l 26 708 l 115 708 l 115 857 q 133 972 115 935 q 186 1020 151 1008 q 286 1032 221 1032 l 286 982 q 217 973 240 982 q 185 940 194 964 q 175 868 175 917 l 175 708 l 286 708 l 286 654 l 175 654 l 175 0 l 115 0 l 115 654 z "},"g":{"ha":538,"x_min":60,"x_max":457,"o":"m 231 -274 q 72 -268 178 -274 l 72 -214 q 224 -219 147 -219 q 338 -194 301 -219 q 385 -107 374 -168 q 397 82 397 -46 l 397 92 l 390 92 q 342 14 376 38 q 244 -10 307 -10 q 127 20 165 -10 q 74 126 89 50 q 60 356 60 201 q 74 585 60 510 q 127 690 89 660 q 244 719 165 719 q 342 697 304 719 q 396 606 381 674 l 403 606 l 408 708 l 457 708 l 457 111 q 441 -124 457 -44 q 377 -238 425 -203 q 231 -274 329 -274 m 260 44 q 342 70 313 44 q 383 151 372 96 q 397 356 397 219 q 386 549 397 493 q 344 638 374 611 q 260 665 314 665 q 167 644 196 665 q 129 560 139 622 q 119 356 119 499 q 129 150 119 213 q 167 66 139 88 q 260 44 196 44 z "},"ǵ":{"ha":538,"x_min":60,"x_max":457,"o":"m 231 -274 q 72 -268 178 -274 l 72 -214 q 224 -219 147 -219 q 338 -194 301 -219 q 385 -107 374 -168 q 397 82 397 -46 l 397 92 l 390 92 q 342 14 376 38 q 244 -10 307 -10 q 127 20 165 -10 q 74 126 89 50 q 60 356 60 201 q 74 585 60 510 q 127 690 89 660 q 244 719 165 719 q 342 697 304 719 q 396 606 381 674 l 403 606 l 408 708 l 457 708 l 457 111 q 441 -124 457 -44 q 377 -238 425 -203 q 231 -274 329 -274 m 260 44 q 342 70 313 44 q 383 151 372 96 q 397 356 397 219 q 386 549 397 493 q 344 638 374 611 q 260 665 314 665 q 167 644 196 665 q 129 560 139 622 q 119 356 119 499 q 129 150 119 213 q 167 66 139 88 q 260 44 196 44 m 242 839 l 242 846 l 288 1032 l 354 1032 l 354 1025 l 283 839 l 242 839 z "},"ğ":{"ha":538,"x_min":60,"x_max":457,"o":"m 231 -274 q 72 -268 178 -274 l 72 -214 q 224 -219 147 -219 q 338 -194 301 -219 q 385 -107 374 -168 q 397 82 397 -46 l 397 92 l 390 92 q 342 14 376 38 q 244 -10 307 -10 q 127 20 165 -10 q 74 126 89 50 q 60 356 60 201 q 74 585 60 510 q 127 690 89 660 q 244 719 165 719 q 342 697 304 719 q 396 606 381 674 l 403 606 l 408 708 l 457 708 l 457 111 q 441 -124 457 -44 q 377 -238 425 -203 q 231 -274 329 -274 m 260 44 q 342 70 313 44 q 383 151 372 96 q 397 356 397 219 q 386 549 397 493 q 344 638 374 611 q 260 665 314 665 q 167 644 196 665 q 129 560 139 622 q 119 356 119 499 q 129 150 119 213 q 167 66 139 88 q 260 44 196 44 m 399 1032 q 392 924 399 963 q 356 861 385 885 q 267 838 328 838 q 178 861 206 838 q 143 923 150 885 q 136 1032 136 961 l 188 1032 q 192 943 188 972 q 213 898 196 914 q 267 882 229 882 q 322 898 304 882 q 343 943 339 914 q 347 1032 347 972 l 399 1032 z "},"ǧ":{"ha":538,"x_min":60,"x_max":457,"o":"m 231 -274 q 72 -268 178 -274 l 72 -214 q 224 -219 147 -219 q 338 -194 301 -219 q 385 -107 374 -168 q 397 82 397 -46 l 397 92 l 390 92 q 342 14 376 38 q 244 -10 307 -10 q 127 20 165 -10 q 74 126 89 50 q 60 356 60 201 q 74 585 60 510 q 127 690 89 660 q 244 719 165 719 q 342 697 304 719 q 396 606 381 674 l 403 606 l 408 708 l 457 708 l 457 111 q 441 -124 457 -44 q 377 -238 425 -203 q 231 -274 329 -274 m 260 44 q 342 70 313 44 q 383 151 372 96 q 397 356 397 219 q 386 549 397 493 q 344 638 374 611 q 260 665 314 665 q 167 644 196 665 q 129 560 139 622 q 119 356 119 499 q 129 150 119 213 q 167 66 139 88 q 260 44 196 44 m 231 842 l 138 1025 l 138 1032 l 182 1032 l 268 888 l 353 1032 l 397 1032 l 397 1025 l 304 842 l 231 842 z "},"ĝ":{"ha":538,"x_min":60,"x_max":457,"o":"m 231 -274 q 72 -268 178 -274 l 72 -214 q 224 -219 147 -219 q 338 -194 301 -219 q 385 -107 374 -168 q 397 82 397 -46 l 397 92 l 390 92 q 342 14 376 38 q 244 -10 307 -10 q 127 20 165 -10 q 74 126 89 50 q 60 356 60 201 q 74 585 60 510 q 127 690 89 660 q 244 719 165 719 q 342 697 304 719 q 396 606 381 674 l 403 606 l 408 708 l 457 708 l 457 111 q 441 -124 457 -44 q 377 -238 425 -203 q 231 -274 329 -274 m 260 44 q 342 70 313 44 q 383 151 372 96 q 397 356 397 219 q 386 549 397 493 q 344 638 374 611 q 260 665 314 665 q 167 644 196 665 q 129 560 139 622 q 119 356 119 499 q 129 150 119 213 q 167 66 139 88 q 260 44 196 44 m 138 842 l 138 849 l 231 1032 l 304 1032 l 397 849 l 397 842 l 353 842 l 268 986 l 182 842 l 138 842 z "},"ģ":{"ha":538,"x_min":60,"x_max":457,"o":"m 231 -274 q 72 -268 178 -274 l 72 -214 q 224 -219 147 -219 q 338 -194 301 -219 q 385 -107 374 -168 q 397 82 397 -46 l 397 92 l 390 92 q 342 14 376 38 q 244 -10 307 -10 q 127 20 165 -10 q 74 126 89 50 q 60 356 60 201 q 74 585 60 510 q 127 690 89 660 q 244 719 165 719 q 342 697 304 719 q 396 606 381 674 l 403 606 l 408 708 l 457 708 l 457 111 q 441 -124 457 -44 q 377 -238 425 -203 q 231 -274 329 -274 m 260 44 q 342 70 313 44 q 383 151 372 96 q 397 356 397 219 q 386 549 397 493 q 344 638 374 611 q 260 665 314 665 q 167 644 196 665 q 129 560 139 622 q 119 356 119 499 q 129 150 119 213 q 167 66 139 88 q 260 44 196 44 m 336 1044 q 294 1037 307 1044 q 277 1013 281 1029 q 274 958 274 996 l 274 935 l 306 935 l 306 840 l 232 840 l 232 943 q 240 1027 232 999 q 270 1067 249 1056 q 336 1078 292 1078 l 336 1044 z "},"ġ":{"ha":538,"x_min":60,"x_max":457,"o":"m 231 -274 q 72 -268 178 -274 l 72 -214 q 224 -219 147 -219 q 338 -194 301 -219 q 385 -107 374 -168 q 397 82 397 -46 l 397 92 l 390 92 q 342 14 376 38 q 244 -10 307 -10 q 127 20 165 -10 q 74 126 89 50 q 60 356 60 201 q 74 585 60 510 q 127 690 89 660 q 244 719 165 719 q 342 697 304 719 q 396 606 381 674 l 403 606 l 408 708 l 457 708 l 457 111 q 441 -124 457 -44 q 377 -238 425 -203 q 231 -274 329 -274 m 260 44 q 342 70 313 44 q 383 151 372 96 q 397 356 397 219 q 386 549 397 493 q 344 638 374 611 q 260 665 314 665 q 167 644 196 665 q 129 560 139 622 q 119 356 119 499 q 129 150 119 213 q 167 66 139 88 q 260 44 196 44 m 235 924 l 235 1014 l 300 1014 l 300 924 l 235 924 z "},"h":{"ha":538,"x_min":81,"x_max":463,"o":"m 403 433 q 394 585 403 538 q 359 649 385 632 q 278 665 333 665 q 183 628 213 665 q 147 533 154 592 q 140 365 140 475 l 140 0 l 81 0 l 81 1032 l 140 1032 l 140 624 l 146 624 q 193 692 160 664 q 297 719 226 719 q 403 693 368 719 q 451 610 439 667 q 463 447 463 554 l 463 0 l 403 0 l 403 433 z "},"ħ":{"ha":538,"x_min":8,"x_max":463,"o":"m 297 719 q 403 693 368 719 q 451 610 439 667 q 463 447 463 554 l 463 0 l 403 0 l 403 433 q 394 585 403 538 q 359 649 385 632 q 278 665 333 665 q 183 628 213 665 q 147 533 154 592 q 140 365 140 475 l 140 0 l 81 0 l 81 901 l 8 901 l 8 956 l 81 956 l 81 1032 l 140 1032 l 140 956 l 297 956 l 297 901 l 140 901 l 140 624 l 146 624 q 193 692 160 664 q 297 719 226 719 z "},"ĥ":{"ha":538,"x_min":-19,"x_max":463,"o":"m 403 433 q 394 585 403 538 q 359 649 385 632 q 278 665 333 665 q 183 628 213 665 q 147 533 154 592 q 140 365 140 475 l 140 0 l 81 0 l 81 1032 l 140 1032 l 140 624 l 146 624 q 193 692 160 664 q 297 719 226 719 q 403 693 368 719 q 451 610 439 667 q 463 447 463 554 l 463 0 l 403 0 l 403 433 m -19 1089 l -19 1096 l 74 1279 l 147 1279 l 240 1096 l 240 1089 l 196 1089 l 111 1233 l 25 1089 l -19 1089 z "},"ḥ":{"ha":538,"x_min":81,"x_max":463,"o":"m 403 433 q 394 585 403 538 q 359 649 385 632 q 278 665 333 665 q 183 628 213 665 q 147 533 154 592 q 140 365 140 475 l 140 0 l 81 0 l 81 1032 l 140 1032 l 140 624 l 146 624 q 193 692 160 664 q 297 719 226 719 q 403 693 368 719 q 451 610 439 667 q 463 447 463 554 l 463 0 l 403 0 l 403 433 m 232 -185 l 232 -86 l 304 -86 l 304 -185 l 232 -185 z "},"i":{"ha":221,"x_min":78,"x_max":143,"o":"m 78 940 l 78 1032 l 143 1032 l 143 940 l 78 940 m 81 0 l 81 708 l 140 708 l 140 0 l 81 0 z "},"ı":{"ha":221,"x_min":81,"x_max":140,"o":"m 81 0 l 81 708 l 140 708 l 140 0 l 81 0 z "},"í":{"ha":221,"x_min":81,"x_max":193,"o":"m 81 0 l 81 708 l 140 708 l 140 0 l 81 0 m 81 839 l 81 846 l 126 1032 l 193 1032 l 193 1025 l 122 839 l 81 839 z "},"ĭ":{"ha":221,"x_min":-21,"x_max":242,"o":"m 81 0 l 81 708 l 140 708 l 140 0 l 81 0 m 242 1032 q 235 924 242 963 q 199 861 228 885 q 110 838 171 838 q 21 861 49 838 q -14 923 -7 885 q -21 1032 -21 961 l 31 1032 q 35 943 31 972 q 56 898 39 914 q 110 882 72 882 q 165 898 147 882 q 186 943 182 914 q 190 1032 190 972 l 242 1032 z "},"ǐ":{"ha":221,"x_min":-19,"x_max":240,"o":"m 81 0 l 81 708 l 140 708 l 140 0 l 81 0 m 74 842 l -19 1025 l -19 1032 l 25 1032 l 111 888 l 196 1032 l 240 1032 l 240 1025 l 147 842 l 74 842 z "},"î":{"ha":221,"x_min":-19,"x_max":240,"o":"m 81 0 l 81 708 l 140 708 l 140 0 l 81 0 m -19 842 l -19 849 l 74 1032 l 147 1032 l 240 849 l 240 842 l 196 842 l 111 986 l 25 842 l -19 842 z "},"ȉ":{"ha":221,"x_min":-46,"x_max":203,"o":"m 81 0 l 81 708 l 140 708 l 140 0 l 81 0 m 60 849 l 21 849 l -46 1007 l -46 1014 l 17 1014 l 60 856 l 60 849 m 203 849 l 163 849 l 97 1007 l 97 1014 l 160 1014 l 203 856 l 203 849 z "},"ï":{"ha":221,"x_min":-40,"x_max":261,"o":"m 81 0 l 81 708 l 140 708 l 140 0 l 81 0 m -40 924 l -40 1014 l 25 1014 l 25 924 l -40 924 m 196 924 l 196 1014 l 261 1014 l 261 924 l 196 924 z "},"ị":{"ha":221,"x_min":74,"x_max":146,"o":"m 78 940 l 78 1032 l 143 1032 l 143 940 l 78 940 m 81 0 l 81 708 l 140 708 l 140 0 l 81 0 m 74 -185 l 74 -86 l 146 -86 l 146 -185 l 74 -185 z "},"ì":{"ha":221,"x_min":28,"x_max":140,"o":"m 81 0 l 81 708 l 140 708 l 140 0 l 81 0 m 99 839 l 28 1025 l 28 1032 l 93 1032 l 140 846 l 140 839 l 99 839 z "},"ỉ":{"ha":221,"x_min":-7,"x_max":228,"o":"m 81 0 l 81 708 l 140 708 l 140 0 l 81 0 m 60 863 q 70 900 60 889 q 108 921 81 911 l 124 925 q 166 946 154 935 q 178 985 178 957 q 174 1016 178 1007 q 152 1030 169 1025 q 96 1035 135 1035 q -7 1029 76 1035 l -7 1071 q 104 1079 74 1079 q 203 1060 178 1079 q 228 993 228 1040 q 219 933 228 953 q 174 900 210 914 l 161 896 q 114 876 122 883 q 106 849 106 869 l 60 849 l 60 863 z "},"ȋ":{"ha":221,"x_min":-21,"x_max":242,"o":"m 81 0 l 81 708 l 140 708 l 140 0 l 81 0 m -21 846 q -14 954 -21 915 q 22 1017 -7 993 q 111 1040 50 1040 q 200 1017 172 1040 q 235 955 228 993 q 242 846 242 917 l 190 846 q 186 935 190 906 q 165 980 182 964 q 111 996 149 996 q 56 980 74 996 q 35 935 39 964 q 31 846 31 906 l -21 846 z "},"ĳ":{"ha":442,"x_min":78,"x_max":364,"o":"m 78 940 l 78 1032 l 143 1032 l 143 940 l 78 940 m 81 0 l 81 708 l 140 708 l 140 0 l 81 0 m 299 940 l 299 1032 l 364 1032 l 364 940 l 299 940 m 218 -215 q 274 -208 257 -215 q 297 -185 292 -201 q 301 -136 301 -169 l 301 708 l 361 708 l 361 -117 q 347 -217 361 -185 q 303 -257 332 -249 q 218 -265 275 -265 l 218 -215 z "},"ī":{"ha":221,"x_min":-4,"x_max":226,"o":"m 81 0 l 81 708 l 140 708 l 140 0 l 81 0 m -4 972 l -4 1032 l 226 1032 l 226 972 l -4 972 z "},"į":{"ha":221,"x_min":0,"x_max":143,"o":"m 78 1014 l 143 1014 l 143 924 l 78 924 l 78 1014 m 54 -160 q 118 -224 54 -224 l 142 -222 l 142 -271 q 108 -272 129 -272 q 26 -244 53 -272 q 0 -171 0 -217 q 24 -84 0 -131 q 85 0 47 -37 l 81 0 l 81 708 l 140 708 l 140 0 q 82 -74 110 -25 q 54 -160 54 -122 z "},"ĩ":{"ha":221,"x_min":-50,"x_max":272,"o":"m 81 0 l 81 708 l 140 708 l 140 0 l 81 0 m 272 1032 q 258 925 272 954 q 203 896 244 896 q 160 905 182 896 q 106 931 138 914 q 60 956 79 947 q 22 964 40 964 q -1 946 4 964 q -7 881 -7 928 l -50 881 q -36 988 -50 958 q 19 1017 -22 1017 q 66 1007 43 1017 q 121 979 89 997 q 167 956 149 964 q 200 949 185 949 q 224 967 218 949 q 229 1032 229 985 l 272 1032 z "},"j":{"ha":221,"x_min":-3,"x_max":143,"o":"m 78 940 l 78 1032 l 143 1032 l 143 940 l 78 940 m -3 -215 q 53 -208 36 -215 q 76 -185 71 -201 q 81 -136 81 -169 l 81 708 l 140 708 l 140 -117 q 126 -217 140 -185 q 83 -257 111 -249 q -3 -265 54 -265 l -3 -215 z "},"ȷ":{"ha":221,"x_min":-3,"x_max":140,"o":"m -3 -215 q 53 -208 36 -215 q 76 -185 71 -201 q 81 -136 81 -169 l 81 708 l 140 708 l 140 -117 q 126 -217 140 -185 q 83 -257 111 -249 q -3 -265 54 -265 l -3 -215 z "},"ĵ":{"ha":221,"x_min":-19,"x_max":240,"o":"m -3 -215 q 53 -208 36 -215 q 76 -185 71 -201 q 81 -136 81 -169 l 81 708 l 140 708 l 140 -117 q 126 -217 140 -185 q 83 -257 111 -249 q -3 -265 54 -265 l -3 -215 m -19 842 l -19 849 l 74 1032 l 147 1032 l 240 849 l 240 842 l 196 842 l 111 986 l 25 842 l -19 842 z "},"k":{"ha":469,"x_min":81,"x_max":446,"o":"m 379 0 l 221 332 l 140 332 l 140 0 l 81 0 l 81 1032 l 140 1032 l 140 389 l 221 389 l 375 708 l 440 708 l 269 365 l 446 0 l 379 0 z "},"ķ":{"ha":469,"x_min":81,"x_max":446,"o":"m 379 0 l 221 332 l 140 332 l 140 0 l 81 0 l 81 1032 l 140 1032 l 140 389 l 221 389 l 375 708 l 440 708 l 269 365 l 446 0 l 379 0 m 182 -289 q 224 -282 211 -289 q 241 -258 238 -275 q 244 -204 244 -242 l 244 -181 l 213 -181 l 213 -86 l 286 -86 l 286 -189 q 278 -272 286 -244 q 248 -312 269 -300 q 182 -324 226 -324 l 182 -289 z "},"ĸ":{"ha":469,"x_min":81,"x_max":446,"o":"m 379 0 l 221 332 l 140 332 l 140 0 l 81 0 l 81 708 l 140 708 l 140 389 l 221 389 l 375 708 l 440 708 l 269 365 l 446 0 l 379 0 z "},"l":{"ha":221,"x_min":81,"x_max":140,"o":"m 81 0 l 81 1032 l 140 1032 l 140 0 l 81 0 z "},"ĺ":{"ha":221,"x_min":81,"x_max":197,"o":"m 81 0 l 81 1032 l 140 1032 l 140 0 l 81 0 m 85 1086 l 85 1093 l 131 1279 l 197 1279 l 197 1272 l 126 1086 l 85 1086 z "},"ľ":{"ha":232,"x_min":81,"x_max":263,"o":"m 81 0 l 81 1032 l 140 1032 l 140 0 l 81 0 m 182 628 l 199 836 l 199 956 l 263 956 l 263 836 l 222 628 l 182 628 z "},"ļ":{"ha":221,"x_min":58,"x_max":163,"o":"m 81 0 l 81 1032 l 140 1032 l 140 0 l 81 0 m 58 -289 q 101 -282 88 -289 q 117 -258 114 -275 q 121 -204 121 -242 l 121 -181 l 89 -181 l 89 -86 l 163 -86 l 163 -189 q 154 -272 163 -244 q 124 -312 146 -300 q 58 -324 103 -324 l 58 -289 z "},"ŀ":{"ha":282,"x_min":81,"x_max":283,"o":"m 81 0 l 81 1032 l 140 1032 l 140 0 l 81 0 m 211 367 l 211 465 l 283 465 l 283 367 l 211 367 z "},"ǉ":{"ha":442,"x_min":81,"x_max":364,"o":"m 81 0 l 81 1032 l 140 1032 l 140 0 l 81 0 m 299 940 l 299 1032 l 364 1032 l 364 940 l 299 940 m 218 -215 q 274 -208 257 -215 q 297 -185 292 -201 q 301 -136 301 -169 l 301 708 l 361 708 l 361 -117 q 347 -217 361 -185 q 303 -257 332 -249 q 218 -265 275 -265 l 218 -215 z "},"ł":{"ha":228,"x_min":15,"x_max":213,"o":"m 81 0 l 81 451 l 15 428 l 15 486 l 81 510 l 81 1032 l 140 1032 l 140 531 l 213 556 l 213 497 l 140 472 l 140 0 l 81 0 z "},"m":{"ha":842,"x_min":81,"x_max":767,"o":"m 707 433 q 699 585 707 539 q 667 649 690 632 q 590 665 643 665 q 496 631 525 665 q 460 540 467 597 q 453 365 453 482 l 453 0 l 393 0 l 393 433 q 385 585 393 538 q 353 649 376 632 q 279 665 331 665 q 184 628 214 665 q 147 533 154 592 q 140 365 140 474 l 140 0 l 81 0 l 81 708 l 129 708 l 135 606 l 142 606 q 187 688 153 657 q 292 719 221 719 q 399 694 365 719 q 443 606 432 668 l 451 606 q 604 719 475 719 q 708 693 674 719 q 755 610 743 667 q 767 449 767 554 l 767 0 l 707 0 l 707 433 z "},"n":{"ha":538,"x_min":81,"x_max":463,"o":"m 403 433 q 394 585 403 538 q 359 649 385 632 q 278 665 333 665 q 183 628 213 665 q 147 533 154 592 q 140 365 140 475 l 140 0 l 81 0 l 81 708 l 129 708 l 135 606 l 140 606 q 189 689 154 658 q 297 719 224 719 q 403 693 368 719 q 451 610 439 667 q 463 447 463 554 l 463 0 l 403 0 l 403 433 z "},"ń":{"ha":538,"x_min":81,"x_max":463,"o":"m 403 433 q 394 585 403 538 q 359 649 385 632 q 278 665 333 665 q 183 628 213 665 q 147 533 154 592 q 140 365 140 475 l 140 0 l 81 0 l 81 708 l 129 708 l 135 606 l 140 606 q 189 689 154 658 q 297 719 224 719 q 403 693 368 719 q 451 610 439 667 q 463 447 463 554 l 463 0 l 403 0 l 403 433 m 242 839 l 242 846 l 288 1032 l 354 1032 l 354 1025 l 283 839 l 242 839 z "},"ŉ":{"ha":551,"x_min":6,"x_max":476,"o":"m 6 826 q 48 834 35 826 q 65 859 61 842 q 68 914 68 876 l 68 938 l 36 938 l 36 1032 l 110 1032 l 110 929 q 101 844 110 872 q 72 803 93 815 q 6 792 50 792 l 6 826 m 417 433 q 408 585 417 538 q 373 649 399 632 q 292 665 347 665 q 197 628 226 665 q 161 533 168 592 q 154 365 154 475 l 154 0 l 94 0 l 94 708 l 143 708 l 149 606 l 154 606 q 203 689 168 658 q 311 719 238 719 q 417 693 382 719 q 465 610 453 667 q 476 447 476 554 l 476 0 l 417 0 l 417 433 z "},"ň":{"ha":538,"x_min":81,"x_max":463,"o":"m 403 433 q 394 585 403 538 q 359 649 385 632 q 278 665 333 665 q 183 628 213 665 q 147 533 154 592 q 140 365 140 475 l 140 0 l 81 0 l 81 708 l 129 708 l 135 606 l 140 606 q 189 689 154 658 q 297 719 224 719 q 403 693 368 719 q 451 610 439 667 q 463 447 463 554 l 463 0 l 403 0 l 403 433 m 231 842 l 138 1025 l 138 1032 l 182 1032 l 268 888 l 353 1032 l 397 1032 l 397 1025 l 304 842 l 231 842 z "},"ņ":{"ha":538,"x_min":81,"x_max":463,"o":"m 403 433 q 394 585 403 538 q 359 649 385 632 q 278 665 333 665 q 183 628 213 665 q 147 533 154 592 q 140 365 140 475 l 140 0 l 81 0 l 81 708 l 129 708 l 135 606 l 140 606 q 189 689 154 658 q 297 719 224 719 q 403 693 368 719 q 451 610 439 667 q 463 447 463 554 l 463 0 l 403 0 l 403 433 m 215 -289 q 258 -282 244 -289 q 274 -258 271 -275 q 278 -204 278 -242 l 278 -181 l 246 -181 l 246 -86 l 319 -86 l 319 -189 q 311 -272 319 -244 q 281 -312 303 -300 q 215 -324 260 -324 l 215 -289 z "},"ṅ":{"ha":538,"x_min":81,"x_max":463,"o":"m 403 433 q 394 585 403 538 q 359 649 385 632 q 278 665 333 665 q 183 628 213 665 q 147 533 154 592 q 140 365 140 475 l 140 0 l 81 0 l 81 708 l 129 708 l 135 606 l 140 606 q 189 689 154 658 q 297 719 224 719 q 403 693 368 719 q 451 610 439 667 q 463 447 463 554 l 463 0 l 403 0 l 403 433 m 235 924 l 235 1014 l 300 1014 l 300 924 l 235 924 z "},"ŋ":{"ha":538,"x_min":81,"x_max":463,"o":"m 297 719 q 403 693 368 719 q 451 610 439 667 q 463 447 463 554 l 463 -117 q 448 -217 463 -185 q 405 -257 433 -249 q 319 -265 376 -265 l 319 -215 q 376 -208 358 -215 q 398 -185 393 -201 q 403 -136 403 -169 l 403 433 q 394 585 403 538 q 359 649 385 632 q 278 665 333 665 q 183 628 213 665 q 147 533 154 592 q 140 365 140 475 l 140 0 l 81 0 l 81 708 l 129 708 l 135 606 l 140 606 q 189 689 154 658 q 297 719 224 719 z "},"ɲ":{"ha":538,"x_min":-3,"x_max":463,"o":"m -3 -215 q 53 -208 36 -215 q 76 -185 71 -201 q 81 -136 81 -169 l 81 708 l 129 708 l 135 606 l 140 606 q 189 689 154 658 q 297 719 224 719 q 403 693 368 719 q 451 610 439 667 q 463 447 463 554 l 463 0 l 403 0 l 403 433 q 394 585 403 538 q 359 649 385 632 q 278 665 333 665 q 183 629 213 665 q 147 535 154 593 q 140 367 140 476 l 140 -117 q 126 -217 140 -185 q 83 -257 111 -249 q -3 -265 54 -265 l -3 -215 z "},"ǌ":{"ha":758,"x_min":81,"x_max":681,"o":"m 403 433 q 394 585 403 538 q 359 649 385 632 q 278 665 333 665 q 183 628 213 665 q 147 533 154 592 q 140 365 140 475 l 140 0 l 81 0 l 81 708 l 129 708 l 135 606 l 140 606 q 189 689 154 658 q 297 719 224 719 q 403 693 368 719 q 451 610 439 667 q 463 447 463 554 l 463 0 l 403 0 l 403 433 m 615 940 l 615 1032 l 681 1032 l 681 940 l 615 940 m 535 -215 q 591 -208 574 -215 q 613 -185 608 -201 q 618 -136 618 -169 l 618 708 l 678 708 l 678 -117 q 663 -217 678 -185 q 620 -257 649 -249 q 535 -265 592 -265 l 535 -215 z "},"ñ":{"ha":538,"x_min":81,"x_max":463,"o":"m 403 433 q 394 585 403 538 q 359 649 385 632 q 278 665 333 665 q 183 628 213 665 q 147 533 154 592 q 140 365 140 475 l 140 0 l 81 0 l 81 708 l 129 708 l 135 606 l 140 606 q 189 689 154 658 q 297 719 224 719 q 403 693 368 719 q 451 610 439 667 q 463 447 463 554 l 463 0 l 403 0 l 403 433 m 438 1032 q 424 925 438 954 q 368 896 410 896 q 325 905 347 896 q 271 931 303 914 q 225 956 244 947 q 188 964 206 964 q 164 946 169 964 q 158 881 158 928 l 115 881 q 129 988 115 958 q 185 1017 143 1017 q 231 1007 208 1017 q 286 979 254 997 q 332 956 314 964 q 365 949 350 949 q 389 967 383 949 q 394 1032 394 985 l 438 1032 z "},"o":{"ha":524,"x_min":60,"x_max":463,"o":"m 261 -11 q 126 17 168 -11 q 72 118 85 46 q 60 353 60 190 q 72 588 60 515 q 126 690 85 661 q 261 719 168 719 q 396 690 354 719 q 450 588 438 661 q 463 353 463 515 q 450 118 463 190 q 396 17 438 46 q 261 -11 354 -11 m 261 43 q 359 65 331 43 q 395 147 388 88 q 403 353 403 207 q 395 560 403 500 q 359 642 388 619 q 261 665 331 665 q 165 642 193 665 q 128 559 136 619 q 119 353 119 499 q 128 147 119 207 q 165 65 136 88 q 261 43 193 43 z "},"ó":{"ha":524,"x_min":60,"x_max":463,"o":"m 261 -11 q 126 17 168 -11 q 72 118 85 46 q 60 353 60 190 q 72 588 60 515 q 126 690 85 661 q 261 719 168 719 q 396 690 354 719 q 450 588 438 661 q 463 353 463 515 q 450 118 463 190 q 396 17 438 46 q 261 -11 354 -11 m 261 43 q 359 65 331 43 q 395 147 388 88 q 403 353 403 207 q 395 560 403 500 q 359 642 388 619 q 261 665 331 665 q 165 642 193 665 q 128 559 136 619 q 119 353 119 499 q 128 147 119 207 q 165 65 136 88 q 261 43 193 43 m 225 839 l 225 846 l 271 1032 l 338 1032 l 338 1025 l 267 839 l 225 839 z "},"ŏ":{"ha":524,"x_min":60,"x_max":463,"o":"m 261 -11 q 126 17 168 -11 q 72 118 85 46 q 60 353 60 190 q 72 588 60 515 q 126 690 85 661 q 261 719 168 719 q 396 690 354 719 q 450 588 438 661 q 463 353 463 515 q 450 118 463 190 q 396 17 438 46 q 261 -11 354 -11 m 261 43 q 359 65 331 43 q 395 147 388 88 q 403 353 403 207 q 395 560 403 500 q 359 642 388 619 q 261 665 331 665 q 165 642 193 665 q 128 559 136 619 q 119 353 119 499 q 128 147 119 207 q 165 65 136 88 q 261 43 193 43 m 392 1032 q 385 924 392 963 q 349 861 378 885 q 260 838 321 838 q 171 861 199 838 q 136 923 143 885 q 129 1032 129 961 l 181 1032 q 185 943 181 972 q 206 898 189 914 q 260 882 222 882 q 315 898 297 882 q 336 943 332 914 q 340 1032 340 972 l 392 1032 z "},"ǒ":{"ha":524,"x_min":60,"x_max":463,"o":"m 261 -11 q 126 17 168 -11 q 72 118 85 46 q 60 353 60 190 q 72 588 60 515 q 126 690 85 661 q 261 719 168 719 q 396 690 354 719 q 450 588 438 661 q 463 353 463 515 q 450 118 463 190 q 396 17 438 46 q 261 -11 354 -11 m 261 43 q 359 65 331 43 q 395 147 388 88 q 403 353 403 207 q 395 560 403 500 q 359 642 388 619 q 261 665 331 665 q 165 642 193 665 q 128 559 136 619 q 119 353 119 499 q 128 147 119 207 q 165 65 136 88 q 261 43 193 43 m 224 842 l 131 1025 l 131 1032 l 175 1032 l 261 888 l 346 1032 l 390 1032 l 390 1025 l 297 842 l 224 842 z "},"ô":{"ha":524,"x_min":60,"x_max":463,"o":"m 261 -11 q 126 17 168 -11 q 72 118 85 46 q 60 353 60 190 q 72 588 60 515 q 126 690 85 661 q 261 719 168 719 q 396 690 354 719 q 450 588 438 661 q 463 353 463 515 q 450 118 463 190 q 396 17 438 46 q 261 -11 354 -11 m 261 43 q 359 65 331 43 q 395 147 388 88 q 403 353 403 207 q 395 560 403 500 q 359 642 388 619 q 261 665 331 665 q 165 642 193 665 q 128 559 136 619 q 119 353 119 499 q 128 147 119 207 q 165 65 136 88 q 261 43 193 43 m 135 842 l 135 849 l 228 1032 l 301 1032 l 394 849 l 394 842 l 350 842 l 265 986 l 179 842 l 135 842 z "},"ố":{"ha":524,"x_min":60,"x_max":463,"o":"m 261 -11 q 126 17 168 -11 q 72 118 85 46 q 60 353 60 190 q 72 588 60 515 q 126 690 85 661 q 261 719 168 719 q 396 690 354 719 q 450 588 438 661 q 463 353 463 515 q 450 118 463 190 q 396 17 438 46 q 261 -11 354 -11 m 261 43 q 359 65 331 43 q 395 147 388 88 q 403 353 403 207 q 395 560 403 500 q 359 642 388 619 q 261 665 331 665 q 165 642 193 665 q 128 559 136 619 q 119 353 119 499 q 128 147 119 207 q 165 65 136 88 q 261 43 193 43 m 129 842 l 129 849 l 222 1032 l 296 1032 l 389 849 l 389 842 l 344 842 l 260 986 l 174 842 l 129 842 m 339 1035 l 339 1042 l 385 1228 l 451 1228 l 451 1221 l 381 1035 l 339 1035 z "},"ộ":{"ha":524,"x_min":60,"x_max":463,"o":"m 261 -11 q 126 17 168 -11 q 72 118 85 46 q 60 353 60 190 q 72 588 60 515 q 126 690 85 661 q 261 719 168 719 q 396 690 354 719 q 450 588 438 661 q 463 353 463 515 q 450 118 463 190 q 396 17 438 46 q 261 -11 354 -11 m 261 43 q 359 65 331 43 q 395 147 388 88 q 403 353 403 207 q 395 560 403 500 q 359 642 388 619 q 261 665 331 665 q 165 642 193 665 q 128 559 136 619 q 119 353 119 499 q 128 147 119 207 q 165 65 136 88 q 261 43 193 43 m 225 -185 l 225 -86 l 297 -86 l 297 -185 l 225 -185 m 131 842 l 131 849 l 224 1032 l 297 1032 l 390 849 l 390 842 l 346 842 l 261 986 l 175 842 l 131 842 z "},"ồ":{"ha":524,"x_min":60,"x_max":463,"o":"m 261 -11 q 126 17 168 -11 q 72 118 85 46 q 60 353 60 190 q 72 588 60 515 q 126 690 85 661 q 261 719 168 719 q 396 690 354 719 q 450 588 438 661 q 463 353 463 515 q 450 118 463 190 q 396 17 438 46 q 261 -11 354 -11 m 261 43 q 359 65 331 43 q 395 147 388 88 q 403 353 403 207 q 395 560 403 500 q 359 642 388 619 q 261 665 331 665 q 165 642 193 665 q 128 559 136 619 q 119 353 119 499 q 128 147 119 207 q 165 65 136 88 q 261 43 193 43 m 129 842 l 129 849 l 222 1032 l 296 1032 l 389 849 l 389 842 l 344 842 l 260 986 l 174 842 l 129 842 m 340 1035 l 269 1221 l 269 1228 l 335 1228 l 382 1042 l 382 1035 l 340 1035 z "},"ổ":{"ha":524,"x_min":60,"x_max":483,"o":"m 261 -11 q 126 17 168 -11 q 72 118 85 46 q 60 353 60 190 q 72 588 60 515 q 126 690 85 661 q 261 719 168 719 q 396 690 354 719 q 450 588 438 661 q 463 353 463 515 q 450 118 463 190 q 396 17 438 46 q 261 -11 354 -11 m 261 43 q 359 65 331 43 q 395 147 388 88 q 403 353 403 207 q 395 560 403 500 q 359 642 388 619 q 261 665 331 665 q 165 642 193 665 q 128 559 136 619 q 119 353 119 499 q 128 147 119 207 q 165 65 136 88 q 261 43 193 43 m 131 842 l 131 849 l 224 1032 l 297 1032 l 390 849 l 390 842 l 346 842 l 261 986 l 175 842 l 131 842 m 315 1047 q 326 1085 315 1074 q 364 1106 336 1096 l 379 1110 q 422 1131 410 1119 q 433 1169 433 1142 q 429 1201 433 1192 q 408 1215 425 1210 q 351 1219 390 1219 q 249 1214 332 1219 l 249 1256 q 360 1264 329 1264 q 458 1244 433 1264 q 483 1178 483 1225 q 474 1118 483 1138 q 429 1085 465 1099 l 417 1081 q 369 1061 378 1068 q 361 1033 361 1054 l 315 1033 l 315 1047 z "},"ỗ":{"ha":524,"x_min":60,"x_max":463,"o":"m 261 -11 q 126 17 168 -11 q 72 118 85 46 q 60 353 60 190 q 72 588 60 515 q 126 690 85 661 q 261 719 168 719 q 396 690 354 719 q 450 588 438 661 q 463 353 463 515 q 450 118 463 190 q 396 17 438 46 q 261 -11 354 -11 m 261 43 q 359 65 331 43 q 395 147 388 88 q 403 353 403 207 q 395 560 403 500 q 359 642 388 619 q 261 665 331 665 q 165 642 193 665 q 128 559 136 619 q 119 353 119 499 q 128 147 119 207 q 165 65 136 88 q 261 43 193 43 m 128 842 l 128 849 l 221 1032 l 294 1032 l 388 849 l 388 842 l 343 842 l 258 986 l 172 842 l 128 842 m 422 1272 q 408 1165 422 1194 q 353 1136 394 1136 q 310 1145 332 1136 q 256 1171 288 1154 q 210 1196 229 1188 q 172 1204 190 1204 q 149 1186 154 1204 q 143 1121 143 1168 l 100 1121 q 114 1228 100 1199 q 169 1257 128 1257 q 216 1247 193 1257 q 271 1219 239 1238 q 317 1197 299 1204 q 350 1189 335 1189 q 374 1207 368 1189 q 379 1272 379 1225 l 422 1272 z "},"ȍ":{"ha":524,"x_min":60,"x_max":463,"o":"m 261 -11 q 126 17 168 -11 q 72 118 85 46 q 60 353 60 190 q 72 588 60 515 q 126 690 85 661 q 261 719 168 719 q 396 690 354 719 q 450 588 438 661 q 463 353 463 515 q 450 118 463 190 q 396 17 438 46 q 261 -11 354 -11 m 261 43 q 359 65 331 43 q 395 147 388 88 q 403 353 403 207 q 395 560 403 500 q 359 642 388 619 q 261 665 331 665 q 165 642 193 665 q 128 559 136 619 q 119 353 119 499 q 128 147 119 207 q 165 65 136 88 q 261 43 193 43 m 210 849 l 171 849 l 104 1007 l 104 1014 l 167 1014 l 210 856 l 210 849 m 353 849 l 313 849 l 247 1007 l 247 1014 l 310 1014 l 353 856 l 353 849 z "},"ö":{"ha":524,"x_min":60,"x_max":463,"o":"m 261 -11 q 126 17 168 -11 q 72 118 85 46 q 60 353 60 190 q 72 588 60 515 q 126 690 85 661 q 261 719 168 719 q 396 690 354 719 q 450 588 438 661 q 463 353 463 515 q 450 118 463 190 q 396 17 438 46 q 261 -11 354 -11 m 261 43 q 359 65 331 43 q 395 147 388 88 q 403 353 403 207 q 395 560 403 500 q 359 642 388 619 q 261 665 331 665 q 165 642 193 665 q 128 559 136 619 q 119 353 119 499 q 128 147 119 207 q 165 65 136 88 q 261 43 193 43 m 114 924 l 114 1014 l 179 1014 l 179 924 l 114 924 m 350 924 l 350 1014 l 415 1014 l 415 924 l 350 924 z "},"ọ":{"ha":524,"x_min":60,"x_max":463,"o":"m 261 -11 q 126 17 168 -11 q 72 118 85 46 q 60 353 60 190 q 72 588 60 515 q 126 690 85 661 q 261 719 168 719 q 396 690 354 719 q 450 588 438 661 q 463 353 463 515 q 450 118 463 190 q 396 17 438 46 q 261 -11 354 -11 m 261 43 q 359 65 331 43 q 395 147 388 88 q 403 353 403 207 q 395 560 403 500 q 359 642 388 619 q 261 665 331 665 q 165 642 193 665 q 128 559 136 619 q 119 353 119 499 q 128 147 119 207 q 165 65 136 88 q 261 43 193 43 m 225 -185 l 225 -86 l 297 -86 l 297 -185 l 225 -185 z "},"ò":{"ha":524,"x_min":60,"x_max":463,"o":"m 261 -11 q 126 17 168 -11 q 72 118 85 46 q 60 353 60 190 q 72 588 60 515 q 126 690 85 661 q 261 719 168 719 q 396 690 354 719 q 450 588 438 661 q 463 353 463 515 q 450 118 463 190 q 396 17 438 46 q 261 -11 354 -11 m 261 43 q 359 65 331 43 q 395 147 388 88 q 403 353 403 207 q 395 560 403 500 q 359 642 388 619 q 261 665 331 665 q 165 642 193 665 q 128 559 136 619 q 119 353 119 499 q 128 147 119 207 q 165 65 136 88 q 261 43 193 43 m 247 839 l 176 1025 l 176 1032 l 242 1032 l 289 846 l 289 839 l 247 839 z "},"ỏ":{"ha":524,"x_min":60,"x_max":463,"o":"m 261 -11 q 126 17 168 -11 q 72 118 85 46 q 60 353 60 190 q 72 588 60 515 q 126 690 85 661 q 261 719 168 719 q 396 690 354 719 q 450 588 438 661 q 463 353 463 515 q 450 118 463 190 q 396 17 438 46 q 261 -11 354 -11 m 261 43 q 359 65 331 43 q 395 147 388 88 q 403 353 403 207 q 395 560 403 500 q 359 642 388 619 q 261 665 331 665 q 165 642 193 665 q 128 559 136 619 q 119 353 119 499 q 128 147 119 207 q 165 65 136 88 q 261 43 193 43 m 210 863 q 220 900 210 889 q 258 921 231 911 l 274 925 q 316 946 304 935 q 328 985 328 957 q 324 1016 328 1007 q 302 1030 319 1025 q 246 1035 285 1035 q 143 1029 226 1035 l 143 1071 q 254 1079 224 1079 q 353 1060 328 1079 q 378 993 378 1040 q 369 933 378 953 q 324 900 360 914 l 311 896 q 264 876 272 883 q 256 849 256 869 l 210 849 l 210 863 z "},"ơ":{"ha":524,"x_min":60,"x_max":525,"o":"m 525 843 l 525 797 q 517 717 525 744 q 486 678 508 689 q 421 665 464 667 q 454 559 446 629 q 463 353 463 489 q 450 118 463 190 q 396 17 438 46 q 261 -11 354 -11 q 126 17 168 -11 q 72 118 85 46 q 60 353 60 190 q 72 588 60 515 q 126 690 85 661 q 261 719 168 719 q 358 708 325 719 l 413 708 q 455 716 442 708 q 472 739 468 724 q 475 786 475 754 l 475 843 l 525 843 m 261 43 q 359 65 331 43 q 395 147 388 88 q 403 353 403 207 q 395 560 403 500 q 359 642 388 619 q 261 665 331 665 q 165 642 193 665 q 128 559 136 619 q 119 353 119 499 q 128 147 119 207 q 165 65 136 88 q 261 43 193 43 z "},"ớ":{"ha":524,"x_min":60,"x_max":525,"o":"m 525 843 l 525 797 q 517 717 525 744 q 486 678 508 689 q 421 665 464 667 q 454 559 446 629 q 463 353 463 489 q 450 118 463 190 q 396 17 438 46 q 261 -11 354 -11 q 126 17 168 -11 q 72 118 85 46 q 60 353 60 190 q 72 588 60 515 q 126 690 85 661 q 261 719 168 719 q 358 708 325 719 l 413 708 q 455 716 442 708 q 472 739 468 724 q 475 786 475 754 l 475 843 l 525 843 m 261 43 q 359 65 331 43 q 395 147 388 88 q 403 353 403 207 q 395 560 403 500 q 359 642 388 619 q 261 665 331 665 q 165 642 193 665 q 128 559 136 619 q 119 353 119 499 q 128 147 119 207 q 165 65 136 88 q 261 43 193 43 m 235 839 l 235 846 l 281 1032 l 347 1032 l 347 1025 l 276 839 l 235 839 z "},"ợ":{"ha":524,"x_min":60,"x_max":525,"o":"m 525 843 l 525 797 q 517 717 525 744 q 486 678 508 689 q 421 665 464 667 q 454 559 446 629 q 463 353 463 489 q 450 118 463 190 q 396 17 438 46 q 261 -11 354 -11 q 126 17 168 -11 q 72 118 85 46 q 60 353 60 190 q 72 588 60 515 q 126 690 85 661 q 261 719 168 719 q 358 708 325 719 l 413 708 q 455 716 442 708 q 472 739 468 724 q 475 786 475 754 l 475 843 l 525 843 m 261 43 q 359 65 331 43 q 395 147 388 88 q 403 353 403 207 q 395 560 403 500 q 359 642 388 619 q 261 665 331 665 q 165 642 193 665 q 128 559 136 619 q 119 353 119 499 q 128 147 119 207 q 165 65 136 88 q 261 43 193 43 m 225 -185 l 225 -86 l 297 -86 l 297 -185 l 225 -185 z "},"ờ":{"ha":524,"x_min":60,"x_max":525,"o":"m 525 843 l 525 797 q 517 717 525 744 q 486 678 508 689 q 421 665 464 667 q 454 559 446 629 q 463 353 463 489 q 450 118 463 190 q 396 17 438 46 q 261 -11 354 -11 q 126 17 168 -11 q 72 118 85 46 q 60 353 60 190 q 72 588 60 515 q 126 690 85 661 q 261 719 168 719 q 358 708 325 719 l 413 708 q 455 716 442 708 q 472 739 468 724 q 475 786 475 754 l 475 843 l 525 843 m 261 43 q 359 65 331 43 q 395 147 388 88 q 403 353 403 207 q 395 560 403 500 q 359 642 388 619 q 261 665 331 665 q 165 642 193 665 q 128 559 136 619 q 119 353 119 499 q 128 147 119 207 q 165 65 136 88 q 261 43 193 43 m 240 839 l 169 1025 l 169 1032 l 235 1032 l 282 846 l 282 839 l 240 839 z "},"ở":{"ha":524,"x_min":60,"x_max":525,"o":"m 525 843 l 525 797 q 517 717 525 744 q 486 678 508 689 q 421 665 464 667 q 454 559 446 629 q 463 353 463 489 q 450 118 463 190 q 396 17 438 46 q 261 -11 354 -11 q 126 17 168 -11 q 72 118 85 46 q 60 353 60 190 q 72 588 60 515 q 126 690 85 661 q 261 719 168 719 q 358 708 325 719 l 413 708 q 455 716 442 708 q 472 739 468 724 q 475 786 475 754 l 475 843 l 525 843 m 261 43 q 359 65 331 43 q 395 147 388 88 q 403 353 403 207 q 395 560 403 500 q 359 642 388 619 q 261 665 331 665 q 165 642 193 665 q 128 559 136 619 q 119 353 119 499 q 128 147 119 207 q 165 65 136 88 q 261 43 193 43 m 210 863 q 220 900 210 889 q 258 921 231 911 l 274 925 q 316 946 304 935 q 328 985 328 957 q 324 1016 328 1007 q 302 1030 319 1025 q 246 1035 285 1035 q 143 1029 226 1035 l 143 1071 q 254 1079 224 1079 q 353 1060 328 1079 q 378 993 378 1040 q 369 933 378 953 q 324 900 360 914 l 311 896 q 264 876 272 883 q 256 849 256 869 l 210 849 l 210 863 z "},"ỡ":{"ha":524,"x_min":60,"x_max":525,"o":"m 525 843 l 525 797 q 517 717 525 744 q 486 678 508 689 q 421 665 464 667 q 454 559 446 629 q 463 353 463 489 q 450 118 463 190 q 396 17 438 46 q 261 -11 354 -11 q 126 17 168 -11 q 72 118 85 46 q 60 353 60 190 q 72 588 60 515 q 126 690 85 661 q 261 719 168 719 q 358 708 325 719 l 413 708 q 455 716 442 708 q 472 739 468 724 q 475 786 475 754 l 475 843 l 525 843 m 261 43 q 359 65 331 43 q 395 147 388 88 q 403 353 403 207 q 395 560 403 500 q 359 642 388 619 q 261 665 331 665 q 165 642 193 665 q 128 559 136 619 q 119 353 119 499 q 128 147 119 207 q 165 65 136 88 q 261 43 193 43 m 422 1032 q 408 925 422 954 q 353 896 394 896 q 310 905 332 896 q 256 931 288 914 q 210 956 229 947 q 172 964 190 964 q 149 946 154 964 q 143 881 143 928 l 100 881 q 114 988 100 958 q 169 1017 128 1017 q 216 1007 193 1017 q 271 979 239 997 q 317 956 299 964 q 350 949 335 949 q 374 967 368 949 q 379 1032 379 985 l 422 1032 z "},"ő":{"ha":524,"x_min":60,"x_max":463,"o":"m 261 -11 q 126 17 168 -11 q 72 118 85 46 q 60 353 60 190 q 72 588 60 515 q 126 690 85 661 q 261 719 168 719 q 396 690 354 719 q 450 588 438 661 q 463 353 463 515 q 450 118 463 190 q 396 17 438 46 q 261 -11 354 -11 m 261 43 q 359 65 331 43 q 395 147 388 88 q 403 353 403 207 q 395 560 403 500 q 359 642 388 619 q 261 665 331 665 q 165 642 193 665 q 128 559 136 619 q 119 353 119 499 q 128 147 119 207 q 165 65 136 88 q 261 43 193 43 m 185 849 l 185 856 l 228 1014 l 290 1014 l 290 1007 l 225 849 l 185 849 m 328 849 l 328 856 l 371 1014 l 433 1014 l 433 1007 l 367 849 l 328 849 z "},"ȏ":{"ha":524,"x_min":60,"x_max":463,"o":"m 261 -11 q 126 17 168 -11 q 72 118 85 46 q 60 353 60 190 q 72 588 60 515 q 126 690 85 661 q 261 719 168 719 q 396 690 354 719 q 450 588 438 661 q 463 353 463 515 q 450 118 463 190 q 396 17 438 46 q 261 -11 354 -11 m 261 43 q 359 65 331 43 q 395 147 388 88 q 403 353 403 207 q 395 560 403 500 q 359 642 388 619 q 261 665 331 665 q 165 642 193 665 q 128 559 136 619 q 119 353 119 499 q 128 147 119 207 q 165 65 136 88 q 261 43 193 43 m 129 846 q 136 954 129 915 q 172 1017 143 993 q 261 1040 200 1040 q 350 1017 322 1040 q 385 955 378 993 q 392 846 392 917 l 340 846 q 336 935 340 906 q 315 980 332 964 q 261 996 299 996 q 206 980 224 996 q 185 935 189 964 q 181 846 181 906 l 129 846 z "},"ō":{"ha":524,"x_min":60,"x_max":463,"o":"m 261 -11 q 126 17 168 -11 q 72 118 85 46 q 60 353 60 190 q 72 588 60 515 q 126 690 85 661 q 261 719 168 719 q 396 690 354 719 q 450 588 438 661 q 463 353 463 515 q 450 118 463 190 q 396 17 438 46 q 261 -11 354 -11 m 261 43 q 359 65 331 43 q 395 147 388 88 q 403 353 403 207 q 395 560 403 500 q 359 642 388 619 q 261 665 331 665 q 165 642 193 665 q 128 559 136 619 q 119 353 119 499 q 128 147 119 207 q 165 65 136 88 q 261 43 193 43 m 146 972 l 146 1032 l 376 1032 l 376 972 l 146 972 z "},"ǫ":{"ha":524,"x_min":60,"x_max":463,"o":"m 261 719 q 396 690 354 719 q 450 588 438 661 q 463 353 463 515 q 450 118 463 190 q 396 17 438 46 q 332 -62 361 -8 q 303 -160 303 -115 q 367 -224 303 -224 l 390 -222 l 390 -271 q 357 -272 376 -272 q 275 -244 301 -272 q 249 -171 249 -217 q 268 -89 249 -132 q 321 -8 288 -46 q 261 -11 285 -11 q 126 17 168 -11 q 72 118 85 46 q 60 353 60 190 q 72 588 60 515 q 126 690 85 661 q 261 719 168 719 m 261 43 q 359 65 331 43 q 395 147 388 88 q 403 353 403 207 q 395 560 403 500 q 359 642 388 619 q 261 665 331 665 q 165 642 193 665 q 128 559 136 619 q 119 353 119 499 q 128 147 119 207 q 165 65 136 88 q 261 43 193 43 z "},"ø":{"ha":524,"x_min":60,"x_max":463,"o":"m 417 671 q 453 565 444 636 q 463 353 463 494 q 450 118 463 190 q 396 17 438 46 q 261 -11 354 -11 q 150 4 189 -11 l 118 -76 l 60 -76 l 106 38 q 69 142 78 72 q 60 353 60 211 q 72 588 60 515 q 126 690 85 661 q 261 719 168 719 q 372 703 335 719 l 406 785 l 463 785 l 417 671 m 119 353 q 122 192 119 247 q 133 107 125 138 l 351 650 q 261 665 322 665 q 165 642 193 665 q 128 559 136 619 q 119 353 119 499 m 403 353 q 401 517 403 465 q 389 600 399 569 l 171 56 q 261 43 197 43 q 359 65 331 43 q 395 147 388 88 q 403 353 403 207 z "},"ǿ":{"ha":524,"x_min":60,"x_max":463,"o":"m 417 671 q 453 565 444 636 q 463 353 463 494 q 450 118 463 190 q 396 17 438 46 q 261 -11 354 -11 q 150 4 189 -11 l 118 -76 l 60 -76 l 106 38 q 69 142 78 72 q 60 353 60 211 q 72 588 60 515 q 126 690 85 661 q 261 719 168 719 q 372 703 335 719 l 406 785 l 463 785 l 417 671 m 119 353 q 122 192 119 247 q 133 107 125 138 l 351 650 q 261 665 322 665 q 165 642 193 665 q 128 559 136 619 q 119 353 119 499 m 403 353 q 401 517 403 465 q 389 600 399 569 l 171 56 q 261 43 197 43 q 359 65 331 43 q 395 147 388 88 q 403 353 403 207 m 235 839 l 235 846 l 281 1032 l 347 1032 l 347 1025 l 276 839 l 235 839 z "},"õ":{"ha":524,"x_min":60,"x_max":463,"o":"m 261 -11 q 126 17 168 -11 q 72 118 85 46 q 60 353 60 190 q 72 588 60 515 q 126 690 85 661 q 261 719 168 719 q 396 690 354 719 q 450 588 438 661 q 463 353 463 515 q 450 118 463 190 q 396 17 438 46 q 261 -11 354 -11 m 261 43 q 359 65 331 43 q 395 147 388 88 q 403 353 403 207 q 395 560 403 500 q 359 642 388 619 q 261 665 331 665 q 165 642 193 665 q 128 559 136 619 q 119 353 119 499 q 128 147 119 207 q 165 65 136 88 q 261 43 193 43 m 424 1032 q 410 925 424 954 q 354 896 396 896 q 311 905 333 896 q 257 931 289 914 q 211 956 231 947 q 174 964 192 964 q 150 946 156 964 q 144 881 144 928 l 101 881 q 115 988 101 958 q 171 1017 129 1017 q 217 1007 194 1017 q 272 979 240 997 q 318 956 300 964 q 351 949 336 949 q 375 967 369 949 q 381 1032 381 985 l 424 1032 z "},"œ":{"ha":853,"x_min":60,"x_max":792,"o":"m 792 335 l 463 335 q 473 149 463 207 q 515 67 483 90 q 619 43 547 43 q 701 48 657 43 q 776 61 746 53 l 776 7 q 701 -6 749 0 q 611 -11 654 -11 q 497 10 538 -11 q 435 85 456 32 q 378 10 417 31 q 261 -11 339 -11 q 126 17 168 -11 q 72 118 85 46 q 60 353 60 190 q 72 588 60 515 q 126 690 85 661 q 261 719 168 719 q 375 700 336 719 q 433 628 414 681 q 494 698 453 676 q 608 719 535 719 q 733 688 694 719 q 781 585 771 657 q 792 356 792 514 l 792 335 m 261 43 q 359 65 331 43 q 395 147 388 88 q 403 353 403 207 q 395 560 403 500 q 359 642 388 619 q 261 665 331 665 q 165 642 193 665 q 128 559 136 619 q 119 353 119 499 q 128 147 119 207 q 165 65 136 88 q 261 43 193 43 m 606 665 q 510 646 539 665 q 472 570 482 626 q 463 385 463 514 l 733 385 l 733 413 q 723 580 733 528 q 687 649 713 632 q 606 665 661 665 z "},"p":{"ha":538,"x_min":81,"x_max":476,"o":"m 81 708 l 129 708 l 135 606 l 140 606 q 195 697 157 674 q 292 719 233 719 q 409 690 371 719 q 462 584 447 660 q 476 354 476 508 q 462 124 476 200 q 409 19 447 49 q 292 -11 371 -11 q 195 13 231 -11 q 146 90 160 36 l 140 90 l 140 -265 l 81 -265 l 81 708 m 278 43 q 369 65 342 43 q 407 149 397 86 q 417 354 417 211 q 407 560 417 497 q 369 644 397 622 q 278 665 342 665 q 194 640 225 665 q 151 557 164 614 q 140 354 140 493 q 150 164 140 221 q 194 71 164 99 q 278 43 225 43 z "},"þ":{"ha":538,"x_min":81,"x_max":476,"o":"m 81 1032 l 140 1032 l 140 618 l 146 618 q 195 696 160 672 q 292 719 231 719 q 409 690 371 719 q 462 584 447 660 q 476 354 476 508 q 462 124 476 200 q 409 19 447 49 q 292 -11 371 -11 q 195 13 231 -11 q 146 90 160 36 l 140 90 l 140 -264 l 81 -264 l 81 1032 m 278 43 q 369 65 342 43 q 407 149 397 86 q 417 354 417 211 q 407 560 417 497 q 369 644 397 622 q 278 665 342 665 q 194 639 225 665 q 150 550 164 613 q 140 354 140 492 q 149 169 140 224 q 194 72 164 100 q 278 43 225 43 z "},"q":{"ha":538,"x_min":60,"x_max":457,"o":"m 397 90 l 390 90 q 342 13 376 36 q 244 -11 307 -11 q 127 19 165 -11 q 74 124 89 49 q 60 354 60 200 q 74 584 60 508 q 128 690 89 660 q 244 719 167 719 q 342 697 304 719 q 396 606 381 674 l 403 606 l 408 708 l 457 708 l 457 -265 l 397 -265 l 397 90 m 260 43 q 342 69 313 43 q 385 156 372 96 q 397 354 397 218 q 394 474 397 426 q 383 565 392 521 q 343 641 374 617 q 260 665 313 665 q 167 644 196 665 q 129 560 139 622 q 119 354 119 497 q 129 149 119 211 q 167 65 139 86 q 260 43 196 43 z "},"r":{"ha":325,"x_min":81,"x_max":306,"o":"m 81 708 l 129 708 l 135 572 l 140 572 q 197 688 157 657 q 306 719 238 719 l 306 657 q 175 585 210 657 q 140 358 140 514 l 140 0 l 81 0 l 81 708 z "},"ŕ":{"ha":325,"x_min":81,"x_max":306,"o":"m 81 708 l 129 708 l 135 572 l 140 572 q 197 688 157 657 q 306 719 238 719 l 306 657 q 175 585 210 657 q 140 358 140 514 l 140 0 l 81 0 l 81 708 m 136 839 l 136 846 l 182 1032 l 249 1032 l 249 1025 l 178 839 l 136 839 z "},"ř":{"ha":325,"x_min":32,"x_max":306,"o":"m 81 708 l 129 708 l 135 572 l 140 572 q 197 688 157 657 q 306 719 238 719 l 306 657 q 175 585 210 657 q 140 358 140 514 l 140 0 l 81 0 l 81 708 m 125 842 l 32 1025 l 32 1032 l 76 1032 l 163 888 l 247 1032 l 292 1032 l 292 1025 l 199 842 l 125 842 z "},"ŗ":{"ha":325,"x_min":58,"x_max":306,"o":"m 81 708 l 129 708 l 135 572 l 140 572 q 197 688 157 657 q 306 719 238 719 l 306 657 q 175 585 210 657 q 140 358 140 514 l 140 0 l 81 0 l 81 708 m 58 -289 q 101 -282 88 -289 q 117 -258 114 -275 q 121 -204 121 -242 l 121 -181 l 89 -181 l 89 -86 l 163 -86 l 163 -189 q 154 -272 163 -244 q 124 -312 146 -300 q 58 -324 103 -324 l 58 -289 z "},"ȑ":{"ha":325,"x_min":6,"x_max":306,"o":"m 81 708 l 129 708 l 135 572 l 140 572 q 197 688 157 657 q 306 719 238 719 l 306 657 q 175 585 210 657 q 140 358 140 514 l 140 0 l 81 0 l 81 708 m 111 849 l 72 849 l 6 1007 l 6 1014 l 68 1014 l 111 856 l 111 849 m 254 849 l 214 849 l 149 1007 l 149 1014 l 211 1014 l 254 856 l 254 849 z "},"ṛ":{"ha":325,"x_min":75,"x_max":306,"o":"m 81 708 l 129 708 l 135 572 l 140 572 q 197 688 157 657 q 306 719 238 719 l 306 657 q 175 585 210 657 q 140 358 140 514 l 140 0 l 81 0 l 81 708 m 75 -185 l 75 -86 l 147 -86 l 147 -185 l 75 -185 z "},"ȓ":{"ha":325,"x_min":31,"x_max":306,"o":"m 81 708 l 129 708 l 135 572 l 140 572 q 197 688 157 657 q 306 719 238 719 l 306 657 q 175 585 210 657 q 140 358 140 514 l 140 0 l 81 0 l 81 708 m 31 846 q 38 954 31 915 q 73 1017 44 993 q 163 1040 101 1040 q 251 1017 224 1040 q 286 955 279 993 q 293 846 293 917 l 242 846 q 238 935 242 906 q 217 980 233 964 q 163 996 200 996 q 108 980 125 996 q 86 935 90 964 q 82 846 82 906 l 31 846 z "},"s":{"ha":444,"x_min":46,"x_max":399,"o":"m 214 -11 q 128 -6 172 -11 q 60 6 85 -1 l 60 58 q 128 47 83 51 q 219 43 172 43 q 315 79 290 43 q 339 186 339 115 q 333 274 339 247 q 315 309 328 300 q 271 322 301 318 l 147 343 q 68 392 90 353 q 46 517 46 431 q 93 676 46 633 q 235 719 140 719 q 311 715 271 719 q 374 703 351 710 l 374 649 q 313 661 354 657 q 225 665 271 665 q 136 635 167 665 q 106 526 106 606 q 112 447 106 472 q 131 411 118 421 q 172 397 144 401 l 294 378 q 358 354 336 371 q 389 299 379 338 q 399 188 399 261 q 356 35 399 81 q 214 -11 313 -11 z "},"ś":{"ha":444,"x_min":46,"x_max":399,"o":"m 214 -11 q 128 -6 172 -11 q 60 6 85 -1 l 60 58 q 128 47 83 51 q 219 43 172 43 q 315 79 290 43 q 339 186 339 115 q 333 274 339 247 q 315 309 328 300 q 271 322 301 318 l 147 343 q 68 392 90 353 q 46 517 46 431 q 93 676 46 633 q 235 719 140 719 q 311 715 271 719 q 374 703 351 710 l 374 649 q 313 661 354 657 q 225 665 271 665 q 136 635 167 665 q 106 526 106 606 q 112 447 106 472 q 131 411 118 421 q 172 397 144 401 l 294 378 q 358 354 336 371 q 389 299 379 338 q 399 188 399 261 q 356 35 399 81 q 214 -11 313 -11 m 196 839 l 196 846 l 242 1032 l 308 1032 l 308 1025 l 238 839 l 196 839 z "},"ꞌ":{"ha":119,"x_min":28,"x_max":92,"o":"m 28 406 l 28 1032 l 92 1032 l 92 710 l 68 406 l 28 406 z "},"š":{"ha":444,"x_min":46,"x_max":399,"o":"m 214 -11 q 128 -6 172 -11 q 60 6 85 -1 l 60 58 q 128 47 83 51 q 219 43 172 43 q 315 79 290 43 q 339 186 339 115 q 333 274 339 247 q 315 309 328 300 q 271 322 301 318 l 147 343 q 68 392 90 353 q 46 517 46 431 q 93 676 46 633 q 235 719 140 719 q 311 715 271 719 q 374 703 351 710 l 374 649 q 313 661 354 657 q 225 665 271 665 q 136 635 167 665 q 106 526 106 606 q 112 447 106 472 q 131 411 118 421 q 172 397 144 401 l 294 378 q 358 354 336 371 q 389 299 379 338 q 399 188 399 261 q 356 35 399 81 q 214 -11 313 -11 m 189 842 l 96 1025 l 96 1032 l 140 1032 l 226 888 l 311 1032 l 356 1032 l 356 1025 l 263 842 l 189 842 z "},"ş":{"ha":444,"x_min":46,"x_max":399,"o":"m 399 188 q 361 42 399 88 q 240 -10 324 -4 l 183 -264 l 119 -264 l 119 -257 l 194 -11 q 60 6 110 -8 l 60 58 q 128 47 83 51 q 219 43 172 43 q 315 79 290 43 q 339 186 339 115 q 333 274 339 247 q 315 309 328 300 q 271 322 301 318 l 147 343 q 68 392 90 353 q 46 517 46 431 q 93 676 46 633 q 235 719 140 719 q 311 715 271 719 q 374 703 351 710 l 374 649 q 313 661 354 657 q 225 665 271 665 q 136 635 167 665 q 106 526 106 606 q 112 447 106 472 q 131 411 118 421 q 172 397 144 401 l 294 378 q 358 354 336 371 q 389 299 379 338 q 399 188 399 261 z "},"ŝ":{"ha":444,"x_min":46,"x_max":399,"o":"m 214 -11 q 128 -6 172 -11 q 60 6 85 -1 l 60 58 q 128 47 83 51 q 219 43 172 43 q 315 79 290 43 q 339 186 339 115 q 333 274 339 247 q 315 309 328 300 q 271 322 301 318 l 147 343 q 68 392 90 353 q 46 517 46 431 q 93 676 46 633 q 235 719 140 719 q 311 715 271 719 q 374 703 351 710 l 374 649 q 313 661 354 657 q 225 665 271 665 q 136 635 167 665 q 106 526 106 606 q 112 447 106 472 q 131 411 118 421 q 172 397 144 401 l 294 378 q 358 354 336 371 q 389 299 379 338 q 399 188 399 261 q 356 35 399 81 q 214 -11 313 -11 m 92 842 l 92 849 l 185 1032 l 258 1032 l 351 849 l 351 842 l 307 842 l 222 986 l 136 842 l 92 842 z "},"ș":{"ha":444,"x_min":46,"x_max":399,"o":"m 214 -11 q 128 -6 172 -11 q 60 6 85 -1 l 60 58 q 128 47 83 51 q 219 43 172 43 q 315 79 290 43 q 339 186 339 115 q 333 274 339 247 q 315 309 328 300 q 271 322 301 318 l 147 343 q 68 392 90 353 q 46 517 46 431 q 93 676 46 633 q 235 719 140 719 q 311 715 271 719 q 374 703 351 710 l 374 649 q 313 661 354 657 q 225 665 271 665 q 136 635 167 665 q 106 526 106 606 q 112 447 106 472 q 131 411 118 421 q 172 397 144 401 l 294 378 q 358 354 336 371 q 389 299 379 338 q 399 188 399 261 q 356 35 399 81 q 214 -11 313 -11 m 169 -289 q 212 -282 199 -289 q 228 -258 225 -275 q 232 -204 232 -242 l 232 -181 l 200 -181 l 200 -86 l 274 -86 l 274 -189 q 265 -272 274 -244 q 235 -312 257 -300 q 169 -324 214 -324 l 169 -289 z "},"ṣ":{"ha":444,"x_min":46,"x_max":399,"o":"m 214 -11 q 128 -6 172 -11 q 60 6 85 -1 l 60 58 q 128 47 83 51 q 219 43 172 43 q 315 79 290 43 q 339 186 339 115 q 333 274 339 247 q 315 309 328 300 q 271 322 301 318 l 147 343 q 68 392 90 353 q 46 517 46 431 q 93 676 46 633 q 235 719 140 719 q 311 715 271 719 q 374 703 351 710 l 374 649 q 313 661 354 657 q 225 665 271 665 q 136 635 167 665 q 106 526 106 606 q 112 447 106 472 q 131 411 118 421 q 172 397 144 401 l 294 378 q 358 354 336 371 q 389 299 379 338 q 399 188 399 261 q 356 35 399 81 q 214 -11 313 -11 m 186 -185 l 186 -86 l 258 -86 l 258 -185 l 186 -185 z "},"ß":{"ha":553,"x_min":81,"x_max":489,"o":"m 236 0 l 236 54 l 281 54 q 380 72 350 54 q 419 145 410 90 q 429 332 429 200 q 417 490 429 435 q 378 567 406 544 q 299 589 350 589 l 267 589 l 267 643 l 299 643 q 394 683 365 643 q 422 815 422 722 q 391 949 422 911 q 281 988 360 988 q 170 944 201 988 q 139 790 139 901 l 139 0 l 81 0 l 81 779 q 102 938 81 881 q 167 1018 124 994 q 281 1042 210 1042 q 434 992 386 1042 q 482 817 482 943 q 456 680 482 724 q 371 624 429 636 l 371 618 q 460 540 432 603 q 489 342 489 478 q 475 134 489 204 q 420 32 461 64 q 296 0 379 0 l 236 0 z "},"ſ":{"ha":299,"x_min":26,"x_max":286,"o":"m 115 654 l 26 654 l 26 708 l 115 708 l 115 857 q 133 972 115 935 q 186 1020 151 1008 q 286 1032 221 1032 l 286 982 q 217 973 240 982 q 185 940 194 964 q 175 868 175 917 l 175 0 l 115 0 l 115 654 z "},"t":{"ha":306,"x_min":26,"x_max":278,"o":"m 115 0 l 115 654 l 26 654 l 26 708 l 115 708 l 115 914 l 175 914 l 175 708 l 278 708 l 278 654 l 175 654 l 175 0 l 115 0 z "},"ŧ":{"ha":306,"x_min":26,"x_max":278,"o":"m 278 654 l 175 654 l 175 383 l 271 383 l 271 329 l 175 329 l 175 0 l 115 0 l 115 329 l 42 329 l 42 383 l 115 383 l 115 654 l 26 654 l 26 708 l 115 708 l 115 914 l 175 914 l 175 708 l 278 708 l 278 654 z "},"ť":{"ha":319,"x_min":26,"x_max":397,"o":"m 115 0 l 115 654 l 26 654 l 26 708 l 115 708 l 115 914 l 175 914 l 175 708 l 278 708 l 278 654 l 175 654 l 175 0 l 115 0 m 317 628 l 333 836 l 333 956 l 397 956 l 397 836 l 357 628 l 317 628 z "},"ţ":{"ha":306,"x_min":26,"x_max":278,"o":"m 175 708 l 278 708 l 278 654 l 175 654 l 175 0 l 165 0 l 107 -264 l 43 -264 l 43 -257 l 122 0 l 115 0 l 115 654 l 26 654 l 26 708 l 115 708 l 115 914 l 175 914 l 175 708 z "},"ț":{"ha":306,"x_min":26,"x_max":278,"o":"m 115 0 l 115 654 l 26 654 l 26 708 l 115 708 l 115 914 l 175 914 l 175 708 l 278 708 l 278 654 l 175 654 l 175 0 l 115 0 m 93 -289 q 135 -282 122 -289 q 152 -258 149 -275 q 156 -204 156 -242 l 156 -181 l 124 -181 l 124 -86 l 197 -86 l 197 -189 q 189 -272 197 -244 q 159 -312 181 -300 q 93 -324 138 -324 l 93 -289 z "},"ṭ":{"ha":306,"x_min":26,"x_max":278,"o":"m 115 0 l 115 654 l 26 654 l 26 708 l 115 708 l 115 914 l 175 914 l 175 708 l 278 708 l 278 654 l 175 654 l 175 0 l 115 0 m 110 -185 l 110 -86 l 182 -86 l 182 -185 l 110 -185 z "},"u":{"ha":538,"x_min":75,"x_max":457,"o":"m 403 103 l 397 103 q 349 19 385 50 q 240 -11 313 -11 q 134 15 169 -11 q 87 97 99 40 q 75 261 75 154 l 75 708 l 135 708 l 135 275 q 144 124 135 171 q 178 60 153 76 q 260 43 204 43 q 354 80 325 43 q 390 175 383 117 q 397 343 397 233 l 397 708 l 457 708 l 457 0 l 408 0 l 403 103 z "},"ú":{"ha":538,"x_min":75,"x_max":457,"o":"m 403 103 l 397 103 q 349 19 385 50 q 240 -11 313 -11 q 134 15 169 -11 q 87 97 99 40 q 75 261 75 154 l 75 708 l 135 708 l 135 275 q 144 124 135 171 q 178 60 153 76 q 260 43 204 43 q 354 80 325 43 q 390 175 383 117 q 397 343 397 233 l 397 708 l 457 708 l 457 0 l 408 0 l 403 103 m 244 839 l 244 846 l 290 1032 l 357 1032 l 357 1025 l 286 839 l 244 839 z "},"ŭ":{"ha":538,"x_min":75,"x_max":457,"o":"m 403 103 l 397 103 q 349 19 385 50 q 240 -11 313 -11 q 134 15 169 -11 q 87 97 99 40 q 75 261 75 154 l 75 708 l 135 708 l 135 275 q 144 124 135 171 q 178 60 153 76 q 260 43 204 43 q 354 80 325 43 q 390 175 383 117 q 397 343 397 233 l 397 708 l 457 708 l 457 0 l 408 0 l 403 103 m 399 1032 q 392 924 399 963 q 356 861 385 885 q 267 838 328 838 q 178 861 206 838 q 143 923 150 885 q 136 1032 136 961 l 188 1032 q 192 943 188 972 q 213 898 196 914 q 267 882 229 882 q 322 898 304 882 q 343 943 339 914 q 347 1032 347 972 l 399 1032 z "},"ǔ":{"ha":538,"x_min":75,"x_max":457,"o":"m 403 103 l 397 103 q 349 19 385 50 q 240 -11 313 -11 q 134 15 169 -11 q 87 97 99 40 q 75 261 75 154 l 75 708 l 135 708 l 135 275 q 144 124 135 171 q 178 60 153 76 q 260 43 204 43 q 354 80 325 43 q 390 175 383 117 q 397 343 397 233 l 397 708 l 457 708 l 457 0 l 408 0 l 403 103 m 231 842 l 138 1025 l 138 1032 l 182 1032 l 268 888 l 353 1032 l 397 1032 l 397 1025 l 304 842 l 231 842 z "},"û":{"ha":538,"x_min":75,"x_max":457,"o":"m 403 103 l 397 103 q 349 19 385 50 q 240 -11 313 -11 q 134 15 169 -11 q 87 97 99 40 q 75 261 75 154 l 75 708 l 135 708 l 135 275 q 144 124 135 171 q 178 60 153 76 q 260 43 204 43 q 354 80 325 43 q 390 175 383 117 q 397 343 397 233 l 397 708 l 457 708 l 457 0 l 408 0 l 403 103 m 138 842 l 138 849 l 231 1032 l 304 1032 l 397 849 l 397 842 l 353 842 l 268 986 l 182 842 l 138 842 z "},"ȕ":{"ha":538,"x_min":75,"x_max":457,"o":"m 403 103 l 397 103 q 349 19 385 50 q 240 -11 313 -11 q 134 15 169 -11 q 87 97 99 40 q 75 261 75 154 l 75 708 l 135 708 l 135 275 q 144 124 135 171 q 178 60 153 76 q 260 43 204 43 q 354 80 325 43 q 390 175 383 117 q 397 343 397 233 l 397 708 l 457 708 l 457 0 l 408 0 l 403 103 m 217 849 l 178 849 l 111 1007 l 111 1014 l 174 1014 l 217 856 l 217 849 m 360 849 l 319 849 l 254 1007 l 254 1014 l 317 1014 l 360 856 l 360 849 z "},"ü":{"ha":538,"x_min":75,"x_max":457,"o":"m 403 103 l 397 103 q 349 19 385 50 q 240 -11 313 -11 q 134 15 169 -11 q 87 97 99 40 q 75 261 75 154 l 75 708 l 135 708 l 135 275 q 144 124 135 171 q 178 60 153 76 q 260 43 204 43 q 354 80 325 43 q 390 175 383 117 q 397 343 397 233 l 397 708 l 457 708 l 457 0 l 408 0 l 403 103 m 115 924 l 115 1014 l 181 1014 l 181 924 l 115 924 m 351 924 l 351 1014 l 417 1014 l 417 924 l 351 924 z "},"ǘ":{"ha":538,"x_min":75,"x_max":457,"o":"m 403 103 l 397 103 q 349 19 385 50 q 240 -11 313 -11 q 134 15 169 -11 q 87 97 99 40 q 75 261 75 154 l 75 708 l 135 708 l 135 275 q 144 124 135 171 q 178 60 153 76 q 260 43 204 43 q 354 80 325 43 q 390 175 383 117 q 397 343 397 233 l 397 708 l 457 708 l 457 0 l 408 0 l 403 103 m 117 924 l 117 1014 l 182 1014 l 182 924 l 117 924 m 353 924 l 353 1014 l 418 1014 l 418 924 l 353 924 m 244 1061 l 244 1068 l 290 1254 l 357 1254 l 357 1247 l 286 1061 l 244 1061 z "},"ǚ":{"ha":538,"x_min":75,"x_max":457,"o":"m 403 103 l 397 103 q 349 19 385 50 q 240 -11 313 -11 q 134 15 169 -11 q 87 97 99 40 q 75 261 75 154 l 75 708 l 135 708 l 135 275 q 144 124 135 171 q 178 60 153 76 q 260 43 204 43 q 354 80 325 43 q 390 175 383 117 q 397 343 397 233 l 397 708 l 457 708 l 457 0 l 408 0 l 403 103 m 117 924 l 117 1014 l 182 1014 l 182 924 l 117 924 m 353 924 l 353 1014 l 418 1014 l 418 924 l 353 924 m 233 1064 l 140 1247 l 140 1254 l 185 1254 l 271 1110 l 356 1254 l 400 1254 l 400 1247 l 307 1064 l 233 1064 z "},"ǜ":{"ha":538,"x_min":75,"x_max":457,"o":"m 403 103 l 397 103 q 349 19 385 50 q 240 -11 313 -11 q 134 15 169 -11 q 87 97 99 40 q 75 261 75 154 l 75 708 l 135 708 l 135 275 q 144 124 135 171 q 178 60 153 76 q 260 43 204 43 q 354 80 325 43 q 390 175 383 117 q 397 343 397 233 l 397 708 l 457 708 l 457 0 l 408 0 l 403 103 m 117 924 l 117 1014 l 182 1014 l 182 924 l 117 924 m 353 924 l 353 1014 l 418 1014 l 418 924 l 353 924 m 250 1061 l 179 1247 l 179 1254 l 244 1254 l 292 1068 l 292 1061 l 250 1061 z "},"ǖ":{"ha":538,"x_min":75,"x_max":457,"o":"m 403 103 l 397 103 q 349 19 385 50 q 240 -11 313 -11 q 134 15 169 -11 q 87 97 99 40 q 75 261 75 154 l 75 708 l 135 708 l 135 275 q 144 124 135 171 q 178 60 153 76 q 260 43 204 43 q 354 80 325 43 q 390 175 383 117 q 397 343 397 233 l 397 708 l 457 708 l 457 0 l 408 0 l 403 103 m 117 924 l 117 1014 l 182 1014 l 182 924 l 117 924 m 353 924 l 353 1014 l 418 1014 l 418 924 l 353 924 m 156 1194 l 156 1254 l 386 1254 l 386 1194 l 156 1194 z "},"ụ":{"ha":538,"x_min":75,"x_max":457,"o":"m 403 103 l 397 103 q 349 19 385 50 q 240 -11 313 -11 q 134 15 169 -11 q 87 97 99 40 q 75 261 75 154 l 75 708 l 135 708 l 135 275 q 144 124 135 171 q 178 60 153 76 q 260 43 204 43 q 354 80 325 43 q 390 175 383 117 q 397 343 397 233 l 397 708 l 457 708 l 457 0 l 408 0 l 403 103 m 219 -185 l 219 -86 l 292 -86 l 292 -185 l 219 -185 z "},"ù":{"ha":538,"x_min":75,"x_max":457,"o":"m 403 103 l 397 103 q 349 19 385 50 q 240 -11 313 -11 q 134 15 169 -11 q 87 97 99 40 q 75 261 75 154 l 75 708 l 135 708 l 135 275 q 144 124 135 171 q 178 60 153 76 q 260 43 204 43 q 354 80 325 43 q 390 175 383 117 q 397 343 397 233 l 397 708 l 457 708 l 457 0 l 408 0 l 403 103 m 258 839 l 188 1025 l 188 1032 l 253 1032 l 300 846 l 300 839 l 258 839 z "},"ủ":{"ha":538,"x_min":75,"x_max":457,"o":"m 403 103 l 397 103 q 349 19 385 50 q 240 -11 313 -11 q 134 15 169 -11 q 87 97 99 40 q 75 261 75 154 l 75 708 l 135 708 l 135 275 q 144 124 135 171 q 178 60 153 76 q 260 43 204 43 q 354 80 325 43 q 390 175 383 117 q 397 343 397 233 l 397 708 l 457 708 l 457 0 l 408 0 l 403 103 m 217 863 q 227 900 217 889 q 265 921 238 911 l 281 925 q 323 946 311 935 q 335 985 335 957 q 331 1016 335 1007 q 309 1030 326 1025 q 253 1035 292 1035 q 150 1029 233 1035 l 150 1071 q 261 1079 231 1079 q 360 1060 335 1079 q 385 993 385 1040 q 376 933 385 953 q 331 900 367 914 l 318 896 q 271 876 279 883 q 263 849 263 869 l 217 849 l 217 863 z "},"ư":{"ha":538,"x_min":75,"x_max":568,"o":"m 568 843 l 568 797 q 559 715 568 743 q 527 676 550 688 q 457 665 504 665 l 457 0 l 408 0 l 403 103 l 397 103 q 349 19 385 50 q 240 -11 313 -11 q 134 15 169 -11 q 87 97 99 40 q 75 261 75 154 l 75 708 l 135 708 l 135 275 q 144 124 135 171 q 178 60 153 76 q 260 43 204 43 q 354 80 325 43 q 390 175 383 117 q 397 343 397 233 l 397 708 l 456 708 q 498 716 485 708 q 515 739 511 724 q 518 786 518 754 l 518 843 l 568 843 z "},"ứ":{"ha":538,"x_min":75,"x_max":568,"o":"m 568 843 l 568 797 q 559 715 568 743 q 527 676 550 688 q 457 665 504 665 l 457 0 l 408 0 l 403 103 l 397 103 q 349 19 385 50 q 240 -11 313 -11 q 134 15 169 -11 q 87 97 99 40 q 75 261 75 154 l 75 708 l 135 708 l 135 275 q 144 124 135 171 q 178 60 153 76 q 260 43 204 43 q 354 80 325 43 q 390 175 383 117 q 397 343 397 233 l 397 708 l 456 708 q 498 716 485 708 q 515 739 511 724 q 518 786 518 754 l 518 843 l 568 843 m 242 839 l 242 846 l 288 1032 l 354 1032 l 354 1025 l 283 839 l 242 839 z "}}}
